<?xml version="1.0" encoding="utf-8"?>
<svg xmlns="http://www.w3.org/2000/svg" xmlns:xlink="http://www.w3.org/1999/xlink" width="600" height="400" viewBox="0 0 2400 1600">
<defs>
  <clipPath id="clip870">
    <rect x="0" y="0" width="2400" height="1600"/>
  </clipPath>
</defs>
<path clip-path="url(#clip870)" d="M0 1600 L2400 1600 L2400 0 L0 0  Z" fill="#ffffff" fill-rule="evenodd" fill-opacity="1"/>
<defs>
  <clipPath id="clip871">
    <rect x="480" y="0" width="1681" height="1600"/>
  </clipPath>
</defs>
<path clip-path="url(#clip870)" d="M220.672 1005.53 L2352.76 1005.53 L2352.76 47.2441 L220.672 47.2441  Z" fill="#ffffff" fill-rule="evenodd" fill-opacity="1"/>
<defs>
  <clipPath id="clip872">
    <rect x="220" y="47" width="2133" height="959"/>
  </clipPath>
</defs>
<polyline clip-path="url(#clip872)" style="stroke:#000000; stroke-linecap:round; stroke-linejoin:round; stroke-width:2; stroke-opacity:0.1; fill:none" points="220.672,1005.53 220.672,47.2441 "/>
<polyline clip-path="url(#clip872)" style="stroke:#000000; stroke-linecap:round; stroke-linejoin:round; stroke-width:2; stroke-opacity:0.1; fill:none" points="525.255,1005.53 525.255,47.2441 "/>
<polyline clip-path="url(#clip872)" style="stroke:#000000; stroke-linecap:round; stroke-linejoin:round; stroke-width:2; stroke-opacity:0.1; fill:none" points="829.839,1005.53 829.839,47.2441 "/>
<polyline clip-path="url(#clip872)" style="stroke:#000000; stroke-linecap:round; stroke-linejoin:round; stroke-width:2; stroke-opacity:0.1; fill:none" points="1134.42,1005.53 1134.42,47.2441 "/>
<polyline clip-path="url(#clip872)" style="stroke:#000000; stroke-linecap:round; stroke-linejoin:round; stroke-width:2; stroke-opacity:0.1; fill:none" points="1439.01,1005.53 1439.01,47.2441 "/>
<polyline clip-path="url(#clip872)" style="stroke:#000000; stroke-linecap:round; stroke-linejoin:round; stroke-width:2; stroke-opacity:0.1; fill:none" points="1743.59,1005.53 1743.59,47.2441 "/>
<polyline clip-path="url(#clip872)" style="stroke:#000000; stroke-linecap:round; stroke-linejoin:round; stroke-width:2; stroke-opacity:0.1; fill:none" points="2048.17,1005.53 2048.17,47.2441 "/>
<polyline clip-path="url(#clip872)" style="stroke:#000000; stroke-linecap:round; stroke-linejoin:round; stroke-width:2; stroke-opacity:0.1; fill:none" points="2352.76,1005.53 2352.76,47.2441 "/>
<polyline clip-path="url(#clip870)" style="stroke:#000000; stroke-linecap:round; stroke-linejoin:round; stroke-width:4; stroke-opacity:1; fill:none" points="220.672,1005.53 2352.76,1005.53 "/>
<polyline clip-path="url(#clip870)" style="stroke:#000000; stroke-linecap:round; stroke-linejoin:round; stroke-width:4; stroke-opacity:1; fill:none" points="220.672,1005.53 220.672,986.634 "/>
<polyline clip-path="url(#clip870)" style="stroke:#000000; stroke-linecap:round; stroke-linejoin:round; stroke-width:4; stroke-opacity:1; fill:none" points="525.255,1005.53 525.255,986.634 "/>
<polyline clip-path="url(#clip870)" style="stroke:#000000; stroke-linecap:round; stroke-linejoin:round; stroke-width:4; stroke-opacity:1; fill:none" points="829.839,1005.53 829.839,986.634 "/>
<polyline clip-path="url(#clip870)" style="stroke:#000000; stroke-linecap:round; stroke-linejoin:round; stroke-width:4; stroke-opacity:1; fill:none" points="1134.42,1005.53 1134.42,986.634 "/>
<polyline clip-path="url(#clip870)" style="stroke:#000000; stroke-linecap:round; stroke-linejoin:round; stroke-width:4; stroke-opacity:1; fill:none" points="1439.01,1005.53 1439.01,986.634 "/>
<polyline clip-path="url(#clip870)" style="stroke:#000000; stroke-linecap:round; stroke-linejoin:round; stroke-width:4; stroke-opacity:1; fill:none" points="1743.59,1005.53 1743.59,986.634 "/>
<polyline clip-path="url(#clip870)" style="stroke:#000000; stroke-linecap:round; stroke-linejoin:round; stroke-width:4; stroke-opacity:1; fill:none" points="2048.17,1005.53 2048.17,986.634 "/>
<polyline clip-path="url(#clip870)" style="stroke:#000000; stroke-linecap:round; stroke-linejoin:round; stroke-width:4; stroke-opacity:1; fill:none" points="2352.76,1005.53 2352.76,986.634 "/>
<path clip-path="url(#clip870)" d="M220.672 1039.38 Q216.158 1039.38 213.872 1043.84 Q211.615 1048.26 211.615 1057.18 Q211.615 1066.06 213.872 1070.51 Q216.158 1074.94 220.672 1074.94 Q225.215 1074.94 227.472 1070.51 Q229.758 1066.06 229.758 1057.18 Q229.758 1048.26 227.472 1043.84 Q225.215 1039.38 220.672 1039.38 M220.672 1034.75 Q227.935 1034.75 231.754 1040.51 Q235.602 1046.24 235.602 1057.18 Q235.602 1068.08 231.754 1073.84 Q227.935 1079.57 220.672 1079.57 Q213.409 1079.57 209.561 1073.84 Q205.741 1068.08 205.741 1057.18 Q205.741 1046.24 209.561 1040.51 Q213.409 1034.75 220.672 1034.75 Z" fill="#000000" fill-rule="nonzero" fill-opacity="1" /><path clip-path="url(#clip870)" d="M493.615 1073.81 L503.163 1073.81 L503.163 1040.86 L492.776 1042.94 L492.776 1037.62 L503.106 1035.53 L508.95 1035.53 L508.95 1073.81 L518.499 1073.81 L518.499 1078.73 L493.615 1078.73 L493.615 1073.81 Z" fill="#000000" fill-rule="nonzero" fill-opacity="1" /><path clip-path="url(#clip870)" d="M542.804 1039.38 Q538.291 1039.38 536.005 1043.84 Q533.748 1048.26 533.748 1057.18 Q533.748 1066.06 536.005 1070.51 Q538.291 1074.94 542.804 1074.94 Q547.347 1074.94 549.604 1070.51 Q551.89 1066.06 551.89 1057.18 Q551.89 1048.26 549.604 1043.84 Q547.347 1039.38 542.804 1039.38 M542.804 1034.75 Q550.067 1034.75 553.887 1040.51 Q557.735 1046.24 557.735 1057.18 Q557.735 1068.08 553.887 1073.84 Q550.067 1079.57 542.804 1079.57 Q535.542 1079.57 531.693 1073.84 Q527.874 1068.08 527.874 1057.18 Q527.874 1046.24 531.693 1040.51 Q535.542 1034.75 542.804 1034.75 Z" fill="#000000" fill-rule="nonzero" fill-opacity="1" /><path clip-path="url(#clip870)" d="M803.305 1073.81 L823.705 1073.81 L823.705 1078.73 L796.274 1078.73 L796.274 1073.81 Q799.602 1070.37 805.331 1064.58 Q811.089 1058.77 812.565 1057.09 Q815.371 1053.93 816.471 1051.76 Q817.599 1049.57 817.599 1047.45 Q817.599 1044.01 815.169 1041.84 Q812.767 1039.67 808.89 1039.67 Q806.141 1039.67 803.074 1040.62 Q800.036 1041.58 796.564 1043.52 L796.564 1037.62 Q800.094 1036.2 803.161 1035.47 Q806.228 1034.75 808.774 1034.75 Q815.487 1034.75 819.48 1038.11 Q823.473 1041.46 823.473 1047.08 Q823.473 1049.74 822.46 1052.14 Q821.477 1054.51 818.843 1057.75 Q818.12 1058.59 814.243 1062.61 Q810.366 1066.61 803.305 1073.81 Z" fill="#000000" fill-rule="nonzero" fill-opacity="1" /><path clip-path="url(#clip870)" d="M848.473 1039.38 Q843.959 1039.38 841.673 1043.84 Q839.416 1048.26 839.416 1057.18 Q839.416 1066.06 841.673 1070.51 Q843.959 1074.94 848.473 1074.94 Q853.016 1074.94 855.273 1070.51 Q857.559 1066.06 857.559 1057.18 Q857.559 1048.26 855.273 1043.84 Q853.016 1039.38 848.473 1039.38 M848.473 1034.75 Q855.736 1034.75 859.555 1040.51 Q863.403 1046.24 863.403 1057.18 Q863.403 1068.08 859.555 1073.84 Q855.736 1079.57 848.473 1079.57 Q841.21 1079.57 837.362 1073.84 Q833.542 1068.08 833.542 1057.18 Q833.542 1046.24 837.362 1040.51 Q841.21 1034.75 848.473 1034.75 Z" fill="#000000" fill-rule="nonzero" fill-opacity="1" /><path clip-path="url(#clip870)" d="M1120.48 1055.44 Q1124.67 1056.34 1127.01 1059.17 Q1129.39 1062.01 1129.39 1066.17 Q1129.39 1072.57 1124.99 1076.07 Q1120.59 1079.57 1112.49 1079.57 Q1109.77 1079.57 1106.88 1079.02 Q1104.01 1078.5 1100.94 1077.43 L1100.94 1071.79 Q1103.37 1073.21 1106.27 1073.93 Q1109.16 1074.65 1112.32 1074.65 Q1117.81 1074.65 1120.68 1072.48 Q1123.57 1070.31 1123.57 1066.17 Q1123.57 1062.35 1120.88 1060.21 Q1118.22 1058.04 1113.44 1058.04 L1108.41 1058.04 L1108.41 1053.24 L1113.68 1053.24 Q1117.99 1053.24 1120.27 1051.53 Q1122.56 1049.8 1122.56 1046.56 Q1122.56 1043.23 1120.19 1041.46 Q1117.84 1039.67 1113.44 1039.67 Q1111.04 1039.67 1108.29 1040.19 Q1105.55 1040.71 1102.25 1041.81 L1102.25 1036.6 Q1105.57 1035.68 1108.47 1035.21 Q1111.39 1034.75 1113.97 1034.75 Q1120.62 1034.75 1124.5 1037.79 Q1128.37 1040.8 1128.37 1045.95 Q1128.37 1049.54 1126.32 1052.02 Q1124.27 1054.48 1120.48 1055.44 Z" fill="#000000" fill-rule="nonzero" fill-opacity="1" /><path clip-path="url(#clip870)" d="M1152.97 1039.38 Q1148.46 1039.38 1146.17 1043.84 Q1143.91 1048.26 1143.91 1057.18 Q1143.91 1066.06 1146.17 1070.51 Q1148.46 1074.94 1152.97 1074.94 Q1157.51 1074.94 1159.77 1070.51 Q1162.06 1066.06 1162.06 1057.18 Q1162.06 1048.26 1159.77 1043.84 Q1157.51 1039.38 1152.97 1039.38 M1152.97 1034.75 Q1160.23 1034.75 1164.05 1040.51 Q1167.9 1046.24 1167.9 1057.18 Q1167.9 1068.08 1164.05 1073.84 Q1160.23 1079.57 1152.97 1079.57 Q1145.71 1079.57 1141.86 1073.84 Q1138.04 1068.08 1138.04 1057.18 Q1138.04 1046.24 1141.86 1040.51 Q1145.71 1034.75 1152.97 1034.75 Z" fill="#000000" fill-rule="nonzero" fill-opacity="1" /><path clip-path="url(#clip870)" d="M1424.22 1040.62 L1409.46 1063.69 L1424.22 1063.69 L1424.22 1040.62 M1422.69 1035.53 L1430.04 1035.53 L1430.04 1063.69 L1436.2 1063.69 L1436.2 1068.55 L1430.04 1068.55 L1430.04 1078.73 L1424.22 1078.73 L1424.22 1068.55 L1404.72 1068.55 L1404.72 1062.9 L1422.69 1035.53 Z" fill="#000000" fill-rule="nonzero" fill-opacity="1" /><path clip-path="url(#clip870)" d="M1458.36 1039.38 Q1453.85 1039.38 1451.56 1043.84 Q1449.31 1048.26 1449.31 1057.18 Q1449.31 1066.06 1451.56 1070.51 Q1453.85 1074.94 1458.36 1074.94 Q1462.91 1074.94 1465.16 1070.51 Q1467.45 1066.06 1467.45 1057.18 Q1467.45 1048.26 1465.16 1043.84 Q1462.91 1039.38 1458.36 1039.38 M1458.36 1034.75 Q1465.63 1034.75 1469.45 1040.51 Q1473.29 1046.24 1473.29 1057.18 Q1473.29 1068.08 1469.45 1073.84 Q1465.63 1079.57 1458.36 1079.57 Q1451.1 1079.57 1447.25 1073.84 Q1443.43 1068.08 1443.43 1057.18 Q1443.43 1046.24 1447.25 1040.51 Q1451.1 1034.75 1458.36 1034.75 Z" fill="#000000" fill-rule="nonzero" fill-opacity="1" /><path clip-path="url(#clip870)" d="M1711.96 1035.53 L1734.91 1035.53 L1734.91 1040.45 L1717.32 1040.45 L1717.32 1051.04 Q1718.59 1050.61 1719.86 1050.4 Q1721.14 1050.17 1722.41 1050.17 Q1729.64 1050.17 1733.87 1054.14 Q1738.09 1058.1 1738.09 1064.87 Q1738.09 1071.85 1733.75 1075.72 Q1729.41 1079.57 1721.51 1079.57 Q1718.79 1079.57 1715.96 1079.11 Q1713.15 1078.64 1710.14 1077.72 L1710.14 1071.85 Q1712.74 1073.26 1715.52 1073.96 Q1718.3 1074.65 1721.4 1074.65 Q1726.4 1074.65 1729.32 1072.02 Q1732.25 1069.39 1732.25 1064.87 Q1732.25 1060.36 1729.32 1057.72 Q1726.4 1055.09 1721.4 1055.09 Q1719.05 1055.09 1716.71 1055.61 Q1714.39 1056.13 1711.96 1057.23 L1711.96 1035.53 Z" fill="#000000" fill-rule="nonzero" fill-opacity="1" /><path clip-path="url(#clip870)" d="M1762.11 1039.38 Q1757.59 1039.38 1755.31 1043.84 Q1753.05 1048.26 1753.05 1057.18 Q1753.05 1066.06 1755.31 1070.51 Q1757.59 1074.94 1762.11 1074.94 Q1766.65 1074.94 1768.91 1070.51 Q1771.19 1066.06 1771.19 1057.18 Q1771.19 1048.26 1768.91 1043.84 Q1766.65 1039.38 1762.11 1039.38 M1762.11 1034.75 Q1769.37 1034.75 1773.19 1040.51 Q1777.04 1046.24 1777.04 1057.18 Q1777.04 1068.08 1773.19 1073.84 Q1769.37 1079.57 1762.11 1079.57 Q1754.84 1079.57 1751 1073.84 Q1747.18 1068.08 1747.18 1057.18 Q1747.18 1046.24 1751 1040.51 Q1754.84 1034.75 1762.11 1034.75 Z" fill="#000000" fill-rule="nonzero" fill-opacity="1" /><path clip-path="url(#clip870)" d="M2029.93 1054.8 Q2025.99 1054.8 2023.68 1057.49 Q2021.39 1060.18 2021.39 1064.87 Q2021.39 1069.53 2023.68 1072.25 Q2025.99 1074.94 2029.93 1074.94 Q2033.86 1074.94 2036.15 1072.25 Q2038.46 1069.53 2038.46 1064.87 Q2038.46 1060.18 2036.15 1057.49 Q2033.86 1054.8 2029.93 1054.8 M2041.53 1036.49 L2041.53 1041.81 Q2039.33 1040.77 2037.08 1040.22 Q2034.85 1039.67 2032.65 1039.67 Q2026.86 1039.67 2023.79 1043.58 Q2020.76 1047.48 2020.32 1055.38 Q2022.03 1052.86 2024.6 1051.53 Q2027.18 1050.17 2030.28 1050.17 Q2036.79 1050.17 2040.55 1054.14 Q2044.34 1058.07 2044.34 1064.87 Q2044.34 1071.53 2040.4 1075.55 Q2036.47 1079.57 2029.93 1079.57 Q2022.43 1079.57 2018.47 1073.84 Q2014.51 1068.08 2014.51 1057.18 Q2014.51 1046.93 2019.37 1040.86 Q2024.23 1034.75 2032.42 1034.75 Q2034.62 1034.75 2036.84 1035.18 Q2039.1 1035.62 2041.53 1036.49 Z" fill="#000000" fill-rule="nonzero" fill-opacity="1" /><path clip-path="url(#clip870)" d="M2066.91 1039.38 Q2062.39 1039.38 2060.11 1043.84 Q2057.85 1048.26 2057.85 1057.18 Q2057.85 1066.06 2060.11 1070.51 Q2062.39 1074.94 2066.91 1074.94 Q2071.45 1074.94 2073.71 1070.51 Q2075.99 1066.06 2075.99 1057.18 Q2075.99 1048.26 2073.71 1043.84 Q2071.45 1039.38 2066.91 1039.38 M2066.91 1034.75 Q2074.17 1034.75 2077.99 1040.51 Q2081.84 1046.24 2081.84 1057.18 Q2081.84 1068.08 2077.99 1073.84 Q2074.17 1079.57 2066.91 1079.57 Q2059.65 1079.57 2055.8 1073.84 Q2051.98 1068.08 2051.98 1057.18 Q2051.98 1046.24 2055.8 1040.51 Q2059.65 1034.75 2066.91 1034.75 Z" fill="#000000" fill-rule="nonzero" fill-opacity="1" /><path clip-path="url(#clip870)" d="M2319.45 1035.53 L2347.23 1035.53 L2347.23 1038.02 L2331.55 1078.73 L2325.44 1078.73 L2340.2 1040.45 L2319.45 1040.45 L2319.45 1035.53 Z" fill="#000000" fill-rule="nonzero" fill-opacity="1" /><path clip-path="url(#clip870)" d="M2371.13 1039.38 Q2366.62 1039.38 2364.33 1043.84 Q2362.07 1048.26 2362.07 1057.18 Q2362.07 1066.06 2364.33 1070.51 Q2366.62 1074.94 2371.13 1074.94 Q2375.67 1074.94 2377.93 1070.51 Q2380.22 1066.06 2380.22 1057.18 Q2380.22 1048.26 2377.93 1043.84 Q2375.67 1039.38 2371.13 1039.38 M2371.13 1034.75 Q2378.39 1034.75 2382.21 1040.51 Q2386.06 1046.24 2386.06 1057.18 Q2386.06 1068.08 2382.21 1073.84 Q2378.39 1079.57 2371.13 1079.57 Q2363.87 1079.57 2360.02 1073.84 Q2356.2 1068.08 2356.2 1057.18 Q2356.2 1046.24 2360.02 1040.51 Q2363.87 1034.75 2371.13 1034.75 Z" fill="#000000" fill-rule="nonzero" fill-opacity="1" /><polyline clip-path="url(#clip872)" style="stroke:#000000; stroke-linecap:round; stroke-linejoin:round; stroke-width:2; stroke-opacity:0.1; fill:none" points="220.672,1005.53 2352.76,1005.53 "/>
<polyline clip-path="url(#clip872)" style="stroke:#000000; stroke-linecap:round; stroke-linejoin:round; stroke-width:2; stroke-opacity:0.1; fill:none" points="220.672,770.657 2352.76,770.657 "/>
<polyline clip-path="url(#clip872)" style="stroke:#000000; stroke-linecap:round; stroke-linejoin:round; stroke-width:2; stroke-opacity:0.1; fill:none" points="220.672,535.783 2352.76,535.783 "/>
<polyline clip-path="url(#clip872)" style="stroke:#000000; stroke-linecap:round; stroke-linejoin:round; stroke-width:2; stroke-opacity:0.1; fill:none" points="220.672,300.908 2352.76,300.908 "/>
<polyline clip-path="url(#clip872)" style="stroke:#000000; stroke-linecap:round; stroke-linejoin:round; stroke-width:2; stroke-opacity:0.1; fill:none" points="220.672,66.034 2352.76,66.034 "/>
<polyline clip-path="url(#clip870)" style="stroke:#000000; stroke-linecap:round; stroke-linejoin:round; stroke-width:4; stroke-opacity:1; fill:none" points="220.672,1005.53 220.672,47.2441 "/>
<polyline clip-path="url(#clip870)" style="stroke:#000000; stroke-linecap:round; stroke-linejoin:round; stroke-width:4; stroke-opacity:1; fill:none" points="220.672,1005.53 239.57,1005.53 "/>
<polyline clip-path="url(#clip870)" style="stroke:#000000; stroke-linecap:round; stroke-linejoin:round; stroke-width:4; stroke-opacity:1; fill:none" points="220.672,770.657 239.57,770.657 "/>
<polyline clip-path="url(#clip870)" style="stroke:#000000; stroke-linecap:round; stroke-linejoin:round; stroke-width:4; stroke-opacity:1; fill:none" points="220.672,535.783 239.57,535.783 "/>
<polyline clip-path="url(#clip870)" style="stroke:#000000; stroke-linecap:round; stroke-linejoin:round; stroke-width:4; stroke-opacity:1; fill:none" points="220.672,300.908 239.57,300.908 "/>
<polyline clip-path="url(#clip870)" style="stroke:#000000; stroke-linecap:round; stroke-linejoin:round; stroke-width:4; stroke-opacity:1; fill:none" points="220.672,66.034 239.57,66.034 "/>
<path clip-path="url(#clip870)" d="M75.5001 987.78 Q70.9862 987.78 68.7004 992.236 Q66.4434 996.663 66.4434 1005.58 Q66.4434 1014.46 68.7004 1018.91 Q70.9862 1023.34 75.5001 1023.34 Q80.0429 1023.34 82.2998 1018.91 Q84.5857 1014.46 84.5857 1005.58 Q84.5857 996.663 82.2998 992.236 Q80.0429 987.78 75.5001 987.78 M75.5001 983.15 Q82.7628 983.15 86.5822 988.909 Q90.4306 994.638 90.4306 1005.58 Q90.4306 1016.48 86.5822 1022.24 Q82.7628 1027.97 75.5001 1027.97 Q68.2374 1027.97 64.389 1022.24 Q60.5696 1016.48 60.5696 1005.58 Q60.5696 994.638 64.389 988.909 Q68.2374 983.15 75.5001 983.15 Z" fill="#000000" fill-rule="nonzero" fill-opacity="1" /><path clip-path="url(#clip870)" d="M100.703 1019.78 L106.808 1019.78 L106.808 1027.13 L100.703 1027.13 L100.703 1019.78 Z" fill="#000000" fill-rule="nonzero" fill-opacity="1" /><path clip-path="url(#clip870)" d="M132.039 987.78 Q127.525 987.78 125.239 992.236 Q122.982 996.663 122.982 1005.58 Q122.982 1014.46 125.239 1018.91 Q127.525 1023.34 132.039 1023.34 Q136.582 1023.34 138.839 1018.91 Q141.125 1014.46 141.125 1005.58 Q141.125 996.663 138.839 992.236 Q136.582 987.78 132.039 987.78 M132.039 983.15 Q139.302 983.15 143.121 988.909 Q146.97 994.638 146.97 1005.58 Q146.97 1016.48 143.121 1022.24 Q139.302 1027.97 132.039 1027.97 Q124.776 1027.97 120.928 1022.24 Q117.109 1016.48 117.109 1005.58 Q117.109 994.638 120.928 988.909 Q124.776 983.15 132.039 983.15 Z" fill="#000000" fill-rule="nonzero" fill-opacity="1" /><path clip-path="url(#clip870)" d="M169.741 987.78 Q165.228 987.78 162.942 992.236 Q160.685 996.663 160.685 1005.58 Q160.685 1014.46 162.942 1018.91 Q165.228 1023.34 169.741 1023.34 Q174.284 1023.34 176.541 1018.91 Q178.827 1014.46 178.827 1005.58 Q178.827 996.663 176.541 992.236 Q174.284 987.78 169.741 987.78 M169.741 983.15 Q177.004 983.15 180.824 988.909 Q184.672 994.638 184.672 1005.58 Q184.672 1016.48 180.824 1022.24 Q177.004 1027.97 169.741 1027.97 Q162.479 1027.97 158.63 1022.24 Q154.811 1016.48 154.811 1005.58 Q154.811 994.638 158.63 988.909 Q162.479 983.15 169.741 983.15 Z" fill="#000000" fill-rule="nonzero" fill-opacity="1" /><path clip-path="url(#clip870)" d="M76.7443 752.906 Q72.2304 752.906 69.9446 757.362 Q67.6876 761.789 67.6876 770.701 Q67.6876 779.584 69.9446 784.04 Q72.2304 788.467 76.7443 788.467 Q81.2871 788.467 83.544 784.04 Q85.8299 779.584 85.8299 770.701 Q85.8299 761.789 83.544 757.362 Q81.2871 752.906 76.7443 752.906 M76.7443 748.276 Q84.007 748.276 87.8264 754.034 Q91.6748 759.763 91.6748 770.701 Q91.6748 781.609 87.8264 787.367 Q84.007 793.096 76.7443 793.096 Q69.4816 793.096 65.6333 787.367 Q61.8138 781.609 61.8138 770.701 Q61.8138 759.763 65.6333 754.034 Q69.4816 748.276 76.7443 748.276 Z" fill="#000000" fill-rule="nonzero" fill-opacity="1" /><path clip-path="url(#clip870)" d="M101.947 784.908 L108.052 784.908 L108.052 792.257 L101.947 792.257 L101.947 784.908 Z" fill="#000000" fill-rule="nonzero" fill-opacity="1" /><path clip-path="url(#clip870)" d="M125.818 787.338 L146.217 787.338 L146.217 792.257 L118.787 792.257 L118.787 787.338 Q122.114 783.895 127.844 778.108 Q133.602 772.292 135.077 770.614 Q137.884 767.46 138.984 765.29 Q140.112 763.091 140.112 760.979 Q140.112 757.535 137.681 755.365 Q135.28 753.195 131.403 753.195 Q128.654 753.195 125.587 754.15 Q122.548 755.105 119.076 757.043 L119.076 751.141 Q122.606 749.723 125.673 748.999 Q128.741 748.276 131.287 748.276 Q138 748.276 141.993 751.633 Q145.986 754.989 145.986 760.602 Q145.986 763.264 144.973 765.666 Q143.989 768.039 141.356 771.279 Q140.633 772.119 136.756 776.14 Q132.878 780.134 125.818 787.338 Z" fill="#000000" fill-rule="nonzero" fill-opacity="1" /><path clip-path="url(#clip870)" d="M158.544 749.057 L181.489 749.057 L181.489 753.976 L163.897 753.976 L163.897 764.566 Q165.17 764.132 166.443 763.93 Q167.716 763.698 168.989 763.698 Q176.223 763.698 180.447 767.663 Q184.672 771.627 184.672 778.397 Q184.672 785.371 180.332 789.248 Q175.991 793.096 168.092 793.096 Q165.372 793.096 162.537 792.633 Q159.73 792.17 156.721 791.245 L156.721 785.371 Q159.325 786.789 162.103 787.483 Q164.88 788.177 167.976 788.177 Q172.982 788.177 175.905 785.544 Q178.827 782.911 178.827 778.397 Q178.827 773.884 175.905 771.25 Q172.982 768.617 167.976 768.617 Q165.633 768.617 163.289 769.138 Q160.974 769.659 158.544 770.759 L158.544 749.057 Z" fill="#000000" fill-rule="nonzero" fill-opacity="1" /><path clip-path="url(#clip870)" d="M75.5001 518.031 Q70.9862 518.031 68.7004 522.487 Q66.4434 526.914 66.4434 535.826 Q66.4434 544.709 68.7004 549.165 Q70.9862 553.592 75.5001 553.592 Q80.0429 553.592 82.2998 549.165 Q84.5857 544.709 84.5857 535.826 Q84.5857 526.914 82.2998 522.487 Q80.0429 518.031 75.5001 518.031 M75.5001 513.402 Q82.7628 513.402 86.5822 519.16 Q90.4306 524.889 90.4306 535.826 Q90.4306 546.735 86.5822 552.493 Q82.7628 558.222 75.5001 558.222 Q68.2374 558.222 64.389 552.493 Q60.5696 546.735 60.5696 535.826 Q60.5696 524.889 64.389 519.16 Q68.2374 513.402 75.5001 513.402 Z" fill="#000000" fill-rule="nonzero" fill-opacity="1" /><path clip-path="url(#clip870)" d="M100.703 550.033 L106.808 550.033 L106.808 557.383 L100.703 557.383 L100.703 550.033 Z" fill="#000000" fill-rule="nonzero" fill-opacity="1" /><path clip-path="url(#clip870)" d="M119.597 514.183 L142.543 514.183 L142.543 519.102 L124.95 519.102 L124.95 529.692 Q126.223 529.258 127.496 529.055 Q128.769 528.824 130.043 528.824 Q137.276 528.824 141.501 532.788 Q145.725 536.752 145.725 543.523 Q145.725 550.496 141.385 554.374 Q137.045 558.222 129.146 558.222 Q126.426 558.222 123.59 557.759 Q120.783 557.296 117.774 556.37 L117.774 550.496 Q120.378 551.914 123.156 552.609 Q125.934 553.303 129.03 553.303 Q134.036 553.303 136.958 550.67 Q139.881 548.037 139.881 543.523 Q139.881 539.009 136.958 536.376 Q134.036 533.743 129.03 533.743 Q126.686 533.743 124.342 534.264 Q122.028 534.785 119.597 535.884 L119.597 514.183 Z" fill="#000000" fill-rule="nonzero" fill-opacity="1" /><path clip-path="url(#clip870)" d="M169.741 518.031 Q165.228 518.031 162.942 522.487 Q160.685 526.914 160.685 535.826 Q160.685 544.709 162.942 549.165 Q165.228 553.592 169.741 553.592 Q174.284 553.592 176.541 549.165 Q178.827 544.709 178.827 535.826 Q178.827 526.914 176.541 522.487 Q174.284 518.031 169.741 518.031 M169.741 513.402 Q177.004 513.402 180.824 519.16 Q184.672 524.889 184.672 535.826 Q184.672 546.735 180.824 552.493 Q177.004 558.222 169.741 558.222 Q162.479 558.222 158.63 552.493 Q154.811 546.735 154.811 535.826 Q154.811 524.889 158.63 519.16 Q162.479 513.402 169.741 513.402 Z" fill="#000000" fill-rule="nonzero" fill-opacity="1" /><path clip-path="url(#clip870)" d="M76.7443 283.157 Q72.2304 283.157 69.9446 287.613 Q67.6876 292.04 67.6876 300.952 Q67.6876 309.835 69.9446 314.291 Q72.2304 318.718 76.7443 318.718 Q81.2871 318.718 83.544 314.291 Q85.8299 309.835 85.8299 300.952 Q85.8299 292.04 83.544 287.613 Q81.2871 283.157 76.7443 283.157 M76.7443 278.527 Q84.007 278.527 87.8264 284.285 Q91.6748 290.014 91.6748 300.952 Q91.6748 311.86 87.8264 317.618 Q84.007 323.348 76.7443 323.348 Q69.4816 323.348 65.6333 317.618 Q61.8138 311.86 61.8138 300.952 Q61.8138 290.014 65.6333 284.285 Q69.4816 278.527 76.7443 278.527 Z" fill="#000000" fill-rule="nonzero" fill-opacity="1" /><path clip-path="url(#clip870)" d="M101.947 315.159 L108.052 315.159 L108.052 322.508 L101.947 322.508 L101.947 315.159 Z" fill="#000000" fill-rule="nonzero" fill-opacity="1" /><path clip-path="url(#clip870)" d="M119.308 279.308 L147.085 279.308 L147.085 281.797 L131.403 322.508 L125.297 322.508 L140.054 284.227 L119.308 284.227 L119.308 279.308 Z" fill="#000000" fill-rule="nonzero" fill-opacity="1" /><path clip-path="url(#clip870)" d="M158.544 279.308 L181.489 279.308 L181.489 284.227 L163.897 284.227 L163.897 294.818 Q165.17 294.384 166.443 294.181 Q167.716 293.95 168.989 293.95 Q176.223 293.95 180.447 297.914 Q184.672 301.878 184.672 308.649 Q184.672 315.622 180.332 319.499 Q175.991 323.348 168.092 323.348 Q165.372 323.348 162.537 322.885 Q159.73 322.422 156.721 321.496 L156.721 315.622 Q159.325 317.04 162.103 317.734 Q164.88 318.429 167.976 318.429 Q172.982 318.429 175.905 315.796 Q178.827 313.162 178.827 308.649 Q178.827 304.135 175.905 301.502 Q172.982 298.869 167.976 298.869 Q165.633 298.869 163.289 299.389 Q160.974 299.91 158.544 301.01 L158.544 279.308 Z" fill="#000000" fill-rule="nonzero" fill-opacity="1" /><path clip-path="url(#clip870)" d="M64.0129 82.7151 L73.5614 82.7151 L73.5614 49.7581 L63.1738 51.8414 L63.1738 46.5174 L73.5036 44.434 L79.3485 44.434 L79.3485 82.7151 L88.897 82.7151 L88.897 87.634 L64.0129 87.634 L64.0129 82.7151 Z" fill="#000000" fill-rule="nonzero" fill-opacity="1" /><path clip-path="url(#clip870)" d="M100.703 80.2846 L106.808 80.2846 L106.808 87.634 L100.703 87.634 L100.703 80.2846 Z" fill="#000000" fill-rule="nonzero" fill-opacity="1" /><path clip-path="url(#clip870)" d="M132.039 48.2824 Q127.525 48.2824 125.239 52.7384 Q122.982 57.1655 122.982 66.0775 Q122.982 74.9605 125.239 79.4165 Q127.525 83.8436 132.039 83.8436 Q136.582 83.8436 138.839 79.4165 Q141.125 74.9605 141.125 66.0775 Q141.125 57.1655 138.839 52.7384 Q136.582 48.2824 132.039 48.2824 M132.039 43.6528 Q139.302 43.6528 143.121 49.4109 Q146.97 55.14 146.97 66.0775 Q146.97 76.986 143.121 82.744 Q139.302 88.4732 132.039 88.4732 Q124.776 88.4732 120.928 82.744 Q117.109 76.986 117.109 66.0775 Q117.109 55.14 120.928 49.4109 Q124.776 43.6528 132.039 43.6528 Z" fill="#000000" fill-rule="nonzero" fill-opacity="1" /><path clip-path="url(#clip870)" d="M169.741 48.2824 Q165.228 48.2824 162.942 52.7384 Q160.685 57.1655 160.685 66.0775 Q160.685 74.9605 162.942 79.4165 Q165.228 83.8436 169.741 83.8436 Q174.284 83.8436 176.541 79.4165 Q178.827 74.9605 178.827 66.0775 Q178.827 57.1655 176.541 52.7384 Q174.284 48.2824 169.741 48.2824 M169.741 43.6528 Q177.004 43.6528 180.824 49.4109 Q184.672 55.14 184.672 66.0775 Q184.672 76.986 180.824 82.744 Q177.004 88.4732 169.741 88.4732 Q162.479 88.4732 158.63 82.744 Q154.811 76.986 154.811 66.0775 Q154.811 55.14 158.63 49.4109 Q162.479 43.6528 169.741 43.6528 Z" fill="#000000" fill-rule="nonzero" fill-opacity="1" /><polyline clip-path="url(#clip872)" style="stroke:#ff0000; stroke-linecap:round; stroke-linejoin:round; stroke-width:12; stroke-opacity:1; fill:none" points="220.672,152.315 242.208,93.9511 263.744,82.9827 285.281,81.6031 306.817,82.0651 328.353,82.9272 349.889,83.933 371.425,85.0448 392.962,86.2676 414.498,87.616 436.034,89.1097 457.57,90.773 479.106,92.6364 500.643,94.7381 522.179,97.127 543.715,73.9915 565.251,67.9648 586.787,66.8498 608.324,66.6402 629.86,66.5962 651.396,66.5827 672.932,66.5747 694.468,66.5679 716.005,66.5613 737.541,66.5548 759.077,66.5484 780.613,66.5421 802.149,66.5358 823.686,66.5297 845.222,66.5236 866.758,66.5176 888.294,66.5116 909.83,66.5058 931.367,66.5 952.903,66.4942 974.439,66.4886 995.975,66.483 1017.51,66.4775 1039.05,66.472 1060.58,66.4666 1082.12,66.4613 1103.66,66.4561 1125.19,66.4509 1146.73,66.4457 1168.26,66.4407 1189.8,66.4357 1211.34,66.4307 1232.87,66.4259 1254.41,66.421 1275.95,66.4163 1297.48,66.4116 1319.02,66.4069 1340.55,66.4023 1362.09,66.3978 1383.63,66.3933 1405.16,66.3889 1426.7,66.3845 1448.24,66.3802 1469.77,66.3759 1491.31,66.3717 1512.84,66.3676 1534.38,66.3634 1555.92,66.3594 1577.45,66.3554 1598.99,66.3514 1620.53,66.3475 1642.06,66.3436 1663.6,66.3398 1685.13,66.336 1706.67,66.3323 1728.21,66.3286 1749.74,66.325 1771.28,66.3214 1792.81,66.3179 1814.35,66.3144 1835.89,66.3109 1857.42,66.3075 1878.96,66.3041 1900.5,66.3008 1922.03,66.2975 1943.57,66.2942 1965.1,66.291 1986.64,66.2878 2008.18,66.2847 2029.71,66.2816 2051.25,66.2785 2072.79,66.2755 2094.32,66.2725 2115.86,66.2696 2137.39,66.2666 2158.93,66.2638 2180.47,66.2609 2202,66.2581 2223.54,66.2553 2245.07,66.2526 2266.61,66.2499 2288.15,66.2472 2309.68,66.2446 2331.22,66.242 2352.76,66.2394 "/>
<polyline clip-path="url(#clip872)" style="stroke:#800080; stroke-linecap:round; stroke-linejoin:round; stroke-width:9.6; stroke-opacity:0.6; fill:none" stroke-dasharray="38, 24" points="525.255,1963.82 525.255,-911.044 "/>
<path clip-path="url(#clip870)" d="M220.672 1414.54 L2352.76 1414.54 L2352.76 1174.97 L220.672 1174.97  Z" fill="#ffffff" fill-rule="evenodd" fill-opacity="1"/>
<defs>
  <clipPath id="clip873">
    <rect x="220" y="1174" width="2133" height="241"/>
  </clipPath>
</defs>
<polyline clip-path="url(#clip873)" style="stroke:#000000; stroke-linecap:round; stroke-linejoin:round; stroke-width:2; stroke-opacity:0.1; fill:none" points="220.672,1414.54 220.672,1174.97 "/>
<polyline clip-path="url(#clip873)" style="stroke:#000000; stroke-linecap:round; stroke-linejoin:round; stroke-width:2; stroke-opacity:0.1; fill:none" points="525.255,1414.54 525.255,1174.97 "/>
<polyline clip-path="url(#clip873)" style="stroke:#000000; stroke-linecap:round; stroke-linejoin:round; stroke-width:2; stroke-opacity:0.1; fill:none" points="829.839,1414.54 829.839,1174.97 "/>
<polyline clip-path="url(#clip873)" style="stroke:#000000; stroke-linecap:round; stroke-linejoin:round; stroke-width:2; stroke-opacity:0.1; fill:none" points="1134.42,1414.54 1134.42,1174.97 "/>
<polyline clip-path="url(#clip873)" style="stroke:#000000; stroke-linecap:round; stroke-linejoin:round; stroke-width:2; stroke-opacity:0.1; fill:none" points="1439.01,1414.54 1439.01,1174.97 "/>
<polyline clip-path="url(#clip873)" style="stroke:#000000; stroke-linecap:round; stroke-linejoin:round; stroke-width:2; stroke-opacity:0.1; fill:none" points="1743.59,1414.54 1743.59,1174.97 "/>
<polyline clip-path="url(#clip873)" style="stroke:#000000; stroke-linecap:round; stroke-linejoin:round; stroke-width:2; stroke-opacity:0.1; fill:none" points="2048.17,1414.54 2048.17,1174.97 "/>
<polyline clip-path="url(#clip873)" style="stroke:#000000; stroke-linecap:round; stroke-linejoin:round; stroke-width:2; stroke-opacity:0.1; fill:none" points="2352.76,1414.54 2352.76,1174.97 "/>
<polyline clip-path="url(#clip870)" style="stroke:#000000; stroke-linecap:round; stroke-linejoin:round; stroke-width:4; stroke-opacity:1; fill:none" points="220.672,1414.54 2352.76,1414.54 "/>
<polyline clip-path="url(#clip870)" style="stroke:#000000; stroke-linecap:round; stroke-linejoin:round; stroke-width:4; stroke-opacity:1; fill:none" points="220.672,1414.54 220.672,1395.64 "/>
<polyline clip-path="url(#clip870)" style="stroke:#000000; stroke-linecap:round; stroke-linejoin:round; stroke-width:4; stroke-opacity:1; fill:none" points="525.255,1414.54 525.255,1395.64 "/>
<polyline clip-path="url(#clip870)" style="stroke:#000000; stroke-linecap:round; stroke-linejoin:round; stroke-width:4; stroke-opacity:1; fill:none" points="829.839,1414.54 829.839,1395.64 "/>
<polyline clip-path="url(#clip870)" style="stroke:#000000; stroke-linecap:round; stroke-linejoin:round; stroke-width:4; stroke-opacity:1; fill:none" points="1134.42,1414.54 1134.42,1395.64 "/>
<polyline clip-path="url(#clip870)" style="stroke:#000000; stroke-linecap:round; stroke-linejoin:round; stroke-width:4; stroke-opacity:1; fill:none" points="1439.01,1414.54 1439.01,1395.64 "/>
<polyline clip-path="url(#clip870)" style="stroke:#000000; stroke-linecap:round; stroke-linejoin:round; stroke-width:4; stroke-opacity:1; fill:none" points="1743.59,1414.54 1743.59,1395.64 "/>
<polyline clip-path="url(#clip870)" style="stroke:#000000; stroke-linecap:round; stroke-linejoin:round; stroke-width:4; stroke-opacity:1; fill:none" points="2048.17,1414.54 2048.17,1395.64 "/>
<polyline clip-path="url(#clip870)" style="stroke:#000000; stroke-linecap:round; stroke-linejoin:round; stroke-width:4; stroke-opacity:1; fill:none" points="2352.76,1414.54 2352.76,1395.64 "/>
<path clip-path="url(#clip870)" d="M220.672 1448.39 Q216.158 1448.39 213.872 1452.84 Q211.615 1457.27 211.615 1466.18 Q211.615 1475.07 213.872 1479.52 Q216.158 1483.95 220.672 1483.95 Q225.215 1483.95 227.472 1479.52 Q229.758 1475.07 229.758 1466.18 Q229.758 1457.27 227.472 1452.84 Q225.215 1448.39 220.672 1448.39 M220.672 1443.76 Q227.935 1443.76 231.754 1449.52 Q235.602 1455.25 235.602 1466.18 Q235.602 1477.09 231.754 1482.85 Q227.935 1488.58 220.672 1488.58 Q213.409 1488.58 209.561 1482.85 Q205.741 1477.09 205.741 1466.18 Q205.741 1455.25 209.561 1449.52 Q213.409 1443.76 220.672 1443.76 Z" fill="#000000" fill-rule="nonzero" fill-opacity="1" /><path clip-path="url(#clip870)" d="M493.615 1482.82 L503.163 1482.82 L503.163 1449.86 L492.776 1451.95 L492.776 1446.62 L503.106 1444.54 L508.95 1444.54 L508.95 1482.82 L518.499 1482.82 L518.499 1487.74 L493.615 1487.74 L493.615 1482.82 Z" fill="#000000" fill-rule="nonzero" fill-opacity="1" /><path clip-path="url(#clip870)" d="M542.804 1448.39 Q538.291 1448.39 536.005 1452.84 Q533.748 1457.27 533.748 1466.18 Q533.748 1475.07 536.005 1479.52 Q538.291 1483.95 542.804 1483.95 Q547.347 1483.95 549.604 1479.52 Q551.89 1475.07 551.89 1466.18 Q551.89 1457.27 549.604 1452.84 Q547.347 1448.39 542.804 1448.39 M542.804 1443.76 Q550.067 1443.76 553.887 1449.52 Q557.735 1455.25 557.735 1466.18 Q557.735 1477.09 553.887 1482.85 Q550.067 1488.58 542.804 1488.58 Q535.542 1488.58 531.693 1482.85 Q527.874 1477.09 527.874 1466.18 Q527.874 1455.25 531.693 1449.52 Q535.542 1443.76 542.804 1443.76 Z" fill="#000000" fill-rule="nonzero" fill-opacity="1" /><path clip-path="url(#clip870)" d="M803.305 1482.82 L823.705 1482.82 L823.705 1487.74 L796.274 1487.74 L796.274 1482.82 Q799.602 1479.38 805.331 1473.59 Q811.089 1467.77 812.565 1466.1 Q815.371 1462.94 816.471 1460.77 Q817.599 1458.57 817.599 1456.46 Q817.599 1453.02 815.169 1450.85 Q812.767 1448.68 808.89 1448.68 Q806.141 1448.68 803.074 1449.63 Q800.036 1450.59 796.564 1452.53 L796.564 1446.62 Q800.094 1445.21 803.161 1444.48 Q806.228 1443.76 808.774 1443.76 Q815.487 1443.76 819.48 1447.12 Q823.473 1450.47 823.473 1456.08 Q823.473 1458.75 822.46 1461.15 Q821.477 1463.52 818.843 1466.76 Q818.12 1467.6 814.243 1471.62 Q810.366 1475.62 803.305 1482.82 Z" fill="#000000" fill-rule="nonzero" fill-opacity="1" /><path clip-path="url(#clip870)" d="M848.473 1448.39 Q843.959 1448.39 841.673 1452.84 Q839.416 1457.27 839.416 1466.18 Q839.416 1475.07 841.673 1479.52 Q843.959 1483.95 848.473 1483.95 Q853.016 1483.95 855.273 1479.52 Q857.559 1475.07 857.559 1466.18 Q857.559 1457.27 855.273 1452.84 Q853.016 1448.39 848.473 1448.39 M848.473 1443.76 Q855.736 1443.76 859.555 1449.52 Q863.403 1455.25 863.403 1466.18 Q863.403 1477.09 859.555 1482.85 Q855.736 1488.58 848.473 1488.58 Q841.21 1488.58 837.362 1482.85 Q833.542 1477.09 833.542 1466.18 Q833.542 1455.25 837.362 1449.52 Q841.21 1443.76 848.473 1443.76 Z" fill="#000000" fill-rule="nonzero" fill-opacity="1" /><path clip-path="url(#clip870)" d="M1120.48 1464.45 Q1124.67 1465.34 1127.01 1468.18 Q1129.39 1471.02 1129.39 1475.18 Q1129.39 1481.58 1124.99 1485.08 Q1120.59 1488.58 1112.49 1488.58 Q1109.77 1488.58 1106.88 1488.03 Q1104.01 1487.51 1100.94 1486.44 L1100.94 1480.8 Q1103.37 1482.21 1106.27 1482.94 Q1109.16 1483.66 1112.32 1483.66 Q1117.81 1483.66 1120.68 1481.49 Q1123.57 1479.32 1123.57 1475.18 Q1123.57 1471.36 1120.88 1469.22 Q1118.22 1467.05 1113.44 1467.05 L1108.41 1467.05 L1108.41 1462.25 L1113.68 1462.25 Q1117.99 1462.25 1120.27 1460.54 Q1122.56 1458.8 1122.56 1455.56 Q1122.56 1452.24 1120.19 1450.47 Q1117.84 1448.68 1113.44 1448.68 Q1111.04 1448.68 1108.29 1449.2 Q1105.55 1449.72 1102.25 1450.82 L1102.25 1445.61 Q1105.57 1444.68 1108.47 1444.22 Q1111.39 1443.76 1113.97 1443.76 Q1120.62 1443.76 1124.5 1446.8 Q1128.37 1449.81 1128.37 1454.96 Q1128.37 1458.54 1126.32 1461.03 Q1124.27 1463.49 1120.48 1464.45 Z" fill="#000000" fill-rule="nonzero" fill-opacity="1" /><path clip-path="url(#clip870)" d="M1152.97 1448.39 Q1148.46 1448.39 1146.17 1452.84 Q1143.91 1457.27 1143.91 1466.18 Q1143.91 1475.07 1146.17 1479.52 Q1148.46 1483.95 1152.97 1483.95 Q1157.51 1483.95 1159.77 1479.52 Q1162.06 1475.07 1162.06 1466.18 Q1162.06 1457.27 1159.77 1452.84 Q1157.51 1448.39 1152.97 1448.39 M1152.97 1443.76 Q1160.23 1443.76 1164.05 1449.52 Q1167.9 1455.25 1167.9 1466.18 Q1167.9 1477.09 1164.05 1482.85 Q1160.23 1488.58 1152.97 1488.58 Q1145.71 1488.58 1141.86 1482.85 Q1138.04 1477.09 1138.04 1466.18 Q1138.04 1455.25 1141.86 1449.52 Q1145.71 1443.76 1152.97 1443.76 Z" fill="#000000" fill-rule="nonzero" fill-opacity="1" /><path clip-path="url(#clip870)" d="M1424.22 1449.63 L1409.46 1472.69 L1424.22 1472.69 L1424.22 1449.63 M1422.69 1444.54 L1430.04 1444.54 L1430.04 1472.69 L1436.2 1472.69 L1436.2 1477.55 L1430.04 1477.55 L1430.04 1487.74 L1424.22 1487.74 L1424.22 1477.55 L1404.72 1477.55 L1404.72 1471.91 L1422.69 1444.54 Z" fill="#000000" fill-rule="nonzero" fill-opacity="1" /><path clip-path="url(#clip870)" d="M1458.36 1448.39 Q1453.85 1448.39 1451.56 1452.84 Q1449.31 1457.27 1449.31 1466.18 Q1449.31 1475.07 1451.56 1479.52 Q1453.85 1483.95 1458.36 1483.95 Q1462.91 1483.95 1465.16 1479.52 Q1467.45 1475.07 1467.45 1466.18 Q1467.45 1457.27 1465.16 1452.84 Q1462.91 1448.39 1458.36 1448.39 M1458.36 1443.76 Q1465.63 1443.76 1469.45 1449.52 Q1473.29 1455.25 1473.29 1466.18 Q1473.29 1477.09 1469.45 1482.85 Q1465.63 1488.58 1458.36 1488.58 Q1451.1 1488.58 1447.25 1482.85 Q1443.43 1477.09 1443.43 1466.18 Q1443.43 1455.25 1447.25 1449.52 Q1451.1 1443.76 1458.36 1443.76 Z" fill="#000000" fill-rule="nonzero" fill-opacity="1" /><path clip-path="url(#clip870)" d="M1711.96 1444.54 L1734.91 1444.54 L1734.91 1449.46 L1717.32 1449.46 L1717.32 1460.05 Q1718.59 1459.61 1719.86 1459.41 Q1721.14 1459.18 1722.41 1459.18 Q1729.64 1459.18 1733.87 1463.15 Q1738.09 1467.11 1738.09 1473.88 Q1738.09 1480.85 1733.75 1484.73 Q1729.41 1488.58 1721.51 1488.58 Q1718.79 1488.58 1715.96 1488.12 Q1713.15 1487.65 1710.14 1486.73 L1710.14 1480.85 Q1712.74 1482.27 1715.52 1482.97 Q1718.3 1483.66 1721.4 1483.66 Q1726.4 1483.66 1729.32 1481.03 Q1732.25 1478.39 1732.25 1473.88 Q1732.25 1469.37 1729.32 1466.73 Q1726.4 1464.1 1721.4 1464.1 Q1719.05 1464.1 1716.71 1464.62 Q1714.39 1465.14 1711.96 1466.24 L1711.96 1444.54 Z" fill="#000000" fill-rule="nonzero" fill-opacity="1" /><path clip-path="url(#clip870)" d="M1762.11 1448.39 Q1757.59 1448.39 1755.31 1452.84 Q1753.05 1457.27 1753.05 1466.18 Q1753.05 1475.07 1755.31 1479.52 Q1757.59 1483.95 1762.11 1483.95 Q1766.65 1483.95 1768.91 1479.52 Q1771.19 1475.07 1771.19 1466.18 Q1771.19 1457.27 1768.91 1452.84 Q1766.65 1448.39 1762.11 1448.39 M1762.11 1443.76 Q1769.37 1443.76 1773.19 1449.52 Q1777.04 1455.25 1777.04 1466.18 Q1777.04 1477.09 1773.19 1482.85 Q1769.37 1488.58 1762.11 1488.58 Q1754.84 1488.58 1751 1482.85 Q1747.18 1477.09 1747.18 1466.18 Q1747.18 1455.25 1751 1449.52 Q1754.84 1443.76 1762.11 1443.76 Z" fill="#000000" fill-rule="nonzero" fill-opacity="1" /><path clip-path="url(#clip870)" d="M2029.93 1463.81 Q2025.99 1463.81 2023.68 1466.5 Q2021.39 1469.19 2021.39 1473.88 Q2021.39 1478.54 2023.68 1481.26 Q2025.99 1483.95 2029.93 1483.95 Q2033.86 1483.95 2036.15 1481.26 Q2038.46 1478.54 2038.46 1473.88 Q2038.46 1469.19 2036.15 1466.5 Q2033.86 1463.81 2029.93 1463.81 M2041.53 1445.49 L2041.53 1450.82 Q2039.33 1449.78 2037.08 1449.23 Q2034.85 1448.68 2032.65 1448.68 Q2026.86 1448.68 2023.79 1452.58 Q2020.76 1456.49 2020.32 1464.39 Q2022.03 1461.87 2024.6 1460.54 Q2027.18 1459.18 2030.28 1459.18 Q2036.79 1459.18 2040.55 1463.15 Q2044.34 1467.08 2044.34 1473.88 Q2044.34 1480.54 2040.4 1484.56 Q2036.47 1488.58 2029.93 1488.58 Q2022.43 1488.58 2018.47 1482.85 Q2014.51 1477.09 2014.51 1466.18 Q2014.51 1455.94 2019.37 1449.86 Q2024.23 1443.76 2032.42 1443.76 Q2034.62 1443.76 2036.84 1444.19 Q2039.1 1444.63 2041.53 1445.49 Z" fill="#000000" fill-rule="nonzero" fill-opacity="1" /><path clip-path="url(#clip870)" d="M2066.91 1448.39 Q2062.39 1448.39 2060.11 1452.84 Q2057.85 1457.27 2057.85 1466.18 Q2057.85 1475.07 2060.11 1479.52 Q2062.39 1483.95 2066.91 1483.95 Q2071.45 1483.95 2073.71 1479.52 Q2075.99 1475.07 2075.99 1466.18 Q2075.99 1457.27 2073.71 1452.84 Q2071.45 1448.39 2066.91 1448.39 M2066.91 1443.76 Q2074.17 1443.76 2077.99 1449.52 Q2081.84 1455.25 2081.84 1466.18 Q2081.84 1477.09 2077.99 1482.85 Q2074.17 1488.58 2066.91 1488.58 Q2059.65 1488.58 2055.8 1482.85 Q2051.98 1477.09 2051.98 1466.18 Q2051.98 1455.25 2055.8 1449.52 Q2059.65 1443.76 2066.91 1443.76 Z" fill="#000000" fill-rule="nonzero" fill-opacity="1" /><path clip-path="url(#clip870)" d="M2319.45 1444.54 L2347.23 1444.54 L2347.23 1447.03 L2331.55 1487.74 L2325.44 1487.74 L2340.2 1449.46 L2319.45 1449.46 L2319.45 1444.54 Z" fill="#000000" fill-rule="nonzero" fill-opacity="1" /><path clip-path="url(#clip870)" d="M2371.13 1448.39 Q2366.62 1448.39 2364.33 1452.84 Q2362.07 1457.27 2362.07 1466.18 Q2362.07 1475.07 2364.33 1479.52 Q2366.62 1483.95 2371.13 1483.95 Q2375.67 1483.95 2377.93 1479.52 Q2380.22 1475.07 2380.22 1466.18 Q2380.22 1457.27 2377.93 1452.84 Q2375.67 1448.39 2371.13 1448.39 M2371.13 1443.76 Q2378.39 1443.76 2382.21 1449.52 Q2386.06 1455.25 2386.06 1466.18 Q2386.06 1477.09 2382.21 1482.85 Q2378.39 1488.58 2371.13 1488.58 Q2363.87 1488.58 2360.02 1482.85 Q2356.2 1477.09 2356.2 1466.18 Q2356.2 1455.25 2360.02 1449.52 Q2363.87 1443.76 2371.13 1443.76 Z" fill="#000000" fill-rule="nonzero" fill-opacity="1" /><path clip-path="url(#clip870)" d="M1159.96 1524.84 L1200.16 1524.84 L1200.16 1530.25 L1183.29 1530.25 L1183.29 1572.36 L1176.83 1572.36 L1176.83 1530.25 L1159.96 1530.25 L1159.96 1524.84 Z" fill="#000000" fill-rule="nonzero" fill-opacity="1" /><path clip-path="url(#clip870)" d="M1204.1 1536.72 L1209.96 1536.72 L1209.96 1572.36 L1204.1 1572.36 L1204.1 1536.72 M1204.1 1522.84 L1209.96 1522.84 L1209.96 1530.25 L1204.1 1530.25 L1204.1 1522.84 Z" fill="#000000" fill-rule="nonzero" fill-opacity="1" /><path clip-path="url(#clip870)" d="M1252.71 1553.08 L1252.71 1555.94 L1225.78 1555.94 Q1226.16 1561.99 1229.41 1565.17 Q1232.69 1568.32 1238.51 1568.32 Q1241.88 1568.32 1245.03 1567.49 Q1248.22 1566.67 1251.34 1565.01 L1251.34 1570.55 Q1248.19 1571.89 1244.88 1572.59 Q1241.57 1573.29 1238.16 1573.29 Q1229.63 1573.29 1224.63 1568.32 Q1219.67 1563.36 1219.67 1554.89 Q1219.67 1546.14 1224.38 1541.01 Q1229.12 1535.86 1237.14 1535.86 Q1244.33 1535.86 1248.5 1540.5 Q1252.71 1545.12 1252.71 1553.08 M1246.85 1551.36 Q1246.79 1546.55 1244.14 1543.69 Q1241.53 1540.82 1237.2 1540.82 Q1232.3 1540.82 1229.34 1543.59 Q1226.41 1546.36 1225.97 1551.39 L1246.85 1551.36 Z" fill="#000000" fill-rule="nonzero" fill-opacity="1" /><path clip-path="url(#clip870)" d="M1290.07 1543.56 Q1292.27 1539.61 1295.32 1537.73 Q1298.38 1535.86 1302.52 1535.86 Q1308.09 1535.86 1311.11 1539.77 Q1314.13 1543.65 1314.13 1550.85 L1314.13 1572.36 L1308.25 1572.36 L1308.25 1551.04 Q1308.25 1545.91 1306.43 1543.43 Q1304.62 1540.95 1300.89 1540.95 Q1296.34 1540.95 1293.7 1543.97 Q1291.06 1547 1291.06 1552.22 L1291.06 1572.36 L1285.17 1572.36 L1285.17 1551.04 Q1285.17 1545.88 1283.36 1543.43 Q1281.54 1540.95 1277.75 1540.95 Q1273.27 1540.95 1270.62 1544 Q1267.98 1547.03 1267.98 1552.22 L1267.98 1572.36 L1262.09 1572.36 L1262.09 1536.72 L1267.98 1536.72 L1267.98 1542.25 Q1269.99 1538.98 1272.79 1537.42 Q1275.59 1535.86 1279.44 1535.86 Q1283.32 1535.86 1286.03 1537.83 Q1288.77 1539.8 1290.07 1543.56 Z" fill="#000000" fill-rule="nonzero" fill-opacity="1" /><path clip-path="url(#clip870)" d="M1331.48 1567.02 L1331.48 1585.92 L1325.59 1585.92 L1325.59 1536.72 L1331.48 1536.72 L1331.48 1542.13 Q1333.33 1538.94 1336.13 1537.42 Q1338.96 1535.86 1342.88 1535.86 Q1349.37 1535.86 1353.41 1541.01 Q1357.48 1546.17 1357.48 1554.57 Q1357.48 1562.97 1353.41 1568.13 Q1349.37 1573.29 1342.88 1573.29 Q1338.96 1573.29 1336.13 1571.76 Q1333.33 1570.2 1331.48 1567.02 M1351.41 1554.57 Q1351.41 1548.11 1348.73 1544.45 Q1346.09 1540.76 1341.44 1540.76 Q1336.8 1540.76 1334.12 1544.45 Q1331.48 1548.11 1331.48 1554.57 Q1331.48 1561.03 1334.12 1564.72 Q1336.8 1568.39 1341.44 1568.39 Q1346.09 1568.39 1348.73 1564.72 Q1351.41 1561.03 1351.41 1554.57 Z" fill="#000000" fill-rule="nonzero" fill-opacity="1" /><path clip-path="url(#clip870)" d="M1381.01 1540.82 Q1376.3 1540.82 1373.56 1544.51 Q1370.82 1548.17 1370.82 1554.57 Q1370.82 1560.97 1373.53 1564.66 Q1376.26 1568.32 1381.01 1568.32 Q1385.68 1568.32 1388.42 1564.63 Q1391.16 1560.94 1391.16 1554.57 Q1391.16 1548.24 1388.42 1544.55 Q1385.68 1540.82 1381.01 1540.82 M1381.01 1535.86 Q1388.64 1535.86 1393.01 1540.82 Q1397.37 1545.79 1397.37 1554.57 Q1397.37 1563.32 1393.01 1568.32 Q1388.64 1573.29 1381.01 1573.29 Q1373.34 1573.29 1368.97 1568.32 Q1364.65 1563.32 1364.65 1554.57 Q1364.65 1545.79 1368.97 1540.82 Q1373.34 1535.86 1381.01 1535.86 Z" fill="#000000" fill-rule="nonzero" fill-opacity="1" /><path clip-path="url(#clip870)" d="M1406.76 1564.28 L1413.47 1564.28 L1413.47 1572.36 L1406.76 1572.36 L1406.76 1564.28 Z" fill="#000000" fill-rule="nonzero" fill-opacity="1" /><polyline clip-path="url(#clip873)" style="stroke:#000000; stroke-linecap:round; stroke-linejoin:round; stroke-width:2; stroke-opacity:0.1; fill:none" points="220.672,1377.99 2352.76,1377.99 "/>
<polyline clip-path="url(#clip873)" style="stroke:#000000; stroke-linecap:round; stroke-linejoin:round; stroke-width:2; stroke-opacity:0.1; fill:none" points="220.672,1312.58 2352.76,1312.58 "/>
<polyline clip-path="url(#clip873)" style="stroke:#000000; stroke-linecap:round; stroke-linejoin:round; stroke-width:2; stroke-opacity:0.1; fill:none" points="220.672,1247.16 2352.76,1247.16 "/>
<polyline clip-path="url(#clip873)" style="stroke:#000000; stroke-linecap:round; stroke-linejoin:round; stroke-width:2; stroke-opacity:0.1; fill:none" points="220.672,1181.75 2352.76,1181.75 "/>
<polyline clip-path="url(#clip870)" style="stroke:#000000; stroke-linecap:round; stroke-linejoin:round; stroke-width:4; stroke-opacity:1; fill:none" points="220.672,1414.54 220.672,1174.97 "/>
<polyline clip-path="url(#clip870)" style="stroke:#000000; stroke-linecap:round; stroke-linejoin:round; stroke-width:4; stroke-opacity:1; fill:none" points="220.672,1377.99 239.57,1377.99 "/>
<polyline clip-path="url(#clip870)" style="stroke:#000000; stroke-linecap:round; stroke-linejoin:round; stroke-width:4; stroke-opacity:1; fill:none" points="220.672,1312.58 239.57,1312.58 "/>
<polyline clip-path="url(#clip870)" style="stroke:#000000; stroke-linecap:round; stroke-linejoin:round; stroke-width:4; stroke-opacity:1; fill:none" points="220.672,1247.16 239.57,1247.16 "/>
<polyline clip-path="url(#clip870)" style="stroke:#000000; stroke-linecap:round; stroke-linejoin:round; stroke-width:4; stroke-opacity:1; fill:none" points="220.672,1181.75 239.57,1181.75 "/>
<path clip-path="url(#clip870)" d="M52.2363 1378.56 L89.331 1378.56 L89.331 1383.47 L52.2363 1383.47 L52.2363 1378.56 Z" fill="#000000" fill-rule="nonzero" fill-opacity="1" /><path clip-path="url(#clip870)" d="M100.471 1356.39 L128.249 1356.39 L128.249 1358.88 L112.566 1399.59 L106.461 1399.59 L121.217 1361.31 L100.471 1361.31 L100.471 1356.39 Z" fill="#000000" fill-rule="nonzero" fill-opacity="1" /><path clip-path="url(#clip870)" d="M139.649 1392.24 L145.754 1392.24 L145.754 1399.59 L139.649 1399.59 L139.649 1392.24 Z" fill="#000000" fill-rule="nonzero" fill-opacity="1" /><path clip-path="url(#clip870)" d="M158.544 1356.39 L181.489 1356.39 L181.489 1361.31 L163.897 1361.31 L163.897 1371.9 Q165.17 1371.47 166.443 1371.26 Q167.716 1371.03 168.989 1371.03 Q176.223 1371.03 180.447 1375 Q184.672 1378.96 184.672 1385.73 Q184.672 1392.7 180.332 1396.58 Q175.991 1400.43 168.092 1400.43 Q165.372 1400.43 162.537 1399.97 Q159.73 1399.5 156.721 1398.58 L156.721 1392.7 Q159.325 1394.12 162.103 1394.82 Q164.88 1395.51 167.976 1395.51 Q172.982 1395.51 175.905 1392.88 Q178.827 1390.25 178.827 1385.73 Q178.827 1381.22 175.905 1378.58 Q172.982 1375.95 167.976 1375.95 Q165.633 1375.95 163.289 1376.47 Q160.974 1376.99 158.544 1378.09 L158.544 1356.39 Z" fill="#000000" fill-rule="nonzero" fill-opacity="1" /><path clip-path="url(#clip870)" d="M50.9921 1313.14 L88.0868 1313.14 L88.0868 1318.06 L50.9921 1318.06 L50.9921 1313.14 Z" fill="#000000" fill-rule="nonzero" fill-opacity="1" /><path clip-path="url(#clip870)" d="M99.2268 1290.98 L127.004 1290.98 L127.004 1293.47 L111.322 1334.18 L105.216 1334.18 L119.973 1295.9 L99.2268 1295.9 L99.2268 1290.98 Z" fill="#000000" fill-rule="nonzero" fill-opacity="1" /><path clip-path="url(#clip870)" d="M138.405 1326.83 L144.51 1326.83 L144.51 1334.18 L138.405 1334.18 L138.405 1326.83 Z" fill="#000000" fill-rule="nonzero" fill-opacity="1" /><path clip-path="url(#clip870)" d="M169.741 1294.83 Q165.228 1294.83 162.942 1299.28 Q160.685 1303.71 160.685 1312.62 Q160.685 1321.5 162.942 1325.96 Q165.228 1330.39 169.741 1330.39 Q174.284 1330.39 176.541 1325.96 Q178.827 1321.5 178.827 1312.62 Q178.827 1303.71 176.541 1299.28 Q174.284 1294.83 169.741 1294.83 M169.741 1290.2 Q177.004 1290.2 180.824 1295.95 Q184.672 1301.68 184.672 1312.62 Q184.672 1323.53 180.824 1329.29 Q177.004 1335.02 169.741 1335.02 Q162.479 1335.02 158.63 1329.29 Q154.811 1323.53 154.811 1312.62 Q154.811 1301.68 158.63 1295.95 Q162.479 1290.2 169.741 1290.2 Z" fill="#000000" fill-rule="nonzero" fill-opacity="1" /><path clip-path="url(#clip870)" d="M52.2363 1247.73 L89.331 1247.73 L89.331 1252.65 L52.2363 1252.65 L52.2363 1247.73 Z" fill="#000000" fill-rule="nonzero" fill-opacity="1" /><path clip-path="url(#clip870)" d="M115.17 1244.83 Q111.235 1244.83 108.92 1247.52 Q106.634 1250.22 106.634 1254.9 Q106.634 1259.56 108.92 1262.28 Q111.235 1264.97 115.17 1264.97 Q119.105 1264.97 121.391 1262.28 Q123.706 1259.56 123.706 1254.9 Q123.706 1250.22 121.391 1247.52 Q119.105 1244.83 115.17 1244.83 M126.773 1226.52 L126.773 1231.84 Q124.574 1230.8 122.317 1230.25 Q120.089 1229.7 117.89 1229.7 Q112.103 1229.7 109.036 1233.61 Q105.998 1237.51 105.564 1245.41 Q107.271 1242.89 109.846 1241.56 Q112.421 1240.2 115.517 1240.2 Q122.028 1240.2 125.789 1244.17 Q129.58 1248.1 129.58 1254.9 Q129.58 1261.56 125.645 1265.58 Q121.709 1269.6 115.17 1269.6 Q107.676 1269.6 103.712 1263.87 Q99.7477 1258.11 99.7477 1247.21 Q99.7477 1236.96 104.609 1230.89 Q109.47 1224.78 117.658 1224.78 Q119.857 1224.78 122.085 1225.22 Q124.342 1225.65 126.773 1226.52 Z" fill="#000000" fill-rule="nonzero" fill-opacity="1" /><path clip-path="url(#clip870)" d="M139.649 1261.41 L145.754 1261.41 L145.754 1268.76 L139.649 1268.76 L139.649 1261.41 Z" fill="#000000" fill-rule="nonzero" fill-opacity="1" /><path clip-path="url(#clip870)" d="M158.544 1225.56 L181.489 1225.56 L181.489 1230.48 L163.897 1230.48 L163.897 1241.07 Q165.17 1240.64 166.443 1240.44 Q167.716 1240.2 168.989 1240.2 Q176.223 1240.2 180.447 1244.17 Q184.672 1248.13 184.672 1254.9 Q184.672 1261.88 180.332 1265.75 Q175.991 1269.6 168.092 1269.6 Q165.372 1269.6 162.537 1269.14 Q159.73 1268.68 156.721 1267.75 L156.721 1261.88 Q159.325 1263.29 162.103 1263.99 Q164.88 1264.68 167.976 1264.68 Q172.982 1264.68 175.905 1262.05 Q178.827 1259.42 178.827 1254.9 Q178.827 1250.39 175.905 1247.76 Q172.982 1245.12 167.976 1245.12 Q165.633 1245.12 163.289 1245.64 Q160.974 1246.16 158.544 1247.26 L158.544 1225.56 Z" fill="#000000" fill-rule="nonzero" fill-opacity="1" /><path clip-path="url(#clip870)" d="M50.9921 1182.31 L88.0868 1182.31 L88.0868 1187.23 L50.9921 1187.23 L50.9921 1182.31 Z" fill="#000000" fill-rule="nonzero" fill-opacity="1" /><path clip-path="url(#clip870)" d="M113.926 1179.42 Q109.991 1179.42 107.676 1182.11 Q105.39 1184.8 105.39 1189.49 Q105.39 1194.15 107.676 1196.87 Q109.991 1199.56 113.926 1199.56 Q117.861 1199.56 120.147 1196.87 Q122.462 1194.15 122.462 1189.49 Q122.462 1184.8 120.147 1182.11 Q117.861 1179.42 113.926 1179.42 M125.529 1161.1 L125.529 1166.43 Q123.33 1165.39 121.073 1164.84 Q118.845 1164.29 116.646 1164.29 Q110.859 1164.29 107.792 1168.19 Q104.753 1172.1 104.319 1180 Q106.027 1177.48 108.602 1176.15 Q111.177 1174.79 114.273 1174.79 Q120.783 1174.79 124.545 1178.75 Q128.335 1182.69 128.335 1189.49 Q128.335 1196.14 124.4 1200.17 Q120.465 1204.19 113.926 1204.19 Q106.432 1204.19 102.468 1198.46 Q98.5034 1192.7 98.5034 1181.79 Q98.5034 1171.55 103.365 1165.47 Q108.226 1159.37 116.414 1159.37 Q118.613 1159.37 120.841 1159.8 Q123.098 1160.24 125.529 1161.1 Z" fill="#000000" fill-rule="nonzero" fill-opacity="1" /><path clip-path="url(#clip870)" d="M138.405 1196 L144.51 1196 L144.51 1203.35 L138.405 1203.35 L138.405 1196 Z" fill="#000000" fill-rule="nonzero" fill-opacity="1" /><path clip-path="url(#clip870)" d="M169.741 1164 Q165.228 1164 162.942 1168.45 Q160.685 1172.88 160.685 1181.79 Q160.685 1190.67 162.942 1195.13 Q165.228 1199.56 169.741 1199.56 Q174.284 1199.56 176.541 1195.13 Q178.827 1190.67 178.827 1181.79 Q178.827 1172.88 176.541 1168.45 Q174.284 1164 169.741 1164 M169.741 1159.37 Q177.004 1159.37 180.824 1165.13 Q184.672 1170.85 184.672 1181.79 Q184.672 1192.7 180.824 1198.46 Q177.004 1204.19 169.741 1204.19 Q162.479 1204.19 158.63 1198.46 Q154.811 1192.7 154.811 1181.79 Q154.811 1170.85 158.63 1165.13 Q162.479 1159.37 169.741 1159.37 Z" fill="#000000" fill-rule="nonzero" fill-opacity="1" /><polyline clip-path="url(#clip873)" style="stroke:#009af9; stroke-linecap:round; stroke-linejoin:round; stroke-width:8; stroke-opacity:1; fill:none" points="220.672,1181.75 222.806,1181.75 224.94,1181.75 227.075,1181.75 229.209,1181.75 231.343,1181.75 233.477,1181.75 235.611,1181.75 237.746,1181.75 239.88,1181.75 242.014,1181.75 244.148,1181.75 246.283,1181.75 248.417,1181.75 250.551,1181.75 252.685,1181.75 254.819,1181.75 256.954,1181.75 259.088,1181.75 261.222,1181.75 263.356,1181.75 265.491,1181.75 267.625,1181.75 269.759,1181.75 271.893,1181.75 274.027,1181.75 276.162,1181.75 278.296,1181.75 280.43,1181.75 282.564,1181.75 284.699,1181.75 286.833,1181.75 288.967,1181.75 291.101,1181.75 293.235,1181.75 295.37,1181.75 297.504,1181.75 299.638,1181.75 301.772,1181.75 303.906,1181.75 306.041,1181.75 308.175,1181.75 310.309,1181.75 312.443,1181.75 314.578,1181.75 316.712,1181.75 318.846,1181.75 320.98,1181.75 323.114,1181.75 325.249,1181.75 327.383,1181.75 329.517,1181.75 331.651,1181.75 333.786,1181.75 335.92,1181.75 338.054,1181.75 340.188,1181.75 342.322,1181.75 344.457,1181.75 346.591,1181.75 348.725,1181.75 350.859,1181.75 352.993,1181.75 355.128,1181.75 357.262,1181.75 359.396,1181.75 361.53,1181.75 363.665,1181.75 365.799,1181.75 367.933,1181.75 370.067,1181.75 372.201,1181.75 374.336,1181.75 376.47,1181.75 378.604,1181.75 380.738,1181.75 382.873,1181.75 385.007,1181.75 387.141,1181.75 389.275,1181.75 391.409,1181.75 393.544,1181.75 395.678,1181.75 397.812,1181.75 399.946,1181.75 402.081,1181.75 404.215,1181.75 406.349,1181.75 408.483,1181.75 410.617,1181.75 412.752,1181.75 414.886,1181.75 417.02,1181.75 419.154,1181.75 421.288,1181.75 423.423,1181.75 425.557,1181.75 427.691,1181.75 429.825,1181.75 431.96,1181.75 434.094,1181.75 436.228,1181.75 438.362,1181.75 440.496,1181.75 442.631,1181.75 444.765,1181.75 446.899,1181.75 449.033,1181.75 451.168,1181.75 453.302,1181.75 455.436,1181.75 457.57,1181.75 459.704,1181.75 461.839,1181.75 463.973,1181.75 466.107,1181.75 468.241,1181.75 470.375,1181.75 472.51,1181.75 474.644,1181.75 476.778,1181.75 478.912,1181.75 481.047,1181.75 483.181,1181.75 485.315,1181.75 487.449,1181.75 489.583,1181.75 491.718,1181.75 493.852,1181.75 495.986,1181.75 498.12,1181.75 500.255,1181.75 502.389,1181.75 504.523,1181.75 506.657,1181.75 508.791,1181.75 510.926,1181.75 513.06,1181.75 515.194,1181.75 517.328,1181.75 519.463,1181.75 521.597,1181.75 523.731,1181.75 525.865,1407.76 527.999,1407.76 530.134,1407.76 532.268,1407.76 534.402,1407.76 536.536,1407.76 538.67,1407.76 540.805,1407.76 542.939,1407.76 545.073,1407.76 547.207,1407.76 549.342,1407.76 551.476,1407.76 553.61,1407.76 555.744,1407.76 557.878,1407.76 560.013,1407.76 562.147,1407.76 564.281,1407.76 566.415,1407.76 568.55,1407.76 570.684,1407.76 572.818,1407.76 574.952,1407.76 577.086,1407.76 579.221,1407.76 581.355,1407.76 583.489,1407.76 585.623,1407.76 587.757,1407.76 589.892,1407.76 592.026,1407.76 594.16,1407.76 596.294,1407.76 598.429,1407.76 600.563,1407.76 602.697,1407.76 604.831,1407.76 606.965,1407.76 609.1,1407.76 611.234,1407.76 613.368,1407.76 615.502,1407.76 617.637,1407.76 619.771,1407.76 621.905,1407.76 624.039,1407.76 626.173,1407.76 628.308,1407.76 630.442,1407.76 632.576,1407.76 634.71,1407.76 636.845,1407.76 638.979,1407.76 641.113,1407.76 643.247,1407.76 645.381,1407.76 647.516,1407.76 649.65,1407.76 651.784,1407.76 653.918,1407.76 656.052,1407.76 658.187,1407.76 660.321,1407.76 662.455,1407.76 664.589,1407.76 666.724,1407.76 668.858,1407.76 670.992,1407.76 673.126,1407.76 675.26,1407.76 677.395,1407.76 679.529,1407.76 681.663,1407.76 683.797,1407.76 685.932,1407.76 688.066,1407.76 690.2,1407.76 692.334,1407.76 694.468,1407.76 696.603,1407.76 698.737,1407.76 700.871,1407.76 703.005,1407.76 705.139,1407.76 707.274,1407.76 709.408,1407.76 711.542,1407.76 713.676,1407.76 715.811,1407.76 717.945,1407.76 720.079,1407.76 722.213,1407.76 724.347,1407.76 726.482,1407.76 728.616,1407.76 730.75,1407.76 732.884,1407.76 735.019,1407.76 737.153,1407.76 739.287,1407.76 741.421,1407.76 743.555,1407.76 745.69,1407.76 747.824,1407.76 749.958,1407.76 752.092,1407.76 754.227,1407.76 756.361,1407.76 758.495,1407.76 760.629,1407.76 762.763,1407.76 764.898,1407.76 767.032,1407.76 769.166,1407.76 771.3,1407.76 773.434,1407.76 775.569,1407.76 777.703,1407.76 779.837,1407.76 781.971,1407.76 784.106,1407.76 786.24,1407.76 788.374,1407.76 790.508,1407.76 792.642,1407.76 794.777,1407.76 796.911,1407.76 799.045,1407.76 801.179,1407.76 803.314,1407.76 805.448,1407.76 807.582,1407.76 809.716,1407.76 811.85,1407.76 813.985,1407.76 816.119,1407.76 818.253,1407.76 820.387,1407.76 822.521,1407.76 824.656,1407.76 826.79,1407.76 828.924,1407.76 831.058,1407.76 833.193,1407.76 835.327,1407.76 837.461,1407.76 839.595,1407.76 841.729,1407.76 843.864,1407.76 845.998,1407.76 848.132,1407.76 850.266,1407.76 852.401,1407.76 854.535,1407.76 856.669,1407.76 858.803,1407.76 860.937,1407.76 863.072,1407.76 865.206,1407.76 867.34,1407.76 869.474,1407.76 871.609,1407.76 873.743,1407.76 875.877,1407.76 878.011,1407.76 880.145,1407.76 882.28,1407.76 884.414,1407.76 886.548,1407.76 888.682,1407.76 890.816,1407.76 892.951,1407.76 895.085,1407.76 897.219,1407.76 899.353,1407.76 901.488,1407.76 903.622,1407.76 905.756,1407.76 907.89,1407.76 910.024,1407.76 912.159,1407.76 914.293,1407.76 916.427,1407.76 918.561,1407.76 920.696,1407.76 922.83,1407.76 924.964,1407.76 927.098,1407.76 929.232,1407.76 931.367,1407.76 933.501,1407.76 935.635,1407.76 937.769,1407.76 939.903,1407.76 942.038,1407.76 944.172,1407.76 946.306,1407.76 948.44,1407.76 950.575,1407.76 952.709,1407.76 954.843,1407.76 956.977,1407.76 959.111,1407.76 961.246,1407.76 963.38,1407.76 965.514,1407.76 967.648,1407.76 969.783,1407.76 971.917,1407.76 974.051,1407.76 976.185,1407.76 978.319,1407.76 980.454,1407.76 982.588,1407.76 984.722,1407.76 986.856,1407.76 988.991,1407.76 991.125,1407.76 993.259,1407.76 995.393,1407.76 997.527,1407.76 999.662,1407.76 1001.8,1407.76 1003.93,1407.76 1006.06,1407.76 1008.2,1407.76 1010.33,1407.76 1012.47,1407.76 1014.6,1407.76 1016.74,1407.76 1018.87,1407.76 1021,1407.76 1023.14,1407.76 1025.27,1407.76 1027.41,1407.76 1029.54,1407.76 1031.67,1407.76 1033.81,1407.76 1035.94,1407.76 1038.08,1407.76 1040.21,1407.76 1042.35,1407.76 1044.48,1407.76 1046.61,1407.76 1048.75,1407.76 1050.88,1407.76 1053.02,1407.76 1055.15,1407.76 1057.29,1407.76 1059.42,1407.76 1061.55,1407.76 1063.69,1407.76 1065.82,1407.76 1067.96,1407.76 1070.09,1407.76 1072.23,1407.76 1074.36,1407.76 1076.49,1407.76 1078.63,1407.76 1080.76,1407.76 1082.9,1407.76 1085.03,1407.76 1087.16,1407.76 1089.3,1407.76 1091.43,1407.76 1093.57,1407.76 1095.7,1407.76 1097.84,1407.76 1099.97,1407.76 1102.1,1407.76 1104.24,1407.76 1106.37,1407.76 1108.51,1407.76 1110.64,1407.76 1112.78,1407.76 1114.91,1407.76 1117.04,1407.76 1119.18,1407.76 1121.31,1407.76 1123.45,1407.76 1125.58,1407.76 1127.71,1407.76 1129.85,1407.76 1131.98,1407.76 1134.12,1407.76 1136.25,1407.76 1138.39,1407.76 1140.52,1407.76 1142.65,1407.76 1144.79,1407.76 1146.92,1407.76 1149.06,1407.76 1151.19,1407.76 1153.33,1407.76 1155.46,1407.76 1157.59,1407.76 1159.73,1407.76 1161.86,1407.76 1164,1407.76 1166.13,1407.76 1168.26,1407.76 1170.4,1407.76 1172.53,1407.76 1174.67,1407.76 1176.8,1407.76 1178.94,1407.76 1181.07,1407.76 1183.2,1407.76 1185.34,1407.76 1187.47,1407.76 1189.61,1407.76 1191.74,1407.76 1193.88,1407.76 1196.01,1407.76 1198.14,1407.76 1200.28,1407.76 1202.41,1407.76 1204.55,1407.76 1206.68,1407.76 1208.81,1407.76 1210.95,1407.76 1213.08,1407.76 1215.22,1407.76 1217.35,1407.76 1219.49,1407.76 1221.62,1407.76 1223.75,1407.76 1225.89,1407.76 1228.02,1407.76 1230.16,1407.76 1232.29,1407.76 1234.43,1407.76 1236.56,1407.76 1238.69,1407.76 1240.83,1407.76 1242.96,1407.76 1245.1,1407.76 1247.23,1407.76 1249.37,1407.76 1251.5,1407.76 1253.63,1407.76 1255.77,1407.76 1257.9,1407.76 1260.04,1407.76 1262.17,1407.76 1264.3,1407.76 1266.44,1407.76 1268.57,1407.76 1270.71,1407.76 1272.84,1407.76 1274.98,1407.76 1277.11,1407.76 1279.24,1407.76 1281.38,1407.76 1283.51,1407.76 1285.65,1407.76 1287.78,1407.76 1289.92,1407.76 1292.05,1407.76 1294.18,1407.76 1296.32,1407.76 1298.45,1407.76 1300.59,1407.76 1302.72,1407.76 1304.85,1407.76 1306.99,1407.76 1309.12,1407.76 1311.26,1407.76 1313.39,1407.76 1315.53,1407.76 1317.66,1407.76 1319.79,1407.76 1321.93,1407.76 1324.06,1407.76 1326.2,1407.76 1328.33,1407.76 1330.47,1407.76 1332.6,1407.76 1334.73,1407.76 1336.87,1407.76 1339,1407.76 1341.14,1407.76 1343.27,1407.76 1345.4,1407.76 1347.54,1407.76 1349.67,1407.76 1351.81,1407.76 1353.94,1407.76 1356.08,1407.76 1358.21,1407.76 1360.34,1407.76 1362.48,1407.76 1364.61,1407.76 1366.75,1407.76 1368.88,1407.76 1371.02,1407.76 1373.15,1407.76 1375.28,1407.76 1377.42,1407.76 1379.55,1407.76 1381.69,1407.76 1383.82,1407.76 1385.96,1407.76 1388.09,1407.76 1390.22,1407.76 1392.36,1407.76 1394.49,1407.76 1396.63,1407.76 1398.76,1407.76 1400.89,1407.76 1403.03,1407.76 1405.16,1407.76 1407.3,1407.76 1409.43,1407.76 1411.57,1407.76 1413.7,1407.76 1415.83,1407.76 1417.97,1407.76 1420.1,1407.76 1422.24,1407.76 1424.37,1407.76 1426.51,1407.76 1428.64,1407.76 1430.77,1407.76 1432.91,1407.76 1435.04,1407.76 1437.18,1407.76 1439.31,1407.76 1441.44,1407.76 1443.58,1407.76 1445.71,1407.76 1447.85,1407.76 1449.98,1407.76 1452.12,1407.76 1454.25,1407.76 1456.38,1407.76 1458.52,1407.76 1460.65,1407.76 1462.79,1407.76 1464.92,1407.76 1467.06,1407.76 1469.19,1407.76 1471.32,1407.76 1473.46,1407.76 1475.59,1407.76 1477.73,1407.76 1479.86,1407.76 1481.99,1407.76 1484.13,1407.76 1486.26,1407.76 1488.4,1407.76 1490.53,1407.76 1492.67,1407.76 1494.8,1407.76 1496.93,1407.76 1499.07,1407.76 1501.2,1407.76 1503.34,1407.76 1505.47,1407.76 1507.61,1407.76 1509.74,1407.76 1511.87,1407.76 1514.01,1407.76 1516.14,1407.76 1518.28,1407.76 1520.41,1407.76 1522.55,1407.76 1524.68,1407.76 1526.81,1407.76 1528.95,1407.76 1531.08,1407.76 1533.22,1407.76 1535.35,1407.76 1537.48,1407.76 1539.62,1407.76 1541.75,1407.76 1543.89,1407.76 1546.02,1407.76 1548.16,1407.76 1550.29,1407.76 1552.42,1407.76 1554.56,1407.76 1556.69,1407.76 1558.83,1407.76 1560.96,1407.76 1563.1,1407.76 1565.23,1407.76 1567.36,1407.76 1569.5,1407.76 1571.63,1407.76 1573.77,1407.76 1575.9,1407.76 1578.03,1407.76 1580.17,1407.76 1582.3,1407.76 1584.44,1407.76 1586.57,1407.76 1588.71,1407.76 1590.84,1407.76 1592.97,1407.76 1595.11,1407.76 1597.24,1407.76 1599.38,1407.76 1601.51,1407.76 1603.65,1407.76 1605.78,1407.76 1607.91,1407.76 1610.05,1407.76 1612.18,1407.76 1614.32,1407.76 1616.45,1407.76 1618.58,1407.76 1620.72,1407.76 1622.85,1407.76 1624.99,1407.76 1627.12,1407.76 1629.26,1407.76 1631.39,1407.76 1633.52,1407.76 1635.66,1407.76 1637.79,1407.76 1639.93,1407.76 1642.06,1407.76 1644.2,1407.76 1646.33,1407.76 1648.46,1407.76 1650.6,1407.76 1652.73,1407.76 1654.87,1407.76 1657,1407.76 1659.14,1407.76 1661.27,1407.76 1663.4,1407.76 1665.54,1407.76 1667.67,1407.76 1669.81,1407.76 1671.94,1407.76 1674.07,1407.76 1676.21,1407.76 1678.34,1407.76 1680.48,1407.76 1682.61,1407.76 1684.75,1407.76 1686.88,1407.76 1689.01,1407.76 1691.15,1407.76 1693.28,1407.76 1695.42,1407.76 1697.55,1407.76 1699.69,1407.76 1701.82,1407.76 1703.95,1407.76 1706.09,1407.76 1708.22,1407.76 1710.36,1407.76 1712.49,1407.76 1714.62,1407.76 1716.76,1407.76 1718.89,1407.76 1721.03,1407.76 1723.16,1407.76 1725.3,1407.76 1727.43,1407.76 1729.56,1407.76 1731.7,1407.76 1733.83,1407.76 1735.97,1407.76 1738.1,1407.76 1740.24,1407.76 1742.37,1407.76 1744.5,1407.76 1746.64,1407.76 1748.77,1407.76 1750.91,1407.76 1753.04,1407.76 1755.17,1407.76 1757.31,1407.76 1759.44,1407.76 1761.58,1407.76 1763.71,1407.76 1765.85,1407.76 1767.98,1407.76 1770.11,1407.76 1772.25,1407.76 1774.38,1407.76 1776.52,1407.76 1778.65,1407.76 1780.79,1407.76 1782.92,1407.76 1785.05,1407.76 1787.19,1407.76 1789.32,1407.76 1791.46,1407.76 1793.59,1407.76 1795.72,1407.76 1797.86,1407.76 1799.99,1407.76 1802.13,1407.76 1804.26,1407.76 1806.4,1407.76 1808.53,1407.76 1810.66,1407.76 1812.8,1407.76 1814.93,1407.76 1817.07,1407.76 1819.2,1407.76 1821.34,1407.76 1823.47,1407.76 1825.6,1407.76 1827.74,1407.76 1829.87,1407.76 1832.01,1407.76 1834.14,1407.76 1836.28,1407.76 1838.41,1407.76 1840.54,1407.76 1842.68,1407.76 1844.81,1407.76 1846.95,1407.76 1849.08,1407.76 1851.21,1407.76 1853.35,1407.76 1855.48,1407.76 1857.62,1407.76 1859.75,1407.76 1861.89,1407.76 1864.02,1407.76 1866.15,1407.76 1868.29,1407.76 1870.42,1407.76 1872.56,1407.76 1874.69,1407.76 1876.83,1407.76 1878.96,1407.76 1881.09,1407.76 1883.23,1407.76 1885.36,1407.76 1887.5,1407.76 1889.63,1407.76 1891.76,1407.76 1893.9,1407.76 1896.03,1407.76 1898.17,1407.76 1900.3,1407.76 1902.44,1407.76 1904.57,1407.76 1906.7,1407.76 1908.84,1407.76 1910.97,1407.76 1913.11,1407.76 1915.24,1407.76 1917.38,1407.76 1919.51,1407.76 1921.64,1407.76 1923.78,1407.76 1925.91,1407.76 1928.05,1407.76 1930.18,1407.76 1932.31,1407.76 1934.45,1407.76 1936.58,1407.76 1938.72,1407.76 1940.85,1407.76 1942.99,1407.76 1945.12,1407.76 1947.25,1407.76 1949.39,1407.76 1951.52,1407.76 1953.66,1407.76 1955.79,1407.76 1957.93,1407.76 1960.06,1407.76 1962.19,1407.76 1964.33,1407.76 1966.46,1407.76 1968.6,1407.76 1970.73,1407.76 1972.87,1407.76 1975,1407.76 1977.13,1407.76 1979.27,1407.76 1981.4,1407.76 1983.54,1407.76 1985.67,1407.76 1987.8,1407.76 1989.94,1407.76 1992.07,1407.76 1994.21,1407.76 1996.34,1407.76 1998.48,1407.76 2000.61,1407.76 2002.74,1407.76 2004.88,1407.76 2007.01,1407.76 2009.15,1407.76 2011.28,1407.76 2013.42,1407.76 2015.55,1407.76 2017.68,1407.76 2019.82,1407.76 2021.95,1407.76 2024.09,1407.76 2026.22,1407.76 2028.35,1407.76 2030.49,1407.76 2032.62,1407.76 2034.76,1407.76 2036.89,1407.76 2039.03,1407.76 2041.16,1407.76 2043.29,1407.76 2045.43,1407.76 2047.56,1407.76 2049.7,1407.76 2051.83,1407.76 2053.97,1407.76 2056.1,1407.76 2058.23,1407.76 2060.37,1407.76 2062.5,1407.76 2064.64,1407.76 2066.77,1407.76 2068.9,1407.76 2071.04,1407.76 2073.17,1407.76 2075.31,1407.76 2077.44,1407.76 2079.58,1407.76 2081.71,1407.76 2083.84,1407.76 2085.98,1407.76 2088.11,1407.76 2090.25,1407.76 2092.38,1407.76 2094.52,1407.76 2096.65,1407.76 2098.78,1407.76 2100.92,1407.76 2103.05,1407.76 2105.19,1407.76 2107.32,1407.76 2109.46,1407.76 2111.59,1407.76 2113.72,1407.76 2115.86,1407.76 2117.99,1407.76 2120.13,1407.76 2122.26,1407.76 2124.39,1407.76 2126.53,1407.76 2128.66,1407.76 2130.8,1407.76 2132.93,1407.76 2135.07,1407.76 2137.2,1407.76 2139.33,1407.76 2141.47,1407.76 2143.6,1407.76 2145.74,1407.76 2147.87,1407.76 2150.01,1407.76 2152.14,1407.76 2154.27,1407.76 2156.41,1407.76 2158.54,1407.76 2160.68,1407.76 2162.81,1407.76 2164.94,1407.76 2167.08,1407.76 2169.21,1407.76 2171.35,1407.76 2173.48,1407.76 2175.62,1407.76 2177.75,1407.76 2179.88,1407.76 2182.02,1407.76 2184.15,1407.76 2186.29,1407.76 2188.42,1407.76 2190.56,1407.76 2192.69,1407.76 2194.82,1407.76 2196.96,1407.76 2199.09,1407.76 2201.23,1407.76 2203.36,1407.76 2205.49,1407.76 2207.63,1407.76 2209.76,1407.76 2211.9,1407.76 2214.03,1407.76 2216.17,1407.76 2218.3,1407.76 2220.43,1407.76 2222.57,1407.76 2224.7,1407.76 2226.84,1407.76 2228.97,1407.76 2231.11,1407.76 2233.24,1407.76 2235.37,1407.76 2237.51,1407.76 2239.64,1407.76 2241.78,1407.76 2243.91,1407.76 2246.04,1407.76 2248.18,1407.76 2250.31,1407.76 2252.45,1407.76 2254.58,1407.76 2256.72,1407.76 2258.85,1407.76 2260.98,1407.76 2263.12,1407.76 2265.25,1407.76 2267.39,1407.76 2269.52,1407.76 2271.66,1407.76 2273.79,1407.76 2275.92,1407.76 2278.06,1407.76 2280.19,1407.76 2282.33,1407.76 2284.46,1407.76 2286.6,1407.76 2288.73,1407.76 2290.86,1407.76 2293,1407.76 2295.13,1407.76 2297.27,1407.76 2299.4,1407.76 2301.53,1407.76 2303.67,1407.76 2305.8,1407.76 2307.94,1407.76 2310.07,1407.76 2312.21,1407.76 2314.34,1407.76 2316.47,1407.76 2318.61,1407.76 2320.74,1407.76 2322.88,1407.76 2325.01,1407.76 2327.15,1407.76 2329.28,1407.76 2331.41,1407.76 2333.55,1407.76 2335.68,1407.76 2337.82,1407.76 2339.95,1407.76 2342.08,1407.76 2344.22,1407.76 2346.35,1407.76 2348.49,1407.76 2350.62,1407.76 2352.76,1407.76 "/>
</svg>
