<?xml version="1.0" encoding="utf-8"?>
<svg xmlns="http://www.w3.org/2000/svg" xmlns:xlink="http://www.w3.org/1999/xlink" width="600" height="400" viewBox="0 0 2400 1600">
<defs>
  <clipPath id="clip810">
    <rect x="0" y="0" width="2400" height="1600"/>
  </clipPath>
</defs>
<path clip-path="url(#clip810)" d="M0 1600 L2400 1600 L2400 0 L0 0  Z" fill="#ffffff" fill-rule="evenodd" fill-opacity="1"/>
<defs>
  <clipPath id="clip811">
    <rect x="480" y="0" width="1681" height="1600"/>
  </clipPath>
</defs>
<path clip-path="url(#clip810)" d="M274.363 1005.53 L2352.76 1005.53 L2352.76 47.2441 L274.363 47.2441  Z" fill="#ffffff" fill-rule="evenodd" fill-opacity="1"/>
<defs>
  <clipPath id="clip812">
    <rect x="274" y="47" width="2079" height="959"/>
  </clipPath>
</defs>
<polyline clip-path="url(#clip812)" style="stroke:#000000; stroke-linecap:round; stroke-linejoin:round; stroke-width:2; stroke-opacity:0.1; fill:none" points="274.363,1005.53 274.363,47.2441 "/>
<polyline clip-path="url(#clip812)" style="stroke:#000000; stroke-linecap:round; stroke-linejoin:round; stroke-width:2; stroke-opacity:0.1; fill:none" points="571.276,1005.53 571.276,47.2441 "/>
<polyline clip-path="url(#clip812)" style="stroke:#000000; stroke-linecap:round; stroke-linejoin:round; stroke-width:2; stroke-opacity:0.1; fill:none" points="868.189,1005.53 868.189,47.2441 "/>
<polyline clip-path="url(#clip812)" style="stroke:#000000; stroke-linecap:round; stroke-linejoin:round; stroke-width:2; stroke-opacity:0.1; fill:none" points="1165.1,1005.53 1165.1,47.2441 "/>
<polyline clip-path="url(#clip812)" style="stroke:#000000; stroke-linecap:round; stroke-linejoin:round; stroke-width:2; stroke-opacity:0.1; fill:none" points="1462.02,1005.53 1462.02,47.2441 "/>
<polyline clip-path="url(#clip812)" style="stroke:#000000; stroke-linecap:round; stroke-linejoin:round; stroke-width:2; stroke-opacity:0.1; fill:none" points="1758.93,1005.53 1758.93,47.2441 "/>
<polyline clip-path="url(#clip812)" style="stroke:#000000; stroke-linecap:round; stroke-linejoin:round; stroke-width:2; stroke-opacity:0.1; fill:none" points="2055.84,1005.53 2055.84,47.2441 "/>
<polyline clip-path="url(#clip812)" style="stroke:#000000; stroke-linecap:round; stroke-linejoin:round; stroke-width:2; stroke-opacity:0.1; fill:none" points="2352.76,1005.53 2352.76,47.2441 "/>
<polyline clip-path="url(#clip810)" style="stroke:#000000; stroke-linecap:round; stroke-linejoin:round; stroke-width:4; stroke-opacity:1; fill:none" points="274.363,1005.53 2352.76,1005.53 "/>
<polyline clip-path="url(#clip810)" style="stroke:#000000; stroke-linecap:round; stroke-linejoin:round; stroke-width:4; stroke-opacity:1; fill:none" points="274.363,1005.53 274.363,986.634 "/>
<polyline clip-path="url(#clip810)" style="stroke:#000000; stroke-linecap:round; stroke-linejoin:round; stroke-width:4; stroke-opacity:1; fill:none" points="571.276,1005.53 571.276,986.634 "/>
<polyline clip-path="url(#clip810)" style="stroke:#000000; stroke-linecap:round; stroke-linejoin:round; stroke-width:4; stroke-opacity:1; fill:none" points="868.189,1005.53 868.189,986.634 "/>
<polyline clip-path="url(#clip810)" style="stroke:#000000; stroke-linecap:round; stroke-linejoin:round; stroke-width:4; stroke-opacity:1; fill:none" points="1165.1,1005.53 1165.1,986.634 "/>
<polyline clip-path="url(#clip810)" style="stroke:#000000; stroke-linecap:round; stroke-linejoin:round; stroke-width:4; stroke-opacity:1; fill:none" points="1462.02,1005.53 1462.02,986.634 "/>
<polyline clip-path="url(#clip810)" style="stroke:#000000; stroke-linecap:round; stroke-linejoin:round; stroke-width:4; stroke-opacity:1; fill:none" points="1758.93,1005.53 1758.93,986.634 "/>
<polyline clip-path="url(#clip810)" style="stroke:#000000; stroke-linecap:round; stroke-linejoin:round; stroke-width:4; stroke-opacity:1; fill:none" points="2055.84,1005.53 2055.84,986.634 "/>
<polyline clip-path="url(#clip810)" style="stroke:#000000; stroke-linecap:round; stroke-linejoin:round; stroke-width:4; stroke-opacity:1; fill:none" points="2352.76,1005.53 2352.76,986.634 "/>
<path clip-path="url(#clip810)" d="M274.363 1039.38 Q269.849 1039.38 267.563 1043.84 Q265.306 1048.26 265.306 1057.18 Q265.306 1066.06 267.563 1070.51 Q269.849 1074.94 274.363 1074.94 Q278.905 1074.94 281.162 1070.51 Q283.448 1066.06 283.448 1057.18 Q283.448 1048.26 281.162 1043.84 Q278.905 1039.38 274.363 1039.38 M274.363 1034.75 Q281.625 1034.75 285.445 1040.51 Q289.293 1046.24 289.293 1057.18 Q289.293 1068.08 285.445 1073.84 Q281.625 1079.57 274.363 1079.57 Q267.1 1079.57 263.251 1073.84 Q259.432 1068.08 259.432 1057.18 Q259.432 1046.24 263.251 1040.51 Q267.1 1034.75 274.363 1034.75 Z" fill="#000000" fill-rule="nonzero" fill-opacity="1" /><path clip-path="url(#clip810)" d="M539.635 1073.81 L549.184 1073.81 L549.184 1040.86 L538.796 1042.94 L538.796 1037.62 L549.126 1035.53 L554.971 1035.53 L554.971 1073.81 L564.52 1073.81 L564.52 1078.73 L539.635 1078.73 L539.635 1073.81 Z" fill="#000000" fill-rule="nonzero" fill-opacity="1" /><path clip-path="url(#clip810)" d="M588.825 1039.38 Q584.311 1039.38 582.025 1043.84 Q579.768 1048.26 579.768 1057.18 Q579.768 1066.06 582.025 1070.51 Q584.311 1074.94 588.825 1074.94 Q593.368 1074.94 595.625 1070.51 Q597.911 1066.06 597.911 1057.18 Q597.911 1048.26 595.625 1043.84 Q593.368 1039.38 588.825 1039.38 M588.825 1034.75 Q596.088 1034.75 599.907 1040.51 Q603.755 1046.24 603.755 1057.18 Q603.755 1068.08 599.907 1073.84 Q596.088 1079.57 588.825 1079.57 Q581.562 1079.57 577.714 1073.84 Q573.894 1068.08 573.894 1057.18 Q573.894 1046.24 577.714 1040.51 Q581.562 1034.75 588.825 1034.75 Z" fill="#000000" fill-rule="nonzero" fill-opacity="1" /><path clip-path="url(#clip810)" d="M841.656 1073.81 L862.055 1073.81 L862.055 1078.73 L834.625 1078.73 L834.625 1073.81 Q837.952 1070.37 843.681 1064.58 Q849.439 1058.77 850.915 1057.09 Q853.722 1053.93 854.821 1051.76 Q855.95 1049.57 855.95 1047.45 Q855.95 1044.01 853.519 1041.84 Q851.118 1039.67 847.24 1039.67 Q844.491 1039.67 841.424 1040.62 Q838.386 1041.58 834.914 1043.52 L834.914 1037.62 Q838.444 1036.2 841.511 1035.47 Q844.578 1034.75 847.124 1034.75 Q853.837 1034.75 857.83 1038.11 Q861.823 1041.46 861.823 1047.08 Q861.823 1049.74 860.811 1052.14 Q859.827 1054.51 857.194 1057.75 Q856.471 1058.59 852.593 1062.61 Q848.716 1066.61 841.656 1073.81 Z" fill="#000000" fill-rule="nonzero" fill-opacity="1" /><path clip-path="url(#clip810)" d="M886.823 1039.38 Q882.309 1039.38 880.024 1043.84 Q877.767 1048.26 877.767 1057.18 Q877.767 1066.06 880.024 1070.51 Q882.309 1074.94 886.823 1074.94 Q891.366 1074.94 893.623 1070.51 Q895.909 1066.06 895.909 1057.18 Q895.909 1048.26 893.623 1043.84 Q891.366 1039.38 886.823 1039.38 M886.823 1034.75 Q894.086 1034.75 897.905 1040.51 Q901.754 1046.24 901.754 1057.18 Q901.754 1068.08 897.905 1073.84 Q894.086 1079.57 886.823 1079.57 Q879.561 1079.57 875.712 1073.84 Q871.893 1068.08 871.893 1057.18 Q871.893 1046.24 875.712 1040.51 Q879.561 1034.75 886.823 1034.75 Z" fill="#000000" fill-rule="nonzero" fill-opacity="1" /><path clip-path="url(#clip810)" d="M1151.16 1055.44 Q1155.35 1056.34 1157.7 1059.17 Q1160.07 1062.01 1160.07 1066.17 Q1160.07 1072.57 1155.67 1076.07 Q1151.27 1079.57 1143.17 1079.57 Q1140.45 1079.57 1137.56 1079.02 Q1134.69 1078.5 1131.62 1077.43 L1131.62 1071.79 Q1134.06 1073.21 1136.95 1073.93 Q1139.84 1074.65 1143 1074.65 Q1148.49 1074.65 1151.36 1072.48 Q1154.25 1070.31 1154.25 1066.17 Q1154.25 1062.35 1151.56 1060.21 Q1148.9 1058.04 1144.12 1058.04 L1139.09 1058.04 L1139.09 1053.24 L1144.36 1053.24 Q1148.67 1053.24 1150.95 1051.53 Q1153.24 1049.8 1153.24 1046.56 Q1153.24 1043.23 1150.87 1041.46 Q1148.52 1039.67 1144.12 1039.67 Q1141.72 1039.67 1138.97 1040.19 Q1136.23 1040.71 1132.93 1041.81 L1132.93 1036.6 Q1136.25 1035.68 1139.15 1035.21 Q1142.07 1034.75 1144.65 1034.75 Q1151.3 1034.75 1155.18 1037.79 Q1159.06 1040.8 1159.06 1045.95 Q1159.06 1049.54 1157 1052.02 Q1154.95 1054.48 1151.16 1055.44 Z" fill="#000000" fill-rule="nonzero" fill-opacity="1" /><path clip-path="url(#clip810)" d="M1183.65 1039.38 Q1179.14 1039.38 1176.85 1043.84 Q1174.59 1048.26 1174.59 1057.18 Q1174.59 1066.06 1176.85 1070.51 Q1179.14 1074.94 1183.65 1074.94 Q1188.19 1074.94 1190.45 1070.51 Q1192.74 1066.06 1192.74 1057.18 Q1192.74 1048.26 1190.45 1043.84 Q1188.19 1039.38 1183.65 1039.38 M1183.65 1034.75 Q1190.91 1034.75 1194.73 1040.51 Q1198.58 1046.24 1198.58 1057.18 Q1198.58 1068.08 1194.73 1073.84 Q1190.91 1079.57 1183.65 1079.57 Q1176.39 1079.57 1172.54 1073.84 Q1168.72 1068.08 1168.72 1057.18 Q1168.72 1046.24 1172.54 1040.51 Q1176.39 1034.75 1183.65 1034.75 Z" fill="#000000" fill-rule="nonzero" fill-opacity="1" /><path clip-path="url(#clip810)" d="M1447.23 1040.62 L1432.47 1063.69 L1447.23 1063.69 L1447.23 1040.62 M1445.7 1035.53 L1453.05 1035.53 L1453.05 1063.69 L1459.21 1063.69 L1459.21 1068.55 L1453.05 1068.55 L1453.05 1078.73 L1447.23 1078.73 L1447.23 1068.55 L1427.73 1068.55 L1427.73 1062.9 L1445.7 1035.53 Z" fill="#000000" fill-rule="nonzero" fill-opacity="1" /><path clip-path="url(#clip810)" d="M1481.37 1039.38 Q1476.86 1039.38 1474.57 1043.84 Q1472.32 1048.26 1472.32 1057.18 Q1472.32 1066.06 1474.57 1070.51 Q1476.86 1074.94 1481.37 1074.94 Q1485.92 1074.94 1488.17 1070.51 Q1490.46 1066.06 1490.46 1057.18 Q1490.46 1048.26 1488.17 1043.84 Q1485.92 1039.38 1481.37 1039.38 M1481.37 1034.75 Q1488.64 1034.75 1492.46 1040.51 Q1496.3 1046.24 1496.3 1057.18 Q1496.3 1068.08 1492.46 1073.84 Q1488.64 1079.57 1481.37 1079.57 Q1474.11 1079.57 1470.26 1073.84 Q1466.44 1068.08 1466.44 1057.18 Q1466.44 1046.24 1470.26 1040.51 Q1474.11 1034.75 1481.37 1034.75 Z" fill="#000000" fill-rule="nonzero" fill-opacity="1" /><path clip-path="url(#clip810)" d="M1727.3 1035.53 L1750.25 1035.53 L1750.25 1040.45 L1732.66 1040.45 L1732.66 1051.04 Q1733.93 1050.61 1735.2 1050.4 Q1736.48 1050.17 1737.75 1050.17 Q1744.98 1050.17 1749.21 1054.14 Q1753.43 1058.1 1753.43 1064.87 Q1753.43 1071.85 1749.09 1075.72 Q1744.75 1079.57 1736.85 1079.57 Q1734.13 1079.57 1731.3 1079.11 Q1728.49 1078.64 1725.48 1077.72 L1725.48 1071.85 Q1728.08 1073.26 1730.86 1073.96 Q1733.64 1074.65 1736.74 1074.65 Q1741.74 1074.65 1744.66 1072.02 Q1747.59 1069.39 1747.59 1064.87 Q1747.59 1060.36 1744.66 1057.72 Q1741.74 1055.09 1736.74 1055.09 Q1734.39 1055.09 1732.05 1055.61 Q1729.73 1056.13 1727.3 1057.23 L1727.3 1035.53 Z" fill="#000000" fill-rule="nonzero" fill-opacity="1" /><path clip-path="url(#clip810)" d="M1777.45 1039.38 Q1772.93 1039.38 1770.65 1043.84 Q1768.39 1048.26 1768.39 1057.18 Q1768.39 1066.06 1770.65 1070.51 Q1772.93 1074.94 1777.45 1074.94 Q1781.99 1074.94 1784.25 1070.51 Q1786.53 1066.06 1786.53 1057.18 Q1786.53 1048.26 1784.25 1043.84 Q1781.99 1039.38 1777.45 1039.38 M1777.45 1034.75 Q1784.71 1034.75 1788.53 1040.51 Q1792.38 1046.24 1792.38 1057.18 Q1792.38 1068.08 1788.53 1073.84 Q1784.71 1079.57 1777.45 1079.57 Q1770.18 1079.57 1766.34 1073.84 Q1762.52 1068.08 1762.52 1057.18 Q1762.52 1046.24 1766.34 1040.51 Q1770.18 1034.75 1777.45 1034.75 Z" fill="#000000" fill-rule="nonzero" fill-opacity="1" /><path clip-path="url(#clip810)" d="M2037.6 1054.8 Q2033.66 1054.8 2031.35 1057.49 Q2029.06 1060.18 2029.06 1064.87 Q2029.06 1069.53 2031.35 1072.25 Q2033.66 1074.94 2037.6 1074.94 Q2041.53 1074.94 2043.82 1072.25 Q2046.13 1069.53 2046.13 1064.87 Q2046.13 1060.18 2043.82 1057.49 Q2041.53 1054.8 2037.6 1054.8 M2049.2 1036.49 L2049.2 1041.81 Q2047 1040.77 2044.75 1040.22 Q2042.52 1039.67 2040.32 1039.67 Q2034.53 1039.67 2031.46 1043.58 Q2028.43 1047.48 2027.99 1055.38 Q2029.7 1052.86 2032.27 1051.53 Q2034.85 1050.17 2037.95 1050.17 Q2044.46 1050.17 2048.22 1054.14 Q2052.01 1058.07 2052.01 1064.87 Q2052.01 1071.53 2048.07 1075.55 Q2044.14 1079.57 2037.6 1079.57 Q2030.1 1079.57 2026.14 1073.84 Q2022.18 1068.08 2022.18 1057.18 Q2022.18 1046.93 2027.04 1040.86 Q2031.9 1034.75 2040.09 1034.75 Q2042.29 1034.75 2044.51 1035.18 Q2046.77 1035.62 2049.2 1036.49 Z" fill="#000000" fill-rule="nonzero" fill-opacity="1" /><path clip-path="url(#clip810)" d="M2074.58 1039.38 Q2070.06 1039.38 2067.78 1043.84 Q2065.52 1048.26 2065.52 1057.18 Q2065.52 1066.06 2067.78 1070.51 Q2070.06 1074.94 2074.58 1074.94 Q2079.12 1074.94 2081.38 1070.51 Q2083.66 1066.06 2083.66 1057.18 Q2083.66 1048.26 2081.38 1043.84 Q2079.12 1039.38 2074.58 1039.38 M2074.58 1034.75 Q2081.84 1034.75 2085.66 1040.51 Q2089.51 1046.24 2089.51 1057.18 Q2089.51 1068.08 2085.66 1073.84 Q2081.84 1079.57 2074.58 1079.57 Q2067.32 1079.57 2063.47 1073.84 Q2059.65 1068.08 2059.65 1057.18 Q2059.65 1046.24 2063.47 1040.51 Q2067.32 1034.75 2074.58 1034.75 Z" fill="#000000" fill-rule="nonzero" fill-opacity="1" /><path clip-path="url(#clip810)" d="M2319.45 1035.53 L2347.23 1035.53 L2347.23 1038.02 L2331.55 1078.73 L2325.44 1078.73 L2340.2 1040.45 L2319.45 1040.45 L2319.45 1035.53 Z" fill="#000000" fill-rule="nonzero" fill-opacity="1" /><path clip-path="url(#clip810)" d="M2371.13 1039.38 Q2366.62 1039.38 2364.33 1043.84 Q2362.07 1048.26 2362.07 1057.18 Q2362.07 1066.06 2364.33 1070.51 Q2366.62 1074.94 2371.13 1074.94 Q2375.67 1074.94 2377.93 1070.51 Q2380.22 1066.06 2380.22 1057.18 Q2380.22 1048.26 2377.93 1043.84 Q2375.67 1039.38 2371.13 1039.38 M2371.13 1034.75 Q2378.39 1034.75 2382.21 1040.51 Q2386.06 1046.24 2386.06 1057.18 Q2386.06 1068.08 2382.21 1073.84 Q2378.39 1079.57 2371.13 1079.57 Q2363.87 1079.57 2360.02 1073.84 Q2356.2 1068.08 2356.2 1057.18 Q2356.2 1046.24 2360.02 1040.51 Q2363.87 1034.75 2371.13 1034.75 Z" fill="#000000" fill-rule="nonzero" fill-opacity="1" /><polyline clip-path="url(#clip812)" style="stroke:#000000; stroke-linecap:round; stroke-linejoin:round; stroke-width:2; stroke-opacity:0.1; fill:none" points="274.363,1005.53 2352.76,1005.53 "/>
<polyline clip-path="url(#clip812)" style="stroke:#000000; stroke-linecap:round; stroke-linejoin:round; stroke-width:2; stroke-opacity:0.1; fill:none" points="274.363,770.657 2352.76,770.657 "/>
<polyline clip-path="url(#clip812)" style="stroke:#000000; stroke-linecap:round; stroke-linejoin:round; stroke-width:2; stroke-opacity:0.1; fill:none" points="274.363,535.783 2352.76,535.783 "/>
<polyline clip-path="url(#clip812)" style="stroke:#000000; stroke-linecap:round; stroke-linejoin:round; stroke-width:2; stroke-opacity:0.1; fill:none" points="274.363,300.908 2352.76,300.908 "/>
<polyline clip-path="url(#clip812)" style="stroke:#000000; stroke-linecap:round; stroke-linejoin:round; stroke-width:2; stroke-opacity:0.1; fill:none" points="274.363,66.034 2352.76,66.034 "/>
<polyline clip-path="url(#clip810)" style="stroke:#000000; stroke-linecap:round; stroke-linejoin:round; stroke-width:4; stroke-opacity:1; fill:none" points="274.363,1005.53 274.363,47.2441 "/>
<polyline clip-path="url(#clip810)" style="stroke:#000000; stroke-linecap:round; stroke-linejoin:round; stroke-width:4; stroke-opacity:1; fill:none" points="274.363,1005.53 293.26,1005.53 "/>
<polyline clip-path="url(#clip810)" style="stroke:#000000; stroke-linecap:round; stroke-linejoin:round; stroke-width:4; stroke-opacity:1; fill:none" points="274.363,770.657 293.26,770.657 "/>
<polyline clip-path="url(#clip810)" style="stroke:#000000; stroke-linecap:round; stroke-linejoin:round; stroke-width:4; stroke-opacity:1; fill:none" points="274.363,535.783 293.26,535.783 "/>
<polyline clip-path="url(#clip810)" style="stroke:#000000; stroke-linecap:round; stroke-linejoin:round; stroke-width:4; stroke-opacity:1; fill:none" points="274.363,300.908 293.26,300.908 "/>
<polyline clip-path="url(#clip810)" style="stroke:#000000; stroke-linecap:round; stroke-linejoin:round; stroke-width:4; stroke-opacity:1; fill:none" points="274.363,66.034 293.26,66.034 "/>
<path clip-path="url(#clip810)" d="M129.191 987.78 Q124.677 987.78 122.391 992.236 Q120.134 996.663 120.134 1005.58 Q120.134 1014.46 122.391 1018.91 Q124.677 1023.34 129.191 1023.34 Q133.733 1023.34 135.99 1018.91 Q138.276 1014.46 138.276 1005.58 Q138.276 996.663 135.99 992.236 Q133.733 987.78 129.191 987.78 M129.191 983.15 Q136.453 983.15 140.273 988.909 Q144.121 994.638 144.121 1005.58 Q144.121 1016.48 140.273 1022.24 Q136.453 1027.97 129.191 1027.97 Q121.928 1027.97 118.08 1022.24 Q114.26 1016.48 114.26 1005.58 Q114.26 994.638 118.08 988.909 Q121.928 983.15 129.191 983.15 Z" fill="#000000" fill-rule="nonzero" fill-opacity="1" /><path clip-path="url(#clip810)" d="M154.393 1019.78 L160.498 1019.78 L160.498 1027.13 L154.393 1027.13 L154.393 1019.78 Z" fill="#000000" fill-rule="nonzero" fill-opacity="1" /><path clip-path="url(#clip810)" d="M185.73 987.78 Q181.216 987.78 178.93 992.236 Q176.673 996.663 176.673 1005.58 Q176.673 1014.46 178.93 1018.91 Q181.216 1023.34 185.73 1023.34 Q190.272 1023.34 192.529 1018.91 Q194.815 1014.46 194.815 1005.58 Q194.815 996.663 192.529 992.236 Q190.272 987.78 185.73 987.78 M185.73 983.15 Q192.992 983.15 196.812 988.909 Q200.66 994.638 200.66 1005.58 Q200.66 1016.48 196.812 1022.24 Q192.992 1027.97 185.73 1027.97 Q178.467 1027.97 174.619 1022.24 Q170.799 1016.48 170.799 1005.58 Q170.799 994.638 174.619 988.909 Q178.467 983.15 185.73 983.15 Z" fill="#000000" fill-rule="nonzero" fill-opacity="1" /><path clip-path="url(#clip810)" d="M223.432 987.78 Q218.918 987.78 216.632 992.236 Q214.375 996.663 214.375 1005.58 Q214.375 1014.46 216.632 1018.91 Q218.918 1023.34 223.432 1023.34 Q227.975 1023.34 230.232 1018.91 Q232.518 1014.46 232.518 1005.58 Q232.518 996.663 230.232 992.236 Q227.975 987.78 223.432 987.78 M223.432 983.15 Q230.695 983.15 234.514 988.909 Q238.363 994.638 238.363 1005.58 Q238.363 1016.48 234.514 1022.24 Q230.695 1027.97 223.432 1027.97 Q216.169 1027.97 212.321 1022.24 Q208.502 1016.48 208.502 1005.58 Q208.502 994.638 212.321 988.909 Q216.169 983.15 223.432 983.15 Z" fill="#000000" fill-rule="nonzero" fill-opacity="1" /><path clip-path="url(#clip810)" d="M130.435 752.906 Q125.921 752.906 123.635 757.362 Q121.378 761.789 121.378 770.701 Q121.378 779.584 123.635 784.04 Q125.921 788.467 130.435 788.467 Q134.978 788.467 137.235 784.04 Q139.52 779.584 139.52 770.701 Q139.52 761.789 137.235 757.362 Q134.978 752.906 130.435 752.906 M130.435 748.276 Q137.698 748.276 141.517 754.034 Q145.365 759.763 145.365 770.701 Q145.365 781.609 141.517 787.367 Q137.698 793.096 130.435 793.096 Q123.172 793.096 119.324 787.367 Q115.504 781.609 115.504 770.701 Q115.504 759.763 119.324 754.034 Q123.172 748.276 130.435 748.276 Z" fill="#000000" fill-rule="nonzero" fill-opacity="1" /><path clip-path="url(#clip810)" d="M155.637 784.908 L161.743 784.908 L161.743 792.257 L155.637 792.257 L155.637 784.908 Z" fill="#000000" fill-rule="nonzero" fill-opacity="1" /><path clip-path="url(#clip810)" d="M179.509 787.338 L199.908 787.338 L199.908 792.257 L172.477 792.257 L172.477 787.338 Q175.805 783.895 181.534 778.108 Q187.292 772.292 188.768 770.614 Q191.575 767.46 192.674 765.29 Q193.803 763.091 193.803 760.979 Q193.803 757.535 191.372 755.365 Q188.97 753.195 185.093 753.195 Q182.344 753.195 179.277 754.15 Q176.239 755.105 172.767 757.043 L172.767 751.141 Q176.297 749.723 179.364 748.999 Q182.431 748.276 184.977 748.276 Q191.69 748.276 195.683 751.633 Q199.676 754.989 199.676 760.602 Q199.676 763.264 198.664 765.666 Q197.68 768.039 195.047 771.279 Q194.323 772.119 190.446 776.14 Q186.569 780.134 179.509 787.338 Z" fill="#000000" fill-rule="nonzero" fill-opacity="1" /><path clip-path="url(#clip810)" d="M212.234 749.057 L235.18 749.057 L235.18 753.976 L217.587 753.976 L217.587 764.566 Q218.86 764.132 220.133 763.93 Q221.407 763.698 222.68 763.698 Q229.913 763.698 234.138 767.663 Q238.363 771.627 238.363 778.397 Q238.363 785.371 234.022 789.248 Q229.682 793.096 221.783 793.096 Q219.063 793.096 216.227 792.633 Q213.421 792.17 210.411 791.245 L210.411 785.371 Q213.015 786.789 215.793 787.483 Q218.571 788.177 221.667 788.177 Q226.673 788.177 229.595 785.544 Q232.518 782.911 232.518 778.397 Q232.518 773.884 229.595 771.25 Q226.673 768.617 221.667 768.617 Q219.323 768.617 216.98 769.138 Q214.665 769.659 212.234 770.759 L212.234 749.057 Z" fill="#000000" fill-rule="nonzero" fill-opacity="1" /><path clip-path="url(#clip810)" d="M129.191 518.031 Q124.677 518.031 122.391 522.487 Q120.134 526.914 120.134 535.826 Q120.134 544.709 122.391 549.165 Q124.677 553.592 129.191 553.592 Q133.733 553.592 135.99 549.165 Q138.276 544.709 138.276 535.826 Q138.276 526.914 135.99 522.487 Q133.733 518.031 129.191 518.031 M129.191 513.402 Q136.453 513.402 140.273 519.16 Q144.121 524.889 144.121 535.826 Q144.121 546.735 140.273 552.493 Q136.453 558.222 129.191 558.222 Q121.928 558.222 118.08 552.493 Q114.26 546.735 114.26 535.826 Q114.26 524.889 118.08 519.16 Q121.928 513.402 129.191 513.402 Z" fill="#000000" fill-rule="nonzero" fill-opacity="1" /><path clip-path="url(#clip810)" d="M154.393 550.033 L160.498 550.033 L160.498 557.383 L154.393 557.383 L154.393 550.033 Z" fill="#000000" fill-rule="nonzero" fill-opacity="1" /><path clip-path="url(#clip810)" d="M173.288 514.183 L196.233 514.183 L196.233 519.102 L178.641 519.102 L178.641 529.692 Q179.914 529.258 181.187 529.055 Q182.46 528.824 183.733 528.824 Q190.967 528.824 195.191 532.788 Q199.416 536.752 199.416 543.523 Q199.416 550.496 195.076 554.374 Q190.735 558.222 182.836 558.222 Q180.116 558.222 177.281 557.759 Q174.474 557.296 171.465 556.37 L171.465 550.496 Q174.069 551.914 176.847 552.609 Q179.624 553.303 182.72 553.303 Q187.726 553.303 190.649 550.67 Q193.571 548.037 193.571 543.523 Q193.571 539.009 190.649 536.376 Q187.726 533.743 182.72 533.743 Q180.377 533.743 178.033 534.264 Q175.718 534.785 173.288 535.884 L173.288 514.183 Z" fill="#000000" fill-rule="nonzero" fill-opacity="1" /><path clip-path="url(#clip810)" d="M223.432 518.031 Q218.918 518.031 216.632 522.487 Q214.375 526.914 214.375 535.826 Q214.375 544.709 216.632 549.165 Q218.918 553.592 223.432 553.592 Q227.975 553.592 230.232 549.165 Q232.518 544.709 232.518 535.826 Q232.518 526.914 230.232 522.487 Q227.975 518.031 223.432 518.031 M223.432 513.402 Q230.695 513.402 234.514 519.16 Q238.363 524.889 238.363 535.826 Q238.363 546.735 234.514 552.493 Q230.695 558.222 223.432 558.222 Q216.169 558.222 212.321 552.493 Q208.502 546.735 208.502 535.826 Q208.502 524.889 212.321 519.16 Q216.169 513.402 223.432 513.402 Z" fill="#000000" fill-rule="nonzero" fill-opacity="1" /><path clip-path="url(#clip810)" d="M130.435 283.157 Q125.921 283.157 123.635 287.613 Q121.378 292.04 121.378 300.952 Q121.378 309.835 123.635 314.291 Q125.921 318.718 130.435 318.718 Q134.978 318.718 137.235 314.291 Q139.52 309.835 139.52 300.952 Q139.52 292.04 137.235 287.613 Q134.978 283.157 130.435 283.157 M130.435 278.527 Q137.698 278.527 141.517 284.285 Q145.365 290.014 145.365 300.952 Q145.365 311.86 141.517 317.618 Q137.698 323.348 130.435 323.348 Q123.172 323.348 119.324 317.618 Q115.504 311.86 115.504 300.952 Q115.504 290.014 119.324 284.285 Q123.172 278.527 130.435 278.527 Z" fill="#000000" fill-rule="nonzero" fill-opacity="1" /><path clip-path="url(#clip810)" d="M155.637 315.159 L161.743 315.159 L161.743 322.508 L155.637 322.508 L155.637 315.159 Z" fill="#000000" fill-rule="nonzero" fill-opacity="1" /><path clip-path="url(#clip810)" d="M172.998 279.308 L200.776 279.308 L200.776 281.797 L185.093 322.508 L178.988 322.508 L193.745 284.227 L172.998 284.227 L172.998 279.308 Z" fill="#000000" fill-rule="nonzero" fill-opacity="1" /><path clip-path="url(#clip810)" d="M212.234 279.308 L235.18 279.308 L235.18 284.227 L217.587 284.227 L217.587 294.818 Q218.86 294.384 220.133 294.181 Q221.407 293.95 222.68 293.95 Q229.913 293.95 234.138 297.914 Q238.363 301.878 238.363 308.649 Q238.363 315.622 234.022 319.499 Q229.682 323.348 221.783 323.348 Q219.063 323.348 216.227 322.885 Q213.421 322.422 210.411 321.496 L210.411 315.622 Q213.015 317.04 215.793 317.734 Q218.571 318.429 221.667 318.429 Q226.673 318.429 229.595 315.796 Q232.518 313.162 232.518 308.649 Q232.518 304.135 229.595 301.502 Q226.673 298.869 221.667 298.869 Q219.323 298.869 216.98 299.389 Q214.665 299.91 212.234 301.01 L212.234 279.308 Z" fill="#000000" fill-rule="nonzero" fill-opacity="1" /><path clip-path="url(#clip810)" d="M117.703 82.7151 L127.252 82.7151 L127.252 49.7581 L116.864 51.8414 L116.864 46.5174 L127.194 44.434 L133.039 44.434 L133.039 82.7151 L142.588 82.7151 L142.588 87.634 L117.703 87.634 L117.703 82.7151 Z" fill="#000000" fill-rule="nonzero" fill-opacity="1" /><path clip-path="url(#clip810)" d="M154.393 80.2846 L160.498 80.2846 L160.498 87.634 L154.393 87.634 L154.393 80.2846 Z" fill="#000000" fill-rule="nonzero" fill-opacity="1" /><path clip-path="url(#clip810)" d="M185.73 48.2824 Q181.216 48.2824 178.93 52.7384 Q176.673 57.1655 176.673 66.0775 Q176.673 74.9605 178.93 79.4165 Q181.216 83.8436 185.73 83.8436 Q190.272 83.8436 192.529 79.4165 Q194.815 74.9605 194.815 66.0775 Q194.815 57.1655 192.529 52.7384 Q190.272 48.2824 185.73 48.2824 M185.73 43.6528 Q192.992 43.6528 196.812 49.4109 Q200.66 55.14 200.66 66.0775 Q200.66 76.986 196.812 82.744 Q192.992 88.4732 185.73 88.4732 Q178.467 88.4732 174.619 82.744 Q170.799 76.986 170.799 66.0775 Q170.799 55.14 174.619 49.4109 Q178.467 43.6528 185.73 43.6528 Z" fill="#000000" fill-rule="nonzero" fill-opacity="1" /><path clip-path="url(#clip810)" d="M223.432 48.2824 Q218.918 48.2824 216.632 52.7384 Q214.375 57.1655 214.375 66.0775 Q214.375 74.9605 216.632 79.4165 Q218.918 83.8436 223.432 83.8436 Q227.975 83.8436 230.232 79.4165 Q232.518 74.9605 232.518 66.0775 Q232.518 57.1655 230.232 52.7384 Q227.975 48.2824 223.432 48.2824 M223.432 43.6528 Q230.695 43.6528 234.514 49.4109 Q238.363 55.14 238.363 66.0775 Q238.363 76.986 234.514 82.744 Q230.695 88.4732 223.432 88.4732 Q216.169 88.4732 212.321 82.744 Q208.502 76.986 208.502 66.0775 Q208.502 55.14 212.321 49.4109 Q216.169 43.6528 223.432 43.6528 Z" fill="#000000" fill-rule="nonzero" fill-opacity="1" /><path clip-path="url(#clip810)" d="M41.3104 1032.46 L58.7206 1032.46 L58.7206 1022.15 Q58.7206 1016.96 56.5881 1014.48 Q54.4238 1011.96 49.9996 1011.96 Q45.5436 1011.96 43.4429 1014.48 Q41.3104 1016.96 41.3104 1022.15 L41.3104 1032.46 M21.7677 1032.46 L36.0905 1032.46 L36.0905 1022.94 Q36.0905 1018.23 34.34 1015.94 Q32.5576 1013.62 28.9291 1013.62 Q25.3325 1013.62 23.5501 1015.94 Q21.7677 1018.23 21.7677 1022.94 L21.7677 1032.46 M16.4842 1038.89 L16.4842 1022.47 Q16.4842 1015.12 19.5397 1011.14 Q22.5952 1007.16 28.2289 1007.16 Q32.5894 1007.16 35.1675 1009.19 Q37.7456 1011.23 38.3822 1015.18 Q39.4007 1010.44 42.6472 1007.83 Q45.8619 1005.18 50.6998 1005.18 Q57.0655 1005.18 60.5348 1009.51 Q64.0042 1013.84 64.0042 1021.83 L64.0042 1038.89 L16.4842 1038.89 Z" fill="#000000" fill-rule="nonzero" fill-opacity="1" /><path clip-path="url(#clip810)" d="M46.0847 978.226 Q46.0847 985.324 47.7079 988.061 Q49.3312 990.798 53.2461 990.798 Q56.3653 990.798 58.2114 988.761 Q60.0256 986.692 60.0256 983.159 Q60.0256 978.289 56.5881 975.361 Q53.1188 972.401 47.3897 972.401 L46.0847 972.401 L46.0847 978.226 M43.6657 966.545 L64.0042 966.545 L64.0042 972.401 L58.5933 972.401 Q61.8398 974.406 63.3994 977.398 Q64.9272 980.39 64.9272 984.719 Q64.9272 990.193 61.8716 993.44 Q58.7843 996.654 53.6281 996.654 Q47.6125 996.654 44.5569 992.644 Q41.5014 988.602 41.5014 980.613 L41.5014 972.401 L40.9285 972.401 Q36.8862 972.401 34.6901 975.075 Q32.4621 977.717 32.4621 982.523 Q32.4621 985.578 33.1941 988.475 Q33.9262 991.371 35.3903 994.045 L29.9795 994.045 Q28.7381 990.83 28.1334 987.806 Q27.4968 984.782 27.4968 981.918 Q27.4968 974.184 31.5072 970.364 Q35.5176 966.545 43.6657 966.545 Z" fill="#000000" fill-rule="nonzero" fill-opacity="1" /><path clip-path="url(#clip810)" d="M29.7248 928.828 L35.1993 928.828 Q33.8307 931.311 33.1623 933.825 Q32.4621 936.308 32.4621 938.854 Q32.4621 944.551 36.0905 947.702 Q39.6872 950.853 46.212 950.853 Q52.7369 950.853 56.3653 947.702 Q59.9619 944.551 59.9619 938.854 Q59.9619 936.308 59.2935 933.825 Q58.5933 931.311 57.2247 928.828 L62.6355 928.828 Q63.7814 931.279 64.3543 933.92 Q64.9272 936.53 64.9272 939.49 Q64.9272 947.543 59.8664 952.286 Q54.8057 957.028 46.212 957.028 Q37.491 957.028 32.4939 952.254 Q27.4968 947.448 27.4968 939.108 Q27.4968 936.403 28.0697 933.825 Q28.6108 931.247 29.7248 928.828 Z" fill="#000000" fill-rule="nonzero" fill-opacity="1" /><path clip-path="url(#clip810)" d="M18.2347 912.85 L28.3562 912.85 L28.3562 900.787 L32.9077 900.787 L32.9077 912.85 L52.2594 912.85 Q56.6199 912.85 57.8613 911.672 Q59.1026 910.463 59.1026 906.803 L59.1026 900.787 L64.0042 900.787 L64.0042 906.803 Q64.0042 913.582 61.4897 916.16 Q58.9434 918.738 52.2594 918.738 L32.9077 918.738 L32.9077 923.035 L28.3562 923.035 L28.3562 918.738 L18.2347 918.738 L18.2347 912.85 Z" fill="#000000" fill-rule="nonzero" fill-opacity="1" /><path clip-path="url(#clip810)" d="M44.7161 862.593 L47.5806 862.593 L47.5806 889.52 Q53.6281 889.138 56.8109 885.891 Q59.9619 882.613 59.9619 876.788 Q59.9619 873.414 59.1344 870.263 Q58.3069 867.081 56.6518 863.961 L62.1899 863.961 Q63.5267 867.112 64.227 870.423 Q64.9272 873.733 64.9272 877.138 Q64.9272 885.668 59.9619 890.665 Q54.9967 895.631 46.5303 895.631 Q37.7774 895.631 32.6531 890.92 Q27.4968 886.178 27.4968 878.157 Q27.4968 870.964 32.1438 866.794 Q36.7589 862.593 44.7161 862.593 M42.9973 868.449 Q38.1912 868.513 35.3266 871.155 Q32.4621 873.765 32.4621 878.093 Q32.4621 882.995 35.2312 885.955 Q38.0002 888.883 43.0292 889.329 L42.9973 868.449 Z" fill="#000000" fill-rule="nonzero" fill-opacity="1" /><path clip-path="url(#clip810)" d="M33.8307 832.324 Q33.2578 833.31 33.0032 834.488 Q32.7167 835.634 32.7167 837.034 Q32.7167 842 35.9632 844.673 Q39.1779 847.315 45.2253 847.315 L64.0042 847.315 L64.0042 853.203 L28.3562 853.203 L28.3562 847.315 L33.8944 847.315 Q30.6479 845.469 29.0883 842.509 Q27.4968 839.549 27.4968 835.316 Q27.4968 834.711 27.5923 833.979 Q27.656 833.247 27.8151 832.356 L33.8307 832.324 Z" fill="#000000" fill-rule="nonzero" fill-opacity="1" /><path clip-path="url(#clip810)" d="M28.3562 826.181 L28.3562 820.324 L64.0042 820.324 L64.0042 826.181 L28.3562 826.181 M14.479 826.181 L14.479 820.324 L21.895 820.324 L21.895 826.181 L14.479 826.181 Z" fill="#000000" fill-rule="nonzero" fill-opacity="1" /><path clip-path="url(#clip810)" d="M46.0847 791.87 Q46.0847 798.967 47.7079 801.705 Q49.3312 804.442 53.2461 804.442 Q56.3653 804.442 58.2114 802.405 Q60.0256 800.336 60.0256 796.803 Q60.0256 791.933 56.5881 789.005 Q53.1188 786.045 47.3897 786.045 L46.0847 786.045 L46.0847 791.87 M43.6657 780.189 L64.0042 780.189 L64.0042 786.045 L58.5933 786.045 Q61.8398 788.05 63.3994 791.042 Q64.9272 794.034 64.9272 798.363 Q64.9272 803.837 61.8716 807.084 Q58.7843 810.298 53.6281 810.298 Q47.6125 810.298 44.5569 806.288 Q41.5014 802.246 41.5014 794.257 L41.5014 786.045 L40.9285 786.045 Q36.8862 786.045 34.6901 788.719 Q32.4621 791.36 32.4621 796.167 Q32.4621 799.222 33.1941 802.118 Q33.9262 805.015 35.3903 807.688 L29.9795 807.688 Q28.7381 804.474 28.1334 801.45 Q27.4968 798.426 27.4968 795.562 Q27.4968 787.827 31.5072 784.008 Q35.5176 780.189 43.6657 780.189 Z" fill="#000000" fill-rule="nonzero" fill-opacity="1" /><path clip-path="url(#clip810)" d="M29.4065 745.4 L34.9447 745.4 Q33.6716 747.883 33.035 750.556 Q32.3984 753.23 32.3984 756.094 Q32.3984 760.455 33.7352 762.651 Q35.072 764.815 37.7456 764.815 Q39.7826 764.815 40.9603 763.256 Q42.1061 761.696 43.1565 756.986 L43.6021 754.98 Q44.9389 748.742 47.3897 746.132 Q49.8086 743.49 54.1691 743.49 Q59.1344 743.49 62.0308 747.437 Q64.9272 751.352 64.9272 758.227 Q64.9272 761.092 64.3543 764.211 Q63.8132 767.298 62.6992 770.736 L56.6518 770.736 Q58.3387 767.489 59.198 764.338 Q60.0256 761.187 60.0256 758.1 Q60.0256 753.962 58.6251 751.734 Q57.1929 749.506 54.6147 749.506 Q52.2276 749.506 50.9545 751.129 Q49.6813 752.721 48.5037 758.163 L48.0262 760.2 Q46.8804 765.643 44.5251 768.062 Q42.138 770.481 38.0002 770.481 Q32.9713 770.481 30.2341 766.916 Q27.4968 763.351 27.4968 756.795 Q27.4968 753.548 27.9743 750.684 Q28.4517 747.819 29.4065 745.4 Z" fill="#000000" fill-rule="nonzero" fill-opacity="1" /><path clip-path="url(#clip810)" d="M14.479 713.444 L14.479 707.588 L64.0042 707.588 L64.0042 713.444 L14.479 713.444 Z" fill="#000000" fill-rule="nonzero" fill-opacity="1" /><path clip-path="url(#clip810)" d="M28.3562 695.334 L28.3562 689.477 L64.0042 689.477 L64.0042 695.334 L28.3562 695.334 M14.479 695.334 L14.479 689.477 L21.895 689.477 L21.895 695.334 L14.479 695.334 Z" fill="#000000" fill-rule="nonzero" fill-opacity="1" /><path clip-path="url(#clip810)" d="M46.212 651.633 Q39.7508 651.633 36.0905 654.307 Q32.3984 656.949 32.3984 661.596 Q32.3984 666.242 36.0905 668.916 Q39.7508 671.558 46.212 671.558 Q52.6732 671.558 56.3653 668.916 Q60.0256 666.242 60.0256 661.596 Q60.0256 656.949 56.3653 654.307 Q52.6732 651.633 46.212 651.633 M33.7671 671.558 Q30.5842 669.712 29.0564 666.911 Q27.4968 664.078 27.4968 660.163 Q27.4968 653.67 32.6531 649.628 Q37.8093 645.554 46.212 645.554 Q54.6147 645.554 59.771 649.628 Q64.9272 653.67 64.9272 660.163 Q64.9272 664.078 63.3994 666.911 Q61.8398 669.712 58.657 671.558 L64.0042 671.558 L64.0042 677.446 L14.479 677.446 L14.479 671.558 L33.7671 671.558 Z" fill="#000000" fill-rule="nonzero" fill-opacity="1" /><path clip-path="url(#clip810)" d="M33.8307 615.19 Q33.2578 616.176 33.0032 617.354 Q32.7167 618.5 32.7167 619.9 Q32.7167 624.865 35.9632 627.539 Q39.1779 630.181 45.2253 630.181 L64.0042 630.181 L64.0042 636.069 L28.3562 636.069 L28.3562 630.181 L33.8944 630.181 Q30.6479 628.335 29.0883 625.375 Q27.4968 622.415 27.4968 618.181 Q27.4968 617.577 27.5923 616.845 Q27.656 616.113 27.8151 615.221 L33.8307 615.19 Z" fill="#000000" fill-rule="nonzero" fill-opacity="1" /><path clip-path="url(#clip810)" d="M44.7161 579.987 L47.5806 579.987 L47.5806 606.914 Q53.6281 606.532 56.8109 603.286 Q59.9619 600.007 59.9619 594.183 Q59.9619 590.809 59.1344 587.658 Q58.3069 584.475 56.6518 581.356 L62.1899 581.356 Q63.5267 584.507 64.227 587.817 Q64.9272 591.127 64.9272 594.533 Q64.9272 603.063 59.9619 608.06 Q54.9967 613.025 46.5303 613.025 Q37.7774 613.025 32.6531 608.315 Q27.4968 603.572 27.4968 595.551 Q27.4968 588.358 32.1438 584.189 Q36.7589 579.987 44.7161 579.987 M42.9973 585.844 Q38.1912 585.907 35.3266 588.549 Q32.4621 591.159 32.4621 595.488 Q32.4621 600.389 35.2312 603.349 Q38.0002 606.278 43.0292 606.723 L42.9973 585.844 Z" fill="#000000" fill-rule="nonzero" fill-opacity="1" /><path clip-path="url(#clip810)" d="M29.4065 547.649 L34.9447 547.649 Q33.6716 550.132 33.035 552.806 Q32.3984 555.479 32.3984 558.344 Q32.3984 562.704 33.7352 564.9 Q35.072 567.065 37.7456 567.065 Q39.7826 567.065 40.9603 565.505 Q42.1061 563.946 43.1565 559.235 L43.6021 557.23 Q44.9389 550.991 47.3897 548.381 Q49.8086 545.74 54.1691 545.74 Q59.1344 545.74 62.0308 549.686 Q64.9272 553.601 64.9272 560.476 Q64.9272 563.341 64.3543 566.46 Q63.8132 569.547 62.6992 572.985 L56.6518 572.985 Q58.3387 569.738 59.198 566.587 Q60.0256 563.436 60.0256 560.349 Q60.0256 556.211 58.6251 553.983 Q57.1929 551.755 54.6147 551.755 Q52.2276 551.755 50.9545 553.379 Q49.6813 554.97 48.5037 560.413 L48.0262 562.45 Q46.8804 567.892 44.5251 570.311 Q42.138 572.73 38.0002 572.73 Q32.9713 572.73 30.2341 569.165 Q27.4968 565.601 27.4968 559.044 Q27.4968 555.797 27.9743 552.933 Q28.4517 550.068 29.4065 547.649 Z" fill="#000000" fill-rule="nonzero" fill-opacity="1" /><path clip-path="url(#clip810)" d="M14.5426 501.625 Q21.8632 505.89 29.0246 507.959 Q36.186 510.028 43.5384 510.028 Q50.8908 510.028 58.1159 507.959 Q65.3091 505.859 72.5979 501.625 L72.5979 506.718 Q65.1182 511.492 57.8931 513.879 Q50.668 516.235 43.5384 516.235 Q36.4406 516.235 29.2474 513.879 Q22.0542 511.524 14.5426 506.718 L14.5426 501.625 Z" fill="#000000" fill-rule="nonzero" fill-opacity="1" /><path clip-path="url(#clip810)" d="M16.4842 490.008 L16.4842 481.351 L56.238 460.28 L16.4842 460.28 L16.4842 454.042 L64.0042 454.042 L64.0042 462.699 L24.2503 483.769 L64.0042 483.769 L64.0042 490.008 L16.4842 490.008 Z" fill="#000000" fill-rule="nonzero" fill-opacity="1" /><path clip-path="url(#clip810)" d="M32.4621 427.688 Q32.4621 432.398 36.1542 435.136 Q39.8145 437.873 46.212 437.873 Q52.6095 437.873 56.3017 435.167 Q59.9619 432.43 59.9619 427.688 Q59.9619 423.009 56.2698 420.272 Q52.5777 417.534 46.212 417.534 Q39.8781 417.534 36.186 420.272 Q32.4621 423.009 32.4621 427.688 M27.4968 427.688 Q27.4968 420.049 32.4621 415.688 Q37.4273 411.328 46.212 411.328 Q54.9649 411.328 59.9619 415.688 Q64.9272 420.049 64.9272 427.688 Q64.9272 435.358 59.9619 439.719 Q54.9649 444.047 46.212 444.047 Q37.4273 444.047 32.4621 439.719 Q27.4968 435.358 27.4968 427.688 Z" fill="#000000" fill-rule="nonzero" fill-opacity="1" /><path clip-path="url(#clip810)" d="M33.8307 380.963 Q33.2578 381.95 33.0032 383.128 Q32.7167 384.274 32.7167 385.674 Q32.7167 390.639 35.9632 393.313 Q39.1779 395.955 45.2253 395.955 L64.0042 395.955 L64.0042 401.843 L28.3562 401.843 L28.3562 395.955 L33.8944 395.955 Q30.6479 394.109 29.0883 391.148 Q27.4968 388.188 27.4968 383.955 Q27.4968 383.35 27.5923 382.618 Q27.656 381.886 27.8151 380.995 L33.8307 380.963 Z" fill="#000000" fill-rule="nonzero" fill-opacity="1" /><path clip-path="url(#clip810)" d="M35.1993 348.212 Q31.2526 346.016 29.3747 342.96 Q27.4968 339.905 27.4968 335.767 Q27.4968 330.197 31.4117 327.173 Q35.2948 324.149 42.4881 324.149 L64.0042 324.149 L64.0042 330.038 L42.679 330.038 Q37.5546 330.038 35.072 331.852 Q32.5894 333.666 32.5894 337.39 Q32.5894 341.942 35.6131 344.583 Q38.6368 347.225 43.8567 347.225 L64.0042 347.225 L64.0042 353.113 L42.679 353.113 Q37.5228 353.113 35.072 354.928 Q32.5894 356.742 32.5894 360.529 Q32.5894 365.017 35.6449 367.659 Q38.6686 370.301 43.8567 370.301 L64.0042 370.301 L64.0042 376.189 L28.3562 376.189 L28.3562 370.301 L33.8944 370.301 Q30.616 368.296 29.0564 365.495 Q27.4968 362.694 27.4968 358.843 Q27.4968 354.959 29.4702 352.254 Q31.4436 349.517 35.1993 348.212 Z" fill="#000000" fill-rule="nonzero" fill-opacity="1" /><path clip-path="url(#clip810)" d="M46.0847 296.268 Q46.0847 303.365 47.7079 306.103 Q49.3312 308.84 53.2461 308.84 Q56.3653 308.84 58.2114 306.803 Q60.0256 304.734 60.0256 301.201 Q60.0256 296.331 56.5881 293.403 Q53.1188 290.443 47.3897 290.443 L46.0847 290.443 L46.0847 296.268 M43.6657 284.587 L64.0042 284.587 L64.0042 290.443 L58.5933 290.443 Q61.8398 292.448 63.3994 295.44 Q64.9272 298.432 64.9272 302.761 Q64.9272 308.235 61.8716 311.482 Q58.7843 314.696 53.6281 314.696 Q47.6125 314.696 44.5569 310.686 Q41.5014 306.644 41.5014 298.655 L41.5014 290.443 L40.9285 290.443 Q36.8862 290.443 34.6901 293.117 Q32.4621 295.758 32.4621 300.564 Q32.4621 303.62 33.1941 306.516 Q33.9262 309.413 35.3903 312.086 L29.9795 312.086 Q28.7381 308.872 28.1334 305.848 Q27.4968 302.824 27.4968 299.96 Q27.4968 292.225 31.5072 288.406 Q35.5176 284.587 43.6657 284.587 Z" fill="#000000" fill-rule="nonzero" fill-opacity="1" /><path clip-path="url(#clip810)" d="M14.479 272.524 L14.479 266.667 L64.0042 266.667 L64.0042 272.524 L14.479 272.524 Z" fill="#000000" fill-rule="nonzero" fill-opacity="1" /><path clip-path="url(#clip810)" d="M28.3562 254.413 L28.3562 248.557 L64.0042 248.557 L64.0042 254.413 L28.3562 254.413 M14.479 254.413 L14.479 248.557 L21.895 248.557 L21.895 254.413 L14.479 254.413 Z" fill="#000000" fill-rule="nonzero" fill-opacity="1" /><path clip-path="url(#clip810)" d="M28.3562 238.849 L28.3562 211.031 L33.7034 211.031 L59.3254 233.056 L59.3254 211.031 L64.0042 211.031 L64.0042 239.645 L58.657 239.645 L33.035 217.619 L33.035 238.849 L28.3562 238.849 Z" fill="#000000" fill-rule="nonzero" fill-opacity="1" /><path clip-path="url(#clip810)" d="M46.0847 185.886 Q46.0847 192.984 47.7079 195.721 Q49.3312 198.459 53.2461 198.459 Q56.3653 198.459 58.2114 196.422 Q60.0256 194.353 60.0256 190.82 Q60.0256 185.95 56.5881 183.022 Q53.1188 180.062 47.3897 180.062 L46.0847 180.062 L46.0847 185.886 M43.6657 174.205 L64.0042 174.205 L64.0042 180.062 L58.5933 180.062 Q61.8398 182.067 63.3994 185.059 Q64.9272 188.051 64.9272 192.379 Q64.9272 197.854 61.8716 201.1 Q58.7843 204.315 53.6281 204.315 Q47.6125 204.315 44.5569 200.305 Q41.5014 196.262 41.5014 188.273 L41.5014 180.062 L40.9285 180.062 Q36.8862 180.062 34.6901 182.735 Q32.4621 185.377 32.4621 190.183 Q32.4621 193.239 33.1941 196.135 Q33.9262 199.031 35.3903 201.705 L29.9795 201.705 Q28.7381 198.49 28.1334 195.467 Q27.4968 192.443 27.4968 189.578 Q27.4968 181.844 31.5072 178.025 Q35.5176 174.205 43.6657 174.205 Z" fill="#000000" fill-rule="nonzero" fill-opacity="1" /><path clip-path="url(#clip810)" d="M33.7671 138.685 L14.479 138.685 L14.479 132.828 L64.0042 132.828 L64.0042 138.685 L58.657 138.685 Q61.8398 140.531 63.3994 143.363 Q64.9272 146.164 64.9272 150.111 Q64.9272 156.572 59.771 160.646 Q54.6147 164.688 46.212 164.688 Q37.8093 164.688 32.6531 160.646 Q27.4968 156.572 27.4968 150.111 Q27.4968 146.164 29.0564 143.363 Q30.5842 140.531 33.7671 138.685 M46.212 158.641 Q52.6732 158.641 56.3653 155.999 Q60.0256 153.326 60.0256 148.679 Q60.0256 144.032 56.3653 141.358 Q52.6732 138.685 46.212 138.685 Q39.7508 138.685 36.0905 141.358 Q32.3984 144.032 32.3984 148.679 Q32.3984 153.326 36.0905 155.999 Q39.7508 158.641 46.212 158.641 Z" fill="#000000" fill-rule="nonzero" fill-opacity="1" /><path clip-path="url(#clip810)" d="M46.0847 104.564 Q46.0847 111.662 47.7079 114.399 Q49.3312 117.137 53.2461 117.137 Q56.3653 117.137 58.2114 115.1 Q60.0256 113.031 60.0256 109.498 Q60.0256 104.628 56.5881 101.7 Q53.1188 98.7397 47.3897 98.7397 L46.0847 98.7397 L46.0847 104.564 M43.6657 92.8833 L64.0042 92.8833 L64.0042 98.7397 L58.5933 98.7397 Q61.8398 100.745 63.3994 103.737 Q64.9272 106.729 64.9272 111.057 Q64.9272 116.532 61.8716 119.778 Q58.7843 122.993 53.6281 122.993 Q47.6125 122.993 44.5569 118.983 Q41.5014 114.94 41.5014 106.951 L41.5014 98.7397 L40.9285 98.7397 Q36.8862 98.7397 34.6901 101.413 Q32.4621 104.055 32.4621 108.861 Q32.4621 111.917 33.1941 114.813 Q33.9262 117.71 35.3903 120.383 L29.9795 120.383 Q28.7381 117.168 28.1334 114.145 Q27.4968 111.121 27.4968 108.256 Q27.4968 100.522 31.5072 96.7027 Q35.5176 92.8833 43.6657 92.8833 Z" fill="#000000" fill-rule="nonzero" fill-opacity="1" /><path clip-path="url(#clip810)" d="M29.4065 58.0947 L34.9447 58.0947 Q33.6716 60.5773 33.035 63.2509 Q32.3984 65.9245 32.3984 68.7891 Q32.3984 73.1496 33.7352 75.3458 Q35.072 77.5101 37.7456 77.5101 Q39.7826 77.5101 40.9603 75.9505 Q42.1061 74.3909 43.1565 69.6803 L43.6021 67.6751 Q44.9389 61.4367 47.3897 58.8268 Q49.8086 56.185 54.1691 56.185 Q59.1344 56.185 62.0308 60.1317 Q64.9272 64.0466 64.9272 70.9216 Q64.9272 73.7862 64.3543 76.9054 Q63.8132 79.9927 62.6992 83.4302 L56.6518 83.4302 Q58.3387 80.1837 59.198 77.0327 Q60.0256 73.8816 60.0256 70.7943 Q60.0256 66.6566 58.6251 64.4286 Q57.1929 62.2006 54.6147 62.2006 Q52.2276 62.2006 50.9545 63.8238 Q49.6813 65.4153 48.5037 70.8579 L48.0262 72.895 Q46.8804 78.3376 44.5251 80.7566 Q42.138 83.1756 38.0002 83.1756 Q32.9713 83.1756 30.2341 79.6108 Q27.4968 76.046 27.4968 69.4893 Q27.4968 66.2428 27.9743 63.3782 Q28.4517 60.5137 29.4065 58.0947 Z" fill="#000000" fill-rule="nonzero" fill-opacity="1" /><path clip-path="url(#clip810)" d="M14.5426 47.7823 L14.5426 42.6897 Q22.0542 37.9154 29.2474 35.5601 Q36.4406 33.173 43.5384 33.173 Q50.668 33.173 57.8931 35.5601 Q65.1182 37.9154 72.5979 42.6897 L72.5979 47.7823 Q65.3091 43.5491 58.1159 41.4802 Q50.8908 39.3795 43.5384 39.3795 Q36.186 39.3795 29.0246 41.4802 Q21.8632 43.5491 14.5426 47.7823 Z" fill="#000000" fill-rule="nonzero" fill-opacity="1" /><path clip-path="url(#clip810)" d="M55.9197 20.6007 L55.9197 13.8849 L64.0042 13.8849 L64.0042 20.6007 L55.9197 20.6007 Z" fill="#000000" fill-rule="nonzero" fill-opacity="1" /><polyline clip-path="url(#clip812)" style="stroke:#008000; stroke-linecap:round; stroke-linejoin:round; stroke-width:12; stroke-opacity:1; fill:none" points="274.363,152.315 295.356,93.9511 316.35,82.9827 337.344,81.6031 358.338,82.0651 379.332,82.9272 400.326,83.933 421.32,85.0448 442.313,86.2676 463.307,87.616 484.301,89.1097 505.295,90.773 526.289,92.6364 547.283,94.7381 568.277,97.127 589.271,99.8665 610.264,103.041 631.258,106.764 652.252,111.197 673.246,116.567 694.24,123.22 715.234,131.7 736.228,142.927 757.222,158.596 778.215,182.291 799.209,223.382 820.203,320.53 841.197,1005.53 862.191,1005.53 883.185,1005.53 904.179,1005.53 925.173,1005.53 946.166,1005.53 967.16,1005.53 988.154,1005.53 1009.15,1005.53 1030.14,1005.53 1051.14,1005.53 1072.13,1005.53 1093.12,1005.53 1114.12,1005.53 1135.11,1005.53 1156.11,1005.53 1177.1,1005.53 1198.09,1005.53 1219.09,1005.53 1240.08,1005.53 1261.07,1005.53 1282.07,1005.53 1303.06,1005.53 1324.06,1005.53 1345.05,1005.53 1366.04,1005.53 1387.04,1005.53 1408.03,1005.53 1429.03,1005.53 1450.02,1005.53 1471.01,1005.53 1492.01,1005.53 1513,1005.53 1533.99,1005.53 1554.99,1005.53 1575.98,1005.53 1596.98,1005.53 1617.97,1005.53 1638.96,1005.53 1659.96,1005.53 1680.95,1005.53 1701.95,1005.53 1722.94,1005.53 1743.93,1005.53 1764.93,1005.53 1785.92,1005.53 1806.92,1005.53 1827.91,1005.53 1848.9,1005.53 1869.9,1005.53 1890.89,1005.53 1911.88,1005.53 1932.88,1005.53 1953.87,1005.53 1974.87,1005.53 1995.86,1005.53 2016.85,1005.53 2037.85,1005.53 2058.84,1005.53 2079.84,1005.53 2100.83,1005.53 2121.82,1005.53 2142.82,1005.53 2163.81,1005.53 2184.8,1005.53 2205.8,1005.53 2226.79,1005.53 2247.79,1005.53 2268.78,1005.53 2289.77,1005.53 2310.77,1005.53 2331.76,1005.53 2352.76,1005.53 "/>
<polyline clip-path="url(#clip812)" style="stroke:#800080; stroke-linecap:round; stroke-linejoin:round; stroke-width:9.6; stroke-opacity:0.6; fill:none" stroke-dasharray="38, 24" points="868.189,1963.82 868.189,-911.044 "/>
<path clip-path="url(#clip810)" d="M274.363 1414.54 L2352.76 1414.54 L2352.76 1174.97 L274.363 1174.97  Z" fill="#ffffff" fill-rule="evenodd" fill-opacity="1"/>
<defs>
  <clipPath id="clip813">
    <rect x="274" y="1174" width="2079" height="241"/>
  </clipPath>
</defs>
<polyline clip-path="url(#clip813)" style="stroke:#000000; stroke-linecap:round; stroke-linejoin:round; stroke-width:2; stroke-opacity:0.1; fill:none" points="274.363,1414.54 274.363,1174.97 "/>
<polyline clip-path="url(#clip813)" style="stroke:#000000; stroke-linecap:round; stroke-linejoin:round; stroke-width:2; stroke-opacity:0.1; fill:none" points="571.276,1414.54 571.276,1174.97 "/>
<polyline clip-path="url(#clip813)" style="stroke:#000000; stroke-linecap:round; stroke-linejoin:round; stroke-width:2; stroke-opacity:0.1; fill:none" points="868.189,1414.54 868.189,1174.97 "/>
<polyline clip-path="url(#clip813)" style="stroke:#000000; stroke-linecap:round; stroke-linejoin:round; stroke-width:2; stroke-opacity:0.1; fill:none" points="1165.1,1414.54 1165.1,1174.97 "/>
<polyline clip-path="url(#clip813)" style="stroke:#000000; stroke-linecap:round; stroke-linejoin:round; stroke-width:2; stroke-opacity:0.1; fill:none" points="1462.02,1414.54 1462.02,1174.97 "/>
<polyline clip-path="url(#clip813)" style="stroke:#000000; stroke-linecap:round; stroke-linejoin:round; stroke-width:2; stroke-opacity:0.1; fill:none" points="1758.93,1414.54 1758.93,1174.97 "/>
<polyline clip-path="url(#clip813)" style="stroke:#000000; stroke-linecap:round; stroke-linejoin:round; stroke-width:2; stroke-opacity:0.1; fill:none" points="2055.84,1414.54 2055.84,1174.97 "/>
<polyline clip-path="url(#clip813)" style="stroke:#000000; stroke-linecap:round; stroke-linejoin:round; stroke-width:2; stroke-opacity:0.1; fill:none" points="2352.76,1414.54 2352.76,1174.97 "/>
<polyline clip-path="url(#clip810)" style="stroke:#000000; stroke-linecap:round; stroke-linejoin:round; stroke-width:4; stroke-opacity:1; fill:none" points="274.363,1414.54 2352.76,1414.54 "/>
<polyline clip-path="url(#clip810)" style="stroke:#000000; stroke-linecap:round; stroke-linejoin:round; stroke-width:4; stroke-opacity:1; fill:none" points="274.363,1414.54 274.363,1395.64 "/>
<polyline clip-path="url(#clip810)" style="stroke:#000000; stroke-linecap:round; stroke-linejoin:round; stroke-width:4; stroke-opacity:1; fill:none" points="571.276,1414.54 571.276,1395.64 "/>
<polyline clip-path="url(#clip810)" style="stroke:#000000; stroke-linecap:round; stroke-linejoin:round; stroke-width:4; stroke-opacity:1; fill:none" points="868.189,1414.54 868.189,1395.64 "/>
<polyline clip-path="url(#clip810)" style="stroke:#000000; stroke-linecap:round; stroke-linejoin:round; stroke-width:4; stroke-opacity:1; fill:none" points="1165.1,1414.54 1165.1,1395.64 "/>
<polyline clip-path="url(#clip810)" style="stroke:#000000; stroke-linecap:round; stroke-linejoin:round; stroke-width:4; stroke-opacity:1; fill:none" points="1462.02,1414.54 1462.02,1395.64 "/>
<polyline clip-path="url(#clip810)" style="stroke:#000000; stroke-linecap:round; stroke-linejoin:round; stroke-width:4; stroke-opacity:1; fill:none" points="1758.93,1414.54 1758.93,1395.64 "/>
<polyline clip-path="url(#clip810)" style="stroke:#000000; stroke-linecap:round; stroke-linejoin:round; stroke-width:4; stroke-opacity:1; fill:none" points="2055.84,1414.54 2055.84,1395.64 "/>
<polyline clip-path="url(#clip810)" style="stroke:#000000; stroke-linecap:round; stroke-linejoin:round; stroke-width:4; stroke-opacity:1; fill:none" points="2352.76,1414.54 2352.76,1395.64 "/>
<path clip-path="url(#clip810)" d="M274.363 1448.39 Q269.849 1448.39 267.563 1452.84 Q265.306 1457.27 265.306 1466.18 Q265.306 1475.07 267.563 1479.52 Q269.849 1483.95 274.363 1483.95 Q278.905 1483.95 281.162 1479.52 Q283.448 1475.07 283.448 1466.18 Q283.448 1457.27 281.162 1452.84 Q278.905 1448.39 274.363 1448.39 M274.363 1443.76 Q281.625 1443.76 285.445 1449.52 Q289.293 1455.25 289.293 1466.18 Q289.293 1477.09 285.445 1482.85 Q281.625 1488.58 274.363 1488.58 Q267.1 1488.58 263.251 1482.85 Q259.432 1477.09 259.432 1466.18 Q259.432 1455.25 263.251 1449.52 Q267.1 1443.76 274.363 1443.76 Z" fill="#000000" fill-rule="nonzero" fill-opacity="1" /><path clip-path="url(#clip810)" d="M539.635 1482.82 L549.184 1482.82 L549.184 1449.86 L538.796 1451.95 L538.796 1446.62 L549.126 1444.54 L554.971 1444.54 L554.971 1482.82 L564.52 1482.82 L564.52 1487.74 L539.635 1487.74 L539.635 1482.82 Z" fill="#000000" fill-rule="nonzero" fill-opacity="1" /><path clip-path="url(#clip810)" d="M588.825 1448.39 Q584.311 1448.39 582.025 1452.84 Q579.768 1457.27 579.768 1466.18 Q579.768 1475.07 582.025 1479.52 Q584.311 1483.95 588.825 1483.95 Q593.368 1483.95 595.625 1479.52 Q597.911 1475.07 597.911 1466.18 Q597.911 1457.27 595.625 1452.84 Q593.368 1448.39 588.825 1448.39 M588.825 1443.76 Q596.088 1443.76 599.907 1449.52 Q603.755 1455.25 603.755 1466.18 Q603.755 1477.09 599.907 1482.85 Q596.088 1488.58 588.825 1488.58 Q581.562 1488.58 577.714 1482.85 Q573.894 1477.09 573.894 1466.18 Q573.894 1455.25 577.714 1449.52 Q581.562 1443.76 588.825 1443.76 Z" fill="#000000" fill-rule="nonzero" fill-opacity="1" /><path clip-path="url(#clip810)" d="M841.656 1482.82 L862.055 1482.82 L862.055 1487.74 L834.625 1487.74 L834.625 1482.82 Q837.952 1479.38 843.681 1473.59 Q849.439 1467.77 850.915 1466.1 Q853.722 1462.94 854.821 1460.77 Q855.95 1458.57 855.95 1456.46 Q855.95 1453.02 853.519 1450.85 Q851.118 1448.68 847.24 1448.68 Q844.491 1448.68 841.424 1449.63 Q838.386 1450.59 834.914 1452.53 L834.914 1446.62 Q838.444 1445.21 841.511 1444.48 Q844.578 1443.76 847.124 1443.76 Q853.837 1443.76 857.83 1447.12 Q861.823 1450.47 861.823 1456.08 Q861.823 1458.75 860.811 1461.15 Q859.827 1463.52 857.194 1466.76 Q856.471 1467.6 852.593 1471.62 Q848.716 1475.62 841.656 1482.82 Z" fill="#000000" fill-rule="nonzero" fill-opacity="1" /><path clip-path="url(#clip810)" d="M886.823 1448.39 Q882.309 1448.39 880.024 1452.84 Q877.767 1457.27 877.767 1466.18 Q877.767 1475.07 880.024 1479.52 Q882.309 1483.95 886.823 1483.95 Q891.366 1483.95 893.623 1479.52 Q895.909 1475.07 895.909 1466.18 Q895.909 1457.27 893.623 1452.84 Q891.366 1448.39 886.823 1448.39 M886.823 1443.76 Q894.086 1443.76 897.905 1449.52 Q901.754 1455.25 901.754 1466.18 Q901.754 1477.09 897.905 1482.85 Q894.086 1488.58 886.823 1488.58 Q879.561 1488.58 875.712 1482.85 Q871.893 1477.09 871.893 1466.18 Q871.893 1455.25 875.712 1449.52 Q879.561 1443.76 886.823 1443.76 Z" fill="#000000" fill-rule="nonzero" fill-opacity="1" /><path clip-path="url(#clip810)" d="M1151.16 1464.45 Q1155.35 1465.34 1157.7 1468.18 Q1160.07 1471.02 1160.07 1475.18 Q1160.07 1481.58 1155.67 1485.08 Q1151.27 1488.58 1143.17 1488.58 Q1140.45 1488.58 1137.56 1488.03 Q1134.69 1487.51 1131.62 1486.44 L1131.62 1480.8 Q1134.06 1482.21 1136.95 1482.94 Q1139.84 1483.66 1143 1483.66 Q1148.49 1483.66 1151.36 1481.49 Q1154.25 1479.32 1154.25 1475.18 Q1154.25 1471.36 1151.56 1469.22 Q1148.9 1467.05 1144.12 1467.05 L1139.09 1467.05 L1139.09 1462.25 L1144.36 1462.25 Q1148.67 1462.25 1150.95 1460.54 Q1153.24 1458.8 1153.24 1455.56 Q1153.24 1452.24 1150.87 1450.47 Q1148.52 1448.68 1144.12 1448.68 Q1141.72 1448.68 1138.97 1449.2 Q1136.23 1449.72 1132.93 1450.82 L1132.93 1445.61 Q1136.25 1444.68 1139.15 1444.22 Q1142.07 1443.76 1144.65 1443.76 Q1151.3 1443.76 1155.18 1446.8 Q1159.06 1449.81 1159.06 1454.96 Q1159.06 1458.54 1157 1461.03 Q1154.95 1463.49 1151.16 1464.45 Z" fill="#000000" fill-rule="nonzero" fill-opacity="1" /><path clip-path="url(#clip810)" d="M1183.65 1448.39 Q1179.14 1448.39 1176.85 1452.84 Q1174.59 1457.27 1174.59 1466.18 Q1174.59 1475.07 1176.85 1479.52 Q1179.14 1483.95 1183.65 1483.95 Q1188.19 1483.95 1190.45 1479.52 Q1192.74 1475.07 1192.74 1466.18 Q1192.74 1457.27 1190.45 1452.84 Q1188.19 1448.39 1183.65 1448.39 M1183.65 1443.76 Q1190.91 1443.76 1194.73 1449.52 Q1198.58 1455.25 1198.58 1466.18 Q1198.58 1477.09 1194.73 1482.85 Q1190.91 1488.58 1183.65 1488.58 Q1176.39 1488.58 1172.54 1482.85 Q1168.72 1477.09 1168.72 1466.18 Q1168.72 1455.25 1172.54 1449.52 Q1176.39 1443.76 1183.65 1443.76 Z" fill="#000000" fill-rule="nonzero" fill-opacity="1" /><path clip-path="url(#clip810)" d="M1447.23 1449.63 L1432.47 1472.69 L1447.23 1472.69 L1447.23 1449.63 M1445.7 1444.54 L1453.05 1444.54 L1453.05 1472.69 L1459.21 1472.69 L1459.21 1477.55 L1453.05 1477.55 L1453.05 1487.74 L1447.23 1487.74 L1447.23 1477.55 L1427.73 1477.55 L1427.73 1471.91 L1445.7 1444.54 Z" fill="#000000" fill-rule="nonzero" fill-opacity="1" /><path clip-path="url(#clip810)" d="M1481.37 1448.39 Q1476.86 1448.39 1474.57 1452.84 Q1472.32 1457.27 1472.32 1466.18 Q1472.32 1475.07 1474.57 1479.52 Q1476.86 1483.95 1481.37 1483.95 Q1485.92 1483.95 1488.17 1479.52 Q1490.46 1475.07 1490.46 1466.18 Q1490.46 1457.27 1488.17 1452.84 Q1485.92 1448.39 1481.37 1448.39 M1481.37 1443.76 Q1488.64 1443.76 1492.46 1449.52 Q1496.3 1455.25 1496.3 1466.18 Q1496.3 1477.09 1492.46 1482.85 Q1488.64 1488.58 1481.37 1488.58 Q1474.11 1488.58 1470.26 1482.85 Q1466.44 1477.09 1466.44 1466.18 Q1466.44 1455.25 1470.26 1449.52 Q1474.11 1443.76 1481.37 1443.76 Z" fill="#000000" fill-rule="nonzero" fill-opacity="1" /><path clip-path="url(#clip810)" d="M1727.3 1444.54 L1750.25 1444.54 L1750.25 1449.46 L1732.66 1449.46 L1732.66 1460.05 Q1733.93 1459.61 1735.2 1459.41 Q1736.48 1459.18 1737.75 1459.18 Q1744.98 1459.18 1749.21 1463.15 Q1753.43 1467.11 1753.43 1473.88 Q1753.43 1480.85 1749.09 1484.73 Q1744.75 1488.58 1736.85 1488.58 Q1734.13 1488.58 1731.3 1488.12 Q1728.49 1487.65 1725.48 1486.73 L1725.48 1480.85 Q1728.08 1482.27 1730.86 1482.97 Q1733.64 1483.66 1736.74 1483.66 Q1741.74 1483.66 1744.66 1481.03 Q1747.59 1478.39 1747.59 1473.88 Q1747.59 1469.37 1744.66 1466.73 Q1741.74 1464.1 1736.74 1464.1 Q1734.39 1464.1 1732.05 1464.62 Q1729.73 1465.14 1727.3 1466.24 L1727.3 1444.54 Z" fill="#000000" fill-rule="nonzero" fill-opacity="1" /><path clip-path="url(#clip810)" d="M1777.45 1448.39 Q1772.93 1448.39 1770.65 1452.84 Q1768.39 1457.27 1768.39 1466.18 Q1768.39 1475.07 1770.65 1479.52 Q1772.93 1483.95 1777.45 1483.95 Q1781.99 1483.95 1784.25 1479.52 Q1786.53 1475.07 1786.53 1466.18 Q1786.53 1457.27 1784.25 1452.84 Q1781.99 1448.39 1777.45 1448.39 M1777.45 1443.76 Q1784.71 1443.76 1788.53 1449.52 Q1792.38 1455.25 1792.38 1466.18 Q1792.38 1477.09 1788.53 1482.85 Q1784.71 1488.58 1777.45 1488.58 Q1770.18 1488.58 1766.34 1482.85 Q1762.52 1477.09 1762.52 1466.18 Q1762.52 1455.25 1766.34 1449.52 Q1770.18 1443.76 1777.45 1443.76 Z" fill="#000000" fill-rule="nonzero" fill-opacity="1" /><path clip-path="url(#clip810)" d="M2037.6 1463.81 Q2033.66 1463.81 2031.35 1466.5 Q2029.06 1469.19 2029.06 1473.88 Q2029.06 1478.54 2031.35 1481.26 Q2033.66 1483.95 2037.6 1483.95 Q2041.53 1483.95 2043.82 1481.26 Q2046.13 1478.54 2046.13 1473.88 Q2046.13 1469.19 2043.82 1466.5 Q2041.53 1463.81 2037.6 1463.81 M2049.2 1445.49 L2049.2 1450.82 Q2047 1449.78 2044.75 1449.23 Q2042.52 1448.68 2040.32 1448.68 Q2034.53 1448.68 2031.46 1452.58 Q2028.43 1456.49 2027.99 1464.39 Q2029.7 1461.87 2032.27 1460.54 Q2034.85 1459.18 2037.95 1459.18 Q2044.46 1459.18 2048.22 1463.15 Q2052.01 1467.08 2052.01 1473.88 Q2052.01 1480.54 2048.07 1484.56 Q2044.14 1488.58 2037.6 1488.58 Q2030.1 1488.58 2026.14 1482.85 Q2022.18 1477.09 2022.18 1466.18 Q2022.18 1455.94 2027.04 1449.86 Q2031.9 1443.76 2040.09 1443.76 Q2042.29 1443.76 2044.51 1444.19 Q2046.77 1444.63 2049.2 1445.49 Z" fill="#000000" fill-rule="nonzero" fill-opacity="1" /><path clip-path="url(#clip810)" d="M2074.58 1448.39 Q2070.06 1448.39 2067.78 1452.84 Q2065.52 1457.27 2065.52 1466.18 Q2065.52 1475.07 2067.78 1479.52 Q2070.06 1483.95 2074.58 1483.95 Q2079.12 1483.95 2081.38 1479.52 Q2083.66 1475.07 2083.66 1466.18 Q2083.66 1457.27 2081.38 1452.84 Q2079.12 1448.39 2074.58 1448.39 M2074.58 1443.76 Q2081.84 1443.76 2085.66 1449.52 Q2089.51 1455.25 2089.51 1466.18 Q2089.51 1477.09 2085.66 1482.85 Q2081.84 1488.58 2074.58 1488.58 Q2067.32 1488.58 2063.47 1482.85 Q2059.65 1477.09 2059.65 1466.18 Q2059.65 1455.25 2063.47 1449.52 Q2067.32 1443.76 2074.58 1443.76 Z" fill="#000000" fill-rule="nonzero" fill-opacity="1" /><path clip-path="url(#clip810)" d="M2319.45 1444.54 L2347.23 1444.54 L2347.23 1447.03 L2331.55 1487.74 L2325.44 1487.74 L2340.2 1449.46 L2319.45 1449.46 L2319.45 1444.54 Z" fill="#000000" fill-rule="nonzero" fill-opacity="1" /><path clip-path="url(#clip810)" d="M2371.13 1448.39 Q2366.62 1448.39 2364.33 1452.84 Q2362.07 1457.27 2362.07 1466.18 Q2362.07 1475.07 2364.33 1479.52 Q2366.62 1483.95 2371.13 1483.95 Q2375.67 1483.95 2377.93 1479.52 Q2380.22 1475.07 2380.22 1466.18 Q2380.22 1457.27 2377.93 1452.84 Q2375.67 1448.39 2371.13 1448.39 M2371.13 1443.76 Q2378.39 1443.76 2382.21 1449.52 Q2386.06 1455.25 2386.06 1466.18 Q2386.06 1477.09 2382.21 1482.85 Q2378.39 1488.58 2371.13 1488.58 Q2363.87 1488.58 2360.02 1482.85 Q2356.2 1477.09 2356.2 1466.18 Q2356.2 1455.25 2360.02 1449.52 Q2363.87 1443.76 2371.13 1443.76 Z" fill="#000000" fill-rule="nonzero" fill-opacity="1" /><path clip-path="url(#clip810)" d="M1186.8 1524.84 L1227 1524.84 L1227 1530.25 L1210.13 1530.25 L1210.13 1572.36 L1203.67 1572.36 L1203.67 1530.25 L1186.8 1530.25 L1186.8 1524.84 Z" fill="#000000" fill-rule="nonzero" fill-opacity="1" /><path clip-path="url(#clip810)" d="M1230.95 1536.72 L1236.8 1536.72 L1236.8 1572.36 L1230.95 1572.36 L1230.95 1536.72 M1230.95 1522.84 L1236.8 1522.84 L1236.8 1530.25 L1230.95 1530.25 L1230.95 1522.84 Z" fill="#000000" fill-rule="nonzero" fill-opacity="1" /><path clip-path="url(#clip810)" d="M1279.55 1553.08 L1279.55 1555.94 L1252.62 1555.94 Q1253.01 1561.99 1256.25 1565.17 Q1259.53 1568.32 1265.35 1568.32 Q1268.73 1568.32 1271.88 1567.49 Q1275.06 1566.67 1278.18 1565.01 L1278.18 1570.55 Q1275.03 1571.89 1271.72 1572.59 Q1268.41 1573.29 1265 1573.29 Q1256.47 1573.29 1251.48 1568.32 Q1246.51 1563.36 1246.51 1554.89 Q1246.51 1546.14 1251.22 1541.01 Q1255.97 1535.86 1263.99 1535.86 Q1271.18 1535.86 1275.35 1540.5 Q1279.55 1545.12 1279.55 1553.08 M1273.69 1551.36 Q1273.63 1546.55 1270.99 1543.69 Q1268.38 1540.82 1264.05 1540.82 Q1259.15 1540.82 1256.19 1543.59 Q1253.26 1546.36 1252.81 1551.39 L1273.69 1551.36 Z" fill="#000000" fill-rule="nonzero" fill-opacity="1" /><path clip-path="url(#clip810)" d="M1316.92 1543.56 Q1319.11 1539.61 1322.17 1537.73 Q1325.22 1535.86 1329.36 1535.86 Q1334.93 1535.86 1337.96 1539.77 Q1340.98 1543.65 1340.98 1550.85 L1340.98 1572.36 L1335.09 1572.36 L1335.09 1551.04 Q1335.09 1545.91 1333.28 1543.43 Q1331.46 1540.95 1327.74 1540.95 Q1323.19 1540.95 1320.55 1543.97 Q1317.9 1547 1317.9 1552.22 L1317.9 1572.36 L1312.02 1572.36 L1312.02 1551.04 Q1312.02 1545.88 1310.2 1543.43 Q1308.39 1540.95 1304.6 1540.95 Q1300.11 1540.95 1297.47 1544 Q1294.83 1547.03 1294.83 1552.22 L1294.83 1572.36 L1288.94 1572.36 L1288.94 1536.72 L1294.83 1536.72 L1294.83 1542.25 Q1296.83 1538.98 1299.63 1537.42 Q1302.44 1535.86 1306.29 1535.86 Q1310.17 1535.86 1312.87 1537.83 Q1315.61 1539.8 1316.92 1543.56 Z" fill="#000000" fill-rule="nonzero" fill-opacity="1" /><path clip-path="url(#clip810)" d="M1358.33 1567.02 L1358.33 1585.92 L1352.44 1585.92 L1352.44 1536.72 L1358.33 1536.72 L1358.33 1542.13 Q1360.17 1538.94 1362.97 1537.42 Q1365.81 1535.86 1369.72 1535.86 Q1376.21 1535.86 1380.26 1541.01 Q1384.33 1546.17 1384.33 1554.57 Q1384.33 1562.97 1380.26 1568.13 Q1376.21 1573.29 1369.72 1573.29 Q1365.81 1573.29 1362.97 1571.76 Q1360.17 1570.2 1358.33 1567.02 M1378.25 1554.57 Q1378.25 1548.11 1375.58 1544.45 Q1372.94 1540.76 1368.29 1540.76 Q1363.64 1540.76 1360.97 1544.45 Q1358.33 1548.11 1358.33 1554.57 Q1358.33 1561.03 1360.97 1564.72 Q1363.64 1568.39 1368.29 1568.39 Q1372.94 1568.39 1375.58 1564.72 Q1378.25 1561.03 1378.25 1554.57 Z" fill="#000000" fill-rule="nonzero" fill-opacity="1" /><path clip-path="url(#clip810)" d="M1407.85 1540.82 Q1403.14 1540.82 1400.4 1544.51 Q1397.67 1548.17 1397.67 1554.57 Q1397.67 1560.97 1400.37 1564.66 Q1403.11 1568.32 1407.85 1568.32 Q1412.53 1568.32 1415.27 1564.63 Q1418 1560.94 1418 1554.57 Q1418 1548.24 1415.27 1544.55 Q1412.53 1540.82 1407.85 1540.82 M1407.85 1535.86 Q1415.49 1535.86 1419.85 1540.82 Q1424.21 1545.79 1424.21 1554.57 Q1424.21 1563.32 1419.85 1568.32 Q1415.49 1573.29 1407.85 1573.29 Q1400.18 1573.29 1395.82 1568.32 Q1391.49 1563.32 1391.49 1554.57 Q1391.49 1545.79 1395.82 1540.82 Q1400.18 1535.86 1407.85 1535.86 Z" fill="#000000" fill-rule="nonzero" fill-opacity="1" /><path clip-path="url(#clip810)" d="M1433.6 1564.28 L1440.32 1564.28 L1440.32 1572.36 L1433.6 1572.36 L1433.6 1564.28 Z" fill="#000000" fill-rule="nonzero" fill-opacity="1" /><polyline clip-path="url(#clip813)" style="stroke:#000000; stroke-linecap:round; stroke-linejoin:round; stroke-width:2; stroke-opacity:0.1; fill:none" points="274.363,396.777 2352.76,396.777 "/>
<polyline clip-path="url(#clip813)" style="stroke:#000000; stroke-linecap:round; stroke-linejoin:round; stroke-width:2; stroke-opacity:0.1; fill:none" points="274.363,1181.75 2352.76,1181.75 "/>
<polyline clip-path="url(#clip810)" style="stroke:#000000; stroke-linecap:round; stroke-linejoin:round; stroke-width:4; stroke-opacity:1; fill:none" points="274.363,1414.54 274.363,1174.97 "/>
<polyline clip-path="url(#clip810)" style="stroke:#000000; stroke-linecap:round; stroke-linejoin:round; stroke-width:4; stroke-opacity:1; fill:none" points="274.363,396.777 293.26,396.777 "/>
<polyline clip-path="url(#clip810)" style="stroke:#000000; stroke-linecap:round; stroke-linejoin:round; stroke-width:4; stroke-opacity:1; fill:none" points="274.363,1181.75 293.26,1181.75 "/>
<path clip-path="url(#clip810)" d="M223.432 379.026 Q218.918 379.026 216.632 383.482 Q214.375 387.909 214.375 396.821 Q214.375 405.704 216.632 410.16 Q218.918 414.587 223.432 414.587 Q227.975 414.587 230.232 410.16 Q232.518 405.704 232.518 396.821 Q232.518 387.909 230.232 383.482 Q227.975 379.026 223.432 379.026 M223.432 374.396 Q230.695 374.396 234.514 380.154 Q238.363 385.883 238.363 396.821 Q238.363 407.729 234.514 413.487 Q230.695 419.216 223.432 419.216 Q216.169 419.216 212.321 413.487 Q208.502 407.729 208.502 396.821 Q208.502 385.883 212.321 380.154 Q216.169 374.396 223.432 374.396 Z" fill="#000000" fill-rule="nonzero" fill-opacity="1" /><path clip-path="url(#clip810)" d="M205.101 1182.69 Q205.101 1186.18 203.491 1189.63 Q201.881 1193.08 199.246 1195.72 Q196.64 1198.33 193.068 1199.97 Q189.526 1201.6 185.895 1201.6 Q185.251 1201.6 183.933 1201.46 Q181.884 1212.26 181.825 1212.44 Q181.562 1213.05 181.035 1213.43 Q180.537 1213.81 180.186 1213.9 Q179.835 1213.99 179.6 1213.99 Q179.015 1213.99 178.429 1213.58 Q177.873 1213.2 177.873 1212.32 Q177.873 1212.12 178.166 1211.12 L181.357 1201.05 Q176.526 1199.94 173.745 1196.86 Q170.963 1193.76 170.963 1189.54 Q170.963 1186.85 172.193 1183.34 Q173.423 1179.82 174.916 1177.45 Q176.409 1175.08 177.258 1175.08 Q177.99 1175.08 177.99 1175.69 Q177.99 1175.93 177.522 1176.45 Q175.15 1179.18 173.833 1183.1 Q172.544 1186.99 172.544 1188.87 Q172.544 1192.15 175.062 1194.52 Q177.609 1196.86 182.382 1197.74 Q185.222 1188.55 186.92 1184.68 Q190.345 1177.01 194.796 1175.14 Q196.435 1174.43 198.25 1174.43 Q201.53 1174.43 203.316 1176.75 Q205.101 1179.03 205.101 1182.69 M203.403 1184.01 Q203.403 1182.46 202.847 1181.14 Q202.32 1179.82 200.973 1178.88 Q199.626 1177.92 197.665 1177.92 Q193.742 1177.92 190.462 1181.7 Q187.183 1185.47 185.778 1191.33 L184.578 1197.83 Q184.578 1198.06 185.368 1198.06 Q185.837 1198.12 186.451 1198.12 Q189.789 1198.12 192.951 1196.86 Q196.142 1195.6 198.397 1193.61 Q200.651 1191.62 202.027 1189.07 Q203.403 1186.53 203.403 1184.01 Z" fill="#000000" fill-rule="nonzero" fill-opacity="1" /><path clip-path="url(#clip810)" d="M211.176 1162.3 Q211.176 1161.59 212.139 1161.12 L217.98 1158.35 L212.057 1155.58 Q211.176 1155.17 211.176 1154.45 Q211.176 1154.04 211.504 1153.68 Q211.852 1153.29 212.303 1153.29 Q212.631 1153.29 213.225 1153.74 L218.431 1157.51 Q217.796 1150.58 217.816 1150.38 Q217.816 1149.97 218.123 1149.66 Q218.431 1149.33 218.943 1149.33 Q219.353 1149.33 219.681 1149.64 Q220.029 1149.93 220.029 1150.38 L219.415 1157.51 L224.067 1154.07 Q225.153 1153.27 225.543 1153.29 Q226.014 1153.29 226.342 1153.66 Q226.67 1154.02 226.67 1154.45 Q226.67 1155.17 225.706 1155.62 L219.866 1158.39 L225.788 1161.18 Q226.67 1161.59 226.67 1162.3 Q226.67 1162.71 226.321 1163.1 Q225.993 1163.47 225.543 1163.47 Q225.297 1163.47 224.866 1163.23 Q224.784 1163.19 223.903 1162.53 Q223.022 1161.87 221.649 1160.87 Q220.296 1159.87 219.415 1159.23 Q220.05 1166.16 220.029 1166.36 Q220.029 1166.77 219.722 1167.1 Q219.415 1167.43 218.902 1167.43 Q218.492 1167.43 218.144 1167.14 Q217.816 1166.83 217.816 1166.36 L218.431 1159.23 L212.569 1163.47 Q211.934 1163.47 211.586 1163.16 Q211.258 1162.84 211.217 1162.65 Q211.176 1162.47 211.176 1162.3 Z" fill="#000000" fill-rule="nonzero" fill-opacity="1" /><path clip-path="url(#clip810)" d="M18.5393 1427.75 L18.5393 1387.55 L23.9501 1387.55 L23.9501 1404.42 L66.0593 1404.42 L66.0593 1410.88 L23.9501 1410.88 L23.9501 1427.75 L18.5393 1427.75 Z" fill="#000000" fill-rule="nonzero" fill-opacity="1" /><path clip-path="url(#clip810)" d="M48.1398 1376.19 Q48.1398 1383.28 49.7631 1386.02 Q51.3863 1388.76 55.3012 1388.76 Q58.4204 1388.76 60.2665 1386.72 Q62.0807 1384.65 62.0807 1381.12 Q62.0807 1376.25 58.6432 1373.32 Q55.1739 1370.36 49.4448 1370.36 L48.1398 1370.36 L48.1398 1376.19 M45.7209 1364.51 L66.0593 1364.51 L66.0593 1370.36 L60.6484 1370.36 Q63.8949 1372.37 65.4545 1375.36 Q66.9823 1378.35 66.9823 1382.68 Q66.9823 1388.15 63.9268 1391.4 Q60.8394 1394.62 55.6832 1394.62 Q49.6676 1394.62 46.612 1390.61 Q43.5565 1386.56 43.5565 1378.57 L43.5565 1370.36 L42.9836 1370.36 Q38.9414 1370.36 36.7452 1373.04 Q34.5172 1375.68 34.5172 1380.48 Q34.5172 1383.54 35.2493 1386.44 Q35.9813 1389.33 37.4454 1392.01 L32.0346 1392.01 Q30.7933 1388.79 30.1885 1385.77 Q29.552 1382.74 29.552 1379.88 Q29.552 1372.14 33.5624 1368.33 Q37.5727 1364.51 45.7209 1364.51 Z" fill="#000000" fill-rule="nonzero" fill-opacity="1" /><path clip-path="url(#clip810)" d="M31.4617 1329.72 L36.9998 1329.72 Q35.7267 1332.2 35.0901 1334.87 Q34.4535 1337.55 34.4535 1340.41 Q34.4535 1344.77 35.7903 1346.97 Q37.1271 1349.13 39.8007 1349.13 Q41.8378 1349.13 43.0154 1347.57 Q44.1613 1346.01 45.2116 1341.3 L45.6572 1339.3 Q46.994 1333.06 49.4448 1330.45 Q51.8638 1327.81 56.2243 1327.81 Q61.1895 1327.81 64.0859 1331.75 Q66.9823 1335.67 66.9823 1342.54 Q66.9823 1345.41 66.4094 1348.53 Q65.8683 1351.62 64.7543 1355.05 L58.7069 1355.05 Q60.3938 1351.81 61.2532 1348.66 Q62.0807 1345.5 62.0807 1342.42 Q62.0807 1338.28 60.6803 1336.05 Q59.248 1333.82 56.6699 1333.82 Q54.2827 1333.82 53.0096 1335.45 Q51.7364 1337.04 50.5588 1342.48 L50.0814 1344.52 Q48.9355 1349.96 46.5802 1352.38 Q44.1931 1354.8 40.0554 1354.8 Q35.0265 1354.8 32.2892 1351.23 Q29.552 1347.67 29.552 1341.11 Q29.552 1337.87 30.0294 1335 Q30.5068 1332.14 31.4617 1329.72 Z" fill="#000000" fill-rule="nonzero" fill-opacity="1" /><path clip-path="url(#clip810)" d="M48.1398 1302.28 Q48.1398 1309.38 49.7631 1312.12 Q51.3863 1314.85 55.3012 1314.85 Q58.4204 1314.85 60.2665 1312.82 Q62.0807 1310.75 62.0807 1307.21 Q62.0807 1302.34 58.6432 1299.42 Q55.1739 1296.46 49.4448 1296.46 L48.1398 1296.46 L48.1398 1302.28 M45.7209 1290.6 L66.0593 1290.6 L66.0593 1296.46 L60.6484 1296.46 Q63.8949 1298.46 65.4545 1301.45 Q66.9823 1304.45 66.9823 1308.77 Q66.9823 1314.25 63.9268 1317.5 Q60.8394 1320.71 55.6832 1320.71 Q49.6676 1320.71 46.612 1316.7 Q43.5565 1312.66 43.5565 1304.67 L43.5565 1296.46 L42.9836 1296.46 Q38.9414 1296.46 36.7452 1299.13 Q34.5172 1301.77 34.5172 1306.58 Q34.5172 1309.63 35.2493 1312.53 Q35.9813 1315.43 37.4454 1318.1 L32.0346 1318.1 Q30.7933 1314.89 30.1885 1311.86 Q29.552 1308.84 29.552 1305.97 Q29.552 1298.24 33.5624 1294.42 Q37.5727 1290.6 45.7209 1290.6 Z" fill="#000000" fill-rule="nonzero" fill-opacity="1" /><path clip-path="url(#clip810)" d="M35.8222 1234.36 L16.5341 1234.36 L16.5341 1228.5 L66.0593 1228.5 L66.0593 1234.36 L60.7121 1234.36 Q63.8949 1236.21 65.4545 1239.04 Q66.9823 1241.84 66.9823 1245.79 Q66.9823 1252.25 61.8261 1256.32 Q56.6699 1260.36 48.2671 1260.36 Q39.8644 1260.36 34.7082 1256.32 Q29.552 1252.25 29.552 1245.79 Q29.552 1241.84 31.1116 1239.04 Q32.6393 1236.21 35.8222 1234.36 M48.2671 1254.32 Q54.7283 1254.32 58.4204 1251.67 Q62.0807 1249 62.0807 1244.35 Q62.0807 1239.71 58.4204 1237.03 Q54.7283 1234.36 48.2671 1234.36 Q41.8059 1234.36 38.1457 1237.03 Q34.4535 1239.71 34.4535 1244.35 Q34.4535 1249 38.1457 1251.67 Q41.8059 1254.32 48.2671 1254.32 Z" fill="#000000" fill-rule="nonzero" fill-opacity="1" /><path clip-path="url(#clip810)" d="M46.7712 1185.95 L49.6358 1185.95 L49.6358 1212.87 Q55.6832 1212.49 58.866 1209.25 Q62.0171 1205.97 62.0171 1200.14 Q62.0171 1196.77 61.1895 1193.62 Q60.362 1190.44 58.7069 1187.32 L64.2451 1187.32 Q65.5819 1190.47 66.2821 1193.78 Q66.9823 1197.09 66.9823 1200.49 Q66.9823 1209.02 62.0171 1214.02 Q57.0518 1218.99 48.5854 1218.99 Q39.8326 1218.99 34.7082 1214.28 Q29.552 1209.53 29.552 1201.51 Q29.552 1194.32 34.1989 1190.15 Q38.8141 1185.95 46.7712 1185.95 M45.0525 1191.8 Q40.2463 1191.87 37.3818 1194.51 Q34.5172 1197.12 34.5172 1201.45 Q34.5172 1206.35 37.2863 1209.31 Q40.0554 1212.24 45.0843 1212.68 L45.0525 1191.8 Z" fill="#000000" fill-rule="nonzero" fill-opacity="1" /><path clip-path="url(#clip810)" d="M87.8141 1441.83 L92.6839 1441.83 L92.6839 1447.44 Q92.6839 1450.59 93.957 1451.83 Q95.2301 1453.04 98.5403 1453.04 L101.691 1453.04 L101.691 1443.39 L106.243 1443.39 L106.243 1453.04 L137.339 1453.04 L137.339 1458.93 L106.243 1458.93 L106.243 1464.53 L101.691 1464.53 L101.691 1458.93 L99.2087 1458.93 Q93.2568 1458.93 90.5513 1456.16 Q87.8141 1453.39 87.8141 1447.37 L87.8141 1441.83 Z" fill="#000000" fill-rule="nonzero" fill-opacity="1" /><path clip-path="url(#clip810)" d="M119.42 1420.73 Q119.42 1427.83 121.043 1430.57 Q122.666 1433.3 126.581 1433.3 Q129.7 1433.3 131.546 1431.27 Q133.361 1429.2 133.361 1425.66 Q133.361 1420.79 129.923 1417.87 Q126.454 1414.91 120.725 1414.91 L119.42 1414.91 L119.42 1420.73 M117.001 1409.05 L137.339 1409.05 L137.339 1414.91 L131.928 1414.91 Q135.175 1416.91 136.735 1419.9 Q138.262 1422.9 138.262 1427.22 Q138.262 1432.7 135.207 1435.95 Q132.119 1439.16 126.963 1439.16 Q120.948 1439.16 117.892 1435.15 Q114.837 1431.11 114.837 1423.12 L114.837 1414.91 L114.264 1414.91 Q110.221 1414.91 108.025 1417.58 Q105.797 1420.22 105.797 1425.03 Q105.797 1428.08 106.529 1430.98 Q107.261 1433.88 108.725 1436.55 L103.315 1436.55 Q102.073 1433.34 101.469 1430.31 Q100.832 1427.29 100.832 1424.42 Q100.832 1416.69 104.842 1412.87 Q108.853 1409.05 117.001 1409.05 Z" fill="#000000" fill-rule="nonzero" fill-opacity="1" /><path clip-path="url(#clip810)" d="M119.102 1373.53 Q112.736 1373.53 109.235 1376.17 Q105.734 1378.78 105.734 1383.52 Q105.734 1388.23 109.235 1390.88 Q112.736 1393.49 119.102 1393.49 Q125.435 1393.49 128.937 1390.88 Q132.438 1388.23 132.438 1383.52 Q132.438 1378.78 128.937 1376.17 Q125.435 1373.53 119.102 1373.53 M132.915 1367.67 Q142.018 1367.67 146.442 1371.72 Q150.898 1375.76 150.898 1384.1 Q150.898 1387.18 150.421 1389.92 Q149.975 1392.66 149.02 1395.24 L143.323 1395.24 Q144.724 1392.66 145.392 1390.14 Q146.06 1387.63 146.06 1385.02 Q146.06 1379.26 143.037 1376.39 Q140.045 1373.53 133.965 1373.53 L131.069 1373.53 Q134.22 1375.34 135.78 1378.18 Q137.339 1381.01 137.339 1384.96 Q137.339 1391.51 132.342 1395.52 Q127.345 1399.53 119.102 1399.53 Q110.826 1399.53 105.829 1395.52 Q100.832 1391.51 100.832 1384.96 Q100.832 1381.01 102.392 1378.18 Q103.951 1375.34 107.102 1373.53 L101.691 1373.53 L101.691 1367.67 L132.915 1367.67 Z" fill="#000000" fill-rule="nonzero" fill-opacity="1" /><path clip-path="url(#clip810)" d="M105.797 1341.8 Q105.797 1346.51 109.489 1349.24 Q113.15 1351.98 119.547 1351.98 Q125.945 1351.98 129.637 1349.28 Q133.297 1346.54 133.297 1341.8 Q133.297 1337.12 129.605 1334.38 Q125.913 1331.64 119.547 1331.64 Q113.213 1331.64 109.521 1334.38 Q105.797 1337.12 105.797 1341.8 M100.832 1341.8 Q100.832 1334.16 105.797 1329.8 Q110.762 1325.44 119.547 1325.44 Q128.3 1325.44 133.297 1329.8 Q138.262 1334.16 138.262 1341.8 Q138.262 1349.47 133.297 1353.83 Q128.3 1358.16 119.547 1358.16 Q110.762 1358.16 105.797 1353.83 Q100.832 1349.47 100.832 1341.8 Z" fill="#000000" fill-rule="nonzero" fill-opacity="1" /><path clip-path="url(#clip810)" d="M103.06 1290.08 L108.534 1290.08 Q107.166 1292.56 106.497 1295.07 Q105.797 1297.55 105.797 1300.1 Q105.797 1305.8 109.426 1308.95 Q113.022 1312.1 119.547 1312.1 Q126.072 1312.1 129.7 1308.95 Q133.297 1305.8 133.297 1300.1 Q133.297 1297.55 132.629 1295.07 Q131.928 1292.56 130.56 1290.08 L135.971 1290.08 Q137.116 1292.53 137.689 1295.17 Q138.262 1297.78 138.262 1300.74 Q138.262 1308.79 133.202 1313.53 Q128.141 1318.28 119.547 1318.28 Q110.826 1318.28 105.829 1313.5 Q100.832 1308.69 100.832 1300.36 Q100.832 1297.65 101.405 1295.07 Q101.946 1292.49 103.06 1290.08 Z" fill="#000000" fill-rule="nonzero" fill-opacity="1" /><path clip-path="url(#clip810)" d="M101.691 1279.89 L101.691 1274.03 L137.339 1274.03 L137.339 1279.89 L101.691 1279.89 M87.8141 1279.89 L87.8141 1274.03 L95.2301 1274.03 L95.2301 1279.89 L87.8141 1279.89 Z" fill="#000000" fill-rule="nonzero" fill-opacity="1" /><path clip-path="url(#clip810)" d="M91.5699 1255.99 L101.691 1255.99 L101.691 1243.92 L106.243 1243.92 L106.243 1255.99 L125.595 1255.99 Q129.955 1255.99 131.196 1254.81 Q132.438 1253.6 132.438 1249.94 L132.438 1243.92 L137.339 1243.92 L137.339 1249.94 Q137.339 1256.72 134.825 1259.3 Q132.279 1261.88 125.595 1261.88 L106.243 1261.88 L106.243 1266.17 L101.691 1266.17 L101.691 1261.88 L91.5699 1261.88 L91.5699 1255.99 Z" fill="#000000" fill-rule="nonzero" fill-opacity="1" /><path clip-path="url(#clip810)" d="M105.797 1222.41 Q105.797 1227.12 109.489 1229.86 Q113.15 1232.59 119.547 1232.59 Q125.945 1232.59 129.637 1229.89 Q133.297 1227.15 133.297 1222.41 Q133.297 1217.73 129.605 1214.99 Q125.913 1212.25 119.547 1212.25 Q113.213 1212.25 109.521 1214.99 Q105.797 1217.73 105.797 1222.41 M100.832 1222.41 Q100.832 1214.77 105.797 1210.41 Q110.762 1206.05 119.547 1206.05 Q128.3 1206.05 133.297 1210.41 Q138.262 1214.77 138.262 1222.41 Q138.262 1230.08 133.297 1234.44 Q128.3 1238.77 119.547 1238.77 Q110.762 1238.77 105.797 1234.44 Q100.832 1230.08 100.832 1222.41 Z" fill="#000000" fill-rule="nonzero" fill-opacity="1" /><path clip-path="url(#clip810)" d="M102.742 1173.61 L108.28 1173.61 Q107.007 1176.1 106.37 1178.77 Q105.734 1181.44 105.734 1184.31 Q105.734 1188.67 107.07 1190.87 Q108.407 1193.03 111.081 1193.03 Q113.118 1193.03 114.295 1191.47 Q115.441 1189.91 116.492 1185.2 L116.937 1183.19 Q118.274 1176.96 120.725 1174.35 Q123.144 1171.7 127.504 1171.7 Q132.47 1171.7 135.366 1175.65 Q138.262 1179.57 138.262 1186.44 Q138.262 1189.31 137.689 1192.43 Q137.148 1195.51 136.034 1198.95 L129.987 1198.95 Q131.674 1195.7 132.533 1192.55 Q133.361 1189.4 133.361 1186.31 Q133.361 1182.18 131.96 1179.95 Q130.528 1177.72 127.95 1177.72 Q125.563 1177.72 124.29 1179.34 Q123.016 1180.94 121.839 1186.38 L121.361 1188.41 Q120.216 1193.86 117.86 1196.28 Q115.473 1198.7 111.335 1198.7 Q106.306 1198.7 103.569 1195.13 Q100.832 1191.57 100.832 1185.01 Q100.832 1181.76 101.309 1178.9 Q101.787 1176.03 102.742 1173.61 Z" fill="#000000" fill-rule="nonzero" fill-opacity="1" /><path clip-path="url(#clip810)" d="M101.691 1162.38 L101.691 1156.52 L137.339 1156.52 L137.339 1162.38 L101.691 1162.38 M87.8141 1162.38 L87.8141 1156.52 L95.2301 1156.52 L95.2301 1162.38 L87.8141 1162.38 Z" fill="#000000" fill-rule="nonzero" fill-opacity="1" /><path clip-path="url(#clip810)" d="M102.742 1121.54 L108.28 1121.54 Q107.007 1124.03 106.37 1126.7 Q105.734 1129.37 105.734 1132.24 Q105.734 1136.6 107.07 1138.79 Q108.407 1140.96 111.081 1140.96 Q113.118 1140.96 114.295 1139.4 Q115.441 1137.84 116.492 1133.13 L116.937 1131.12 Q118.274 1124.89 120.725 1122.28 Q123.144 1119.63 127.504 1119.63 Q132.47 1119.63 135.366 1123.58 Q138.262 1127.49 138.262 1134.37 Q138.262 1137.23 137.689 1140.35 Q137.148 1143.44 136.034 1146.88 L129.987 1146.88 Q131.674 1143.63 132.533 1140.48 Q133.361 1137.33 133.361 1134.24 Q133.361 1130.1 131.96 1127.88 Q130.528 1125.65 127.95 1125.65 Q125.563 1125.65 124.29 1127.27 Q123.016 1128.86 121.839 1134.31 L121.361 1136.34 Q120.216 1141.79 117.86 1144.2 Q115.473 1146.62 111.335 1146.62 Q106.306 1146.62 103.569 1143.06 Q100.832 1139.49 100.832 1132.94 Q100.832 1129.69 101.309 1126.83 Q101.787 1123.96 102.742 1121.54 Z" fill="#000000" fill-rule="nonzero" fill-opacity="1" /><path clip-path="url(#clip810)" d="M129.255 1109.48 L129.255 1102.76 L137.339 1102.76 L137.339 1109.48 L129.255 1109.48 Z" fill="#000000" fill-rule="nonzero" fill-opacity="1" /><polyline clip-path="url(#clip813)" style="stroke:#009af9; stroke-linecap:round; stroke-linejoin:round; stroke-width:8; stroke-opacity:1; fill:none" points="274.363,1181.75 276.443,1181.75 278.523,1181.75 280.604,1181.75 282.684,1181.75 284.765,1181.75 286.845,1181.75 288.926,1181.75 291.006,1181.75 293.087,1181.75 295.167,1181.75 297.248,1181.75 299.328,1181.75 301.409,1181.75 303.489,1181.75 305.57,1181.75 307.65,1181.75 309.731,1181.75 311.811,1181.75 313.892,1181.75 315.972,1181.75 318.052,1181.75 320.133,1181.75 322.213,1181.75 324.294,1181.75 326.374,1181.75 328.455,1181.75 330.535,1181.75 332.616,1181.75 334.696,1181.75 336.777,1181.75 338.857,1181.75 340.938,1181.75 343.018,1181.75 345.099,1181.75 347.179,1181.75 349.26,1181.75 351.34,1181.75 353.421,1181.75 355.501,1181.75 357.581,1181.75 359.662,1181.75 361.742,1181.75 363.823,1181.75 365.903,1181.75 367.984,1181.75 370.064,1181.75 372.145,1181.75 374.225,1181.75 376.306,1181.75 378.386,1181.75 380.467,1181.75 382.547,1181.75 384.628,1181.75 386.708,1181.75 388.789,1181.75 390.869,1181.75 392.95,1181.75 395.03,1181.75 397.11,1181.75 399.191,1181.75 401.271,1181.75 403.352,1181.75 405.432,1181.75 407.513,1181.75 409.593,1181.75 411.674,1181.75 413.754,1181.75 415.835,1181.75 417.915,1181.75 419.996,1181.75 422.076,1181.75 424.157,1181.75 426.237,1181.75 428.318,1181.75 430.398,1181.75 432.479,1181.75 434.559,1181.75 436.639,1181.75 438.72,1181.75 440.8,1181.75 442.881,1181.75 444.961,1181.75 447.042,1181.75 449.122,1181.75 451.203,1181.75 453.283,1181.75 455.364,1181.75 457.444,1181.75 459.525,1181.75 461.605,1181.75 463.686,1181.75 465.766,1181.75 467.847,1181.75 469.927,1181.75 472.008,1181.75 474.088,1181.75 476.168,1181.75 478.249,1181.75 480.329,1181.75 482.41,1181.75 484.49,1181.75 486.571,1181.75 488.651,1181.75 490.732,1181.75 492.812,1181.75 494.893,1181.75 496.973,1181.75 499.054,1181.75 501.134,1181.75 503.215,1181.75 505.295,1181.75 507.376,1181.75 509.456,1181.75 511.537,1181.75 513.617,1181.75 515.697,1181.75 517.778,1181.75 519.858,1181.75 521.939,1181.75 524.019,1181.75 526.1,1181.75 528.18,1181.75 530.261,1181.75 532.341,1181.75 534.422,1181.75 536.502,1181.75 538.583,1181.75 540.663,1181.75 542.744,1181.75 544.824,1181.75 546.905,1181.75 548.985,1181.75 551.066,1181.75 553.146,1181.75 555.226,1181.75 557.307,1181.75 559.387,1181.75 561.468,1181.75 563.548,1181.75 565.629,1181.75 567.709,1181.75 569.79,1181.75 571.87,1181.75 573.951,1181.75 576.031,1181.75 578.112,1181.75 580.192,1181.75 582.273,1181.75 584.353,1181.75 586.434,1181.75 588.514,1181.75 590.595,1181.75 592.675,1181.75 594.755,1181.75 596.836,1181.75 598.916,1181.75 600.997,1181.75 603.077,1181.75 605.158,1181.75 607.238,1181.75 609.319,1181.75 611.399,1181.75 613.48,1181.75 615.56,1181.75 617.641,1181.75 619.721,1181.75 621.802,1181.75 623.882,1181.75 625.963,1181.75 628.043,1181.75 630.124,1181.75 632.204,1181.75 634.284,1181.75 636.365,1181.75 638.445,1181.75 640.526,1181.75 642.606,1181.75 644.687,1181.75 646.767,1181.75 648.848,1181.75 650.928,1181.75 653.009,1181.75 655.089,1181.75 657.17,1181.75 659.25,1181.75 661.331,1181.75 663.411,1181.75 665.492,1181.75 667.572,1181.75 669.653,1181.75 671.733,1181.75 673.813,1181.75 675.894,1181.75 677.974,1181.75 680.055,1181.75 682.135,1181.75 684.216,1181.75 686.296,1181.75 688.377,1181.75 690.457,1181.75 692.538,1181.75 694.618,1181.75 696.699,1181.75 698.779,1181.75 700.86,1181.75 702.94,1181.75 705.021,1181.75 707.101,1181.75 709.182,1181.75 711.262,1181.75 713.342,1181.75 715.423,1181.75 717.503,1181.75 719.584,1181.75 721.664,1181.75 723.745,1181.75 725.825,1181.75 727.906,1181.75 729.986,1181.75 732.067,1181.75 734.147,1181.75 736.228,1181.75 738.308,1181.75 740.389,1181.75 742.469,1181.75 744.55,1181.75 746.63,1181.75 748.711,1181.75 750.791,1181.75 752.871,1181.75 754.952,1181.75 757.032,1181.75 759.113,1181.75 761.193,1181.75 763.274,1181.75 765.354,1181.75 767.435,1181.75 769.515,1181.75 771.596,1181.75 773.676,1181.75 775.757,1181.75 777.837,1181.75 779.918,1181.75 781.998,1181.75 784.079,1181.75 786.159,1181.75 788.24,1181.75 790.32,1181.75 792.4,1181.75 794.481,1181.75 796.561,1181.75 798.642,1181.75 800.722,1181.75 802.803,1181.75 804.883,1181.75 806.964,1181.75 809.044,1181.75 811.125,1181.75 813.205,1181.75 815.286,1181.75 817.366,1181.75 819.447,1181.75 821.527,1181.75 823.608,1181.75 825.688,1181.75 827.769,1181.75 829.849,1181.75 831.93,1181.75 834.01,1181.75 836.09,1181.75 838.171,1181.75 840.251,1181.75 842.332,1181.75 844.412,1181.75 846.493,1181.75 848.573,1181.75 850.654,1181.75 852.734,1181.75 854.815,1181.75 856.895,1181.75 858.976,1181.75 861.056,1181.75 863.137,1181.75 865.217,1181.75 867.298,1181.75 869.378,1407.76 871.459,1407.76 873.539,1407.76 875.619,1407.76 877.7,1407.76 879.78,1407.76 881.861,1407.76 883.941,1407.76 886.022,1407.76 888.102,1407.76 890.183,1407.76 892.263,1407.76 894.344,1407.76 896.424,1407.76 898.505,1407.76 900.585,1407.76 902.666,1407.76 904.746,1407.76 906.827,1407.76 908.907,1407.76 910.988,1407.76 913.068,1407.76 915.148,1407.76 917.229,1407.76 919.309,1407.76 921.39,1407.76 923.47,1407.76 925.551,1407.76 927.631,1407.76 929.712,1407.76 931.792,1407.76 933.873,1407.76 935.953,1407.76 938.034,1407.76 940.114,1407.76 942.195,1407.76 944.275,1407.76 946.356,1407.76 948.436,1407.76 950.517,1407.76 952.597,1407.76 954.677,1407.76 956.758,1407.76 958.838,1407.76 960.919,1407.76 962.999,1407.76 965.08,1407.76 967.16,1407.76 969.241,1407.76 971.321,1407.76 973.402,1407.76 975.482,1407.76 977.563,1407.76 979.643,1407.76 981.724,1407.76 983.804,1407.76 985.885,1407.76 987.965,1407.76 990.046,1407.76 992.126,1407.76 994.206,1407.76 996.287,1407.76 998.367,1407.76 1000.45,1407.76 1002.53,1407.76 1004.61,1407.76 1006.69,1407.76 1008.77,1407.76 1010.85,1407.76 1012.93,1407.76 1015.01,1407.76 1017.09,1407.76 1019.17,1407.76 1021.25,1407.76 1023.33,1407.76 1025.41,1407.76 1027.49,1407.76 1029.57,1407.76 1031.65,1407.76 1033.74,1407.76 1035.82,1407.76 1037.9,1407.76 1039.98,1407.76 1042.06,1407.76 1044.14,1407.76 1046.22,1407.76 1048.3,1407.76 1050.38,1407.76 1052.46,1407.76 1054.54,1407.76 1056.62,1407.76 1058.7,1407.76 1060.78,1407.76 1062.86,1407.76 1064.94,1407.76 1067.02,1407.76 1069.1,1407.76 1071.18,1407.76 1073.26,1407.76 1075.34,1407.76 1077.43,1407.76 1079.51,1407.76 1081.59,1407.76 1083.67,1407.76 1085.75,1407.76 1087.83,1407.76 1089.91,1407.76 1091.99,1407.76 1094.07,1407.76 1096.15,1407.76 1098.23,1407.76 1100.31,1407.76 1102.39,1407.76 1104.47,1407.76 1106.55,1407.76 1108.63,1407.76 1110.71,1407.76 1112.79,1407.76 1114.87,1407.76 1116.95,1407.76 1119.03,1407.76 1121.12,1407.76 1123.2,1407.76 1125.28,1407.76 1127.36,1407.76 1129.44,1407.76 1131.52,1407.76 1133.6,1407.76 1135.68,1407.76 1137.76,1407.76 1139.84,1407.76 1141.92,1407.76 1144,1407.76 1146.08,1407.76 1148.16,1407.76 1150.24,1407.76 1152.32,1407.76 1154.4,1407.76 1156.48,1407.76 1158.56,1407.76 1160.64,1407.76 1162.72,1407.76 1164.81,1407.76 1166.89,1407.76 1168.97,1407.76 1171.05,1407.76 1173.13,1407.76 1175.21,1407.76 1177.29,1407.76 1179.37,1407.76 1181.45,1407.76 1183.53,1407.76 1185.61,1407.76 1187.69,1407.76 1189.77,1407.76 1191.85,1407.76 1193.93,1407.76 1196.01,1407.76 1198.09,1407.76 1200.17,1407.76 1202.25,1407.76 1204.33,1407.76 1206.41,1407.76 1208.5,1407.76 1210.58,1407.76 1212.66,1407.76 1214.74,1407.76 1216.82,1407.76 1218.9,1407.76 1220.98,1407.76 1223.06,1407.76 1225.14,1407.76 1227.22,1407.76 1229.3,1407.76 1231.38,1407.76 1233.46,1407.76 1235.54,1407.76 1237.62,1407.76 1239.7,1407.76 1241.78,1407.76 1243.86,1407.76 1245.94,1407.76 1248.02,1407.76 1250.1,1407.76 1252.19,1407.76 1254.27,1407.76 1256.35,1407.76 1258.43,1407.76 1260.51,1407.76 1262.59,1407.76 1264.67,1407.76 1266.75,1407.76 1268.83,1407.76 1270.91,1407.76 1272.99,1407.76 1275.07,1407.76 1277.15,1407.76 1279.23,1407.76 1281.31,1407.76 1283.39,1407.76 1285.47,1407.76 1287.55,1407.76 1289.63,1407.76 1291.71,1407.76 1293.79,1407.76 1295.88,1407.76 1297.96,1407.76 1300.04,1407.76 1302.12,1407.76 1304.2,1407.76 1306.28,1407.76 1308.36,1407.76 1310.44,1407.76 1312.52,1407.76 1314.6,1407.76 1316.68,1407.76 1318.76,1407.76 1320.84,1407.76 1322.92,1407.76 1325,1407.76 1327.08,1407.76 1329.16,1407.76 1331.24,1407.76 1333.32,1407.76 1335.4,1407.76 1337.48,1407.76 1339.57,1407.76 1341.65,1407.76 1343.73,1407.76 1345.81,1407.76 1347.89,1407.76 1349.97,1407.76 1352.05,1407.76 1354.13,1407.76 1356.21,1407.76 1358.29,1407.76 1360.37,1407.76 1362.45,1407.76 1364.53,1407.76 1366.61,1407.76 1368.69,1407.76 1370.77,1407.76 1372.85,1407.76 1374.93,1407.76 1377.01,1407.76 1379.09,1407.76 1381.17,1407.76 1383.26,1407.76 1385.34,1407.76 1387.42,1407.76 1389.5,1407.76 1391.58,1407.76 1393.66,1407.76 1395.74,1407.76 1397.82,1407.76 1399.9,1407.76 1401.98,1407.76 1404.06,1407.76 1406.14,1407.76 1408.22,1407.76 1410.3,1407.76 1412.38,1407.76 1414.46,1407.76 1416.54,1407.76 1418.62,1407.76 1420.7,1407.76 1422.78,1407.76 1424.86,1407.76 1426.95,1407.76 1429.03,1407.76 1431.11,1407.76 1433.19,1407.76 1435.27,1407.76 1437.35,1407.76 1439.43,1407.76 1441.51,1407.76 1443.59,1407.76 1445.67,1407.76 1447.75,1407.76 1449.83,1407.76 1451.91,1407.76 1453.99,1407.76 1456.07,1407.76 1458.15,1407.76 1460.23,1407.76 1462.31,1407.76 1464.39,1407.76 1466.47,1407.76 1468.55,1407.76 1470.63,1407.76 1472.72,1407.76 1474.8,1407.76 1476.88,1407.76 1478.96,1407.76 1481.04,1407.76 1483.12,1407.76 1485.2,1407.76 1487.28,1407.76 1489.36,1407.76 1491.44,1407.76 1493.52,1407.76 1495.6,1407.76 1497.68,1407.76 1499.76,1407.76 1501.84,1407.76 1503.92,1407.76 1506,1407.76 1508.08,1407.76 1510.16,1407.76 1512.24,1407.76 1514.32,1407.76 1516.41,1407.76 1518.49,1407.76 1520.57,1407.76 1522.65,1407.76 1524.73,1407.76 1526.81,1407.76 1528.89,1407.76 1530.97,1407.76 1533.05,1407.76 1535.13,1407.76 1537.21,1407.76 1539.29,1407.76 1541.37,1407.76 1543.45,1407.76 1545.53,1407.76 1547.61,1407.76 1549.69,1407.76 1551.77,1407.76 1553.85,1407.76 1555.93,1407.76 1558.01,1407.76 1560.1,1407.76 1562.18,1407.76 1564.26,1407.76 1566.34,1407.76 1568.42,1407.76 1570.5,1407.76 1572.58,1407.76 1574.66,1407.76 1576.74,1407.76 1578.82,1407.76 1580.9,1407.76 1582.98,1407.76 1585.06,1407.76 1587.14,1407.76 1589.22,1407.76 1591.3,1407.76 1593.38,1407.76 1595.46,1407.76 1597.54,1407.76 1599.62,1407.76 1601.7,1407.76 1603.79,1407.76 1605.87,1407.76 1607.95,1407.76 1610.03,1407.76 1612.11,1407.76 1614.19,1407.76 1616.27,1407.76 1618.35,1407.76 1620.43,1407.76 1622.51,1407.76 1624.59,1407.76 1626.67,1407.76 1628.75,1407.76 1630.83,1407.76 1632.91,1407.76 1634.99,1407.76 1637.07,1407.76 1639.15,1407.76 1641.23,1407.76 1643.31,1407.76 1645.39,1407.76 1647.48,1407.76 1649.56,1407.76 1651.64,1407.76 1653.72,1407.76 1655.8,1407.76 1657.88,1407.76 1659.96,1407.76 1662.04,1407.76 1664.12,1407.76 1666.2,1407.76 1668.28,1407.76 1670.36,1407.76 1672.44,1407.76 1674.52,1407.76 1676.6,1407.76 1678.68,1407.76 1680.76,1407.76 1682.84,1407.76 1684.92,1407.76 1687,1407.76 1689.08,1407.76 1691.17,1407.76 1693.25,1407.76 1695.33,1407.76 1697.41,1407.76 1699.49,1407.76 1701.57,1407.76 1703.65,1407.76 1705.73,1407.76 1707.81,1407.76 1709.89,1407.76 1711.97,1407.76 1714.05,1407.76 1716.13,1407.76 1718.21,1407.76 1720.29,1407.76 1722.37,1407.76 1724.45,1407.76 1726.53,1407.76 1728.61,1407.76 1730.69,1407.76 1732.77,1407.76 1734.86,1407.76 1736.94,1407.76 1739.02,1407.76 1741.1,1407.76 1743.18,1407.76 1745.26,1407.76 1747.34,1407.76 1749.42,1407.76 1751.5,1407.76 1753.58,1407.76 1755.66,1407.76 1757.74,1407.76 1759.82,1407.76 1761.9,1407.76 1763.98,1407.76 1766.06,1407.76 1768.14,1407.76 1770.22,1407.76 1772.3,1407.76 1774.38,1407.76 1776.46,1407.76 1778.55,1407.76 1780.63,1407.76 1782.71,1407.76 1784.79,1407.76 1786.87,1407.76 1788.95,1407.76 1791.03,1407.76 1793.11,1407.76 1795.19,1407.76 1797.27,1407.76 1799.35,1407.76 1801.43,1407.76 1803.51,1407.76 1805.59,1407.76 1807.67,1407.76 1809.75,1407.76 1811.83,1407.76 1813.91,1407.76 1815.99,1407.76 1818.07,1407.76 1820.15,1407.76 1822.24,1407.76 1824.32,1407.76 1826.4,1407.76 1828.48,1407.76 1830.56,1407.76 1832.64,1407.76 1834.72,1407.76 1836.8,1407.76 1838.88,1407.76 1840.96,1407.76 1843.04,1407.76 1845.12,1407.76 1847.2,1407.76 1849.28,1407.76 1851.36,1407.76 1853.44,1407.76 1855.52,1407.76 1857.6,1407.76 1859.68,1407.76 1861.76,1407.76 1863.84,1407.76 1865.93,1407.76 1868.01,1407.76 1870.09,1407.76 1872.17,1407.76 1874.25,1407.76 1876.33,1407.76 1878.41,1407.76 1880.49,1407.76 1882.57,1407.76 1884.65,1407.76 1886.73,1407.76 1888.81,1407.76 1890.89,1407.76 1892.97,1407.76 1895.05,1407.76 1897.13,1407.76 1899.21,1407.76 1901.29,1407.76 1903.37,1407.76 1905.45,1407.76 1907.53,1407.76 1909.61,1407.76 1911.7,1407.76 1913.78,1407.76 1915.86,1407.76 1917.94,1407.76 1920.02,1407.76 1922.1,1407.76 1924.18,1407.76 1926.26,1407.76 1928.34,1407.76 1930.42,1407.76 1932.5,1407.76 1934.58,1407.76 1936.66,1407.76 1938.74,1407.76 1940.82,1407.76 1942.9,1407.76 1944.98,1407.76 1947.06,1407.76 1949.14,1407.76 1951.22,1407.76 1953.3,1407.76 1955.39,1407.76 1957.47,1407.76 1959.55,1407.76 1961.63,1407.76 1963.71,1407.76 1965.79,1407.76 1967.87,1407.76 1969.95,1407.76 1972.03,1407.76 1974.11,1407.76 1976.19,1407.76 1978.27,1407.76 1980.35,1407.76 1982.43,1407.76 1984.51,1407.76 1986.59,1407.76 1988.67,1407.76 1990.75,1407.76 1992.83,1407.76 1994.91,1407.76 1996.99,1407.76 1999.08,1407.76 2001.16,1407.76 2003.24,1407.76 2005.32,1407.76 2007.4,1407.76 2009.48,1407.76 2011.56,1407.76 2013.64,1407.76 2015.72,1407.76 2017.8,1407.76 2019.88,1407.76 2021.96,1407.76 2024.04,1407.76 2026.12,1407.76 2028.2,1407.76 2030.28,1407.76 2032.36,1407.76 2034.44,1407.76 2036.52,1407.76 2038.6,1407.76 2040.68,1407.76 2042.77,1407.76 2044.85,1407.76 2046.93,1407.76 2049.01,1407.76 2051.09,1407.76 2053.17,1407.76 2055.25,1407.76 2057.33,1407.76 2059.41,1407.76 2061.49,1407.76 2063.57,1407.76 2065.65,1407.76 2067.73,1407.76 2069.81,1407.76 2071.89,1407.76 2073.97,1407.76 2076.05,1407.76 2078.13,1407.76 2080.21,1407.76 2082.29,1407.76 2084.37,1407.76 2086.46,1407.76 2088.54,1407.76 2090.62,1407.76 2092.7,1407.76 2094.78,1407.76 2096.86,1407.76 2098.94,1407.76 2101.02,1407.76 2103.1,1407.76 2105.18,1407.76 2107.26,1407.76 2109.34,1407.76 2111.42,1407.76 2113.5,1407.76 2115.58,1407.76 2117.66,1407.76 2119.74,1407.76 2121.82,1407.76 2123.9,1407.76 2125.98,1407.76 2128.06,1407.76 2130.15,1407.76 2132.23,1407.76 2134.31,1407.76 2136.39,1407.76 2138.47,1407.76 2140.55,1407.76 2142.63,1407.76 2144.71,1407.76 2146.79,1407.76 2148.87,1407.76 2150.95,1407.76 2153.03,1407.76 2155.11,1407.76 2157.19,1407.76 2159.27,1407.76 2161.35,1407.76 2163.43,1407.76 2165.51,1407.76 2167.59,1407.76 2169.67,1407.76 2171.75,1407.76 2173.84,1407.76 2175.92,1407.76 2178,1407.76 2180.08,1407.76 2182.16,1407.76 2184.24,1407.76 2186.32,1407.76 2188.4,1407.76 2190.48,1407.76 2192.56,1407.76 2194.64,1407.76 2196.72,1407.76 2198.8,1407.76 2200.88,1407.76 2202.96,1407.76 2205.04,1407.76 2207.12,1407.76 2209.2,1407.76 2211.28,1407.76 2213.36,1407.76 2215.44,1407.76 2217.53,1407.76 2219.61,1407.76 2221.69,1407.76 2223.77,1407.76 2225.85,1407.76 2227.93,1407.76 2230.01,1407.76 2232.09,1407.76 2234.17,1407.76 2236.25,1407.76 2238.33,1407.76 2240.41,1407.76 2242.49,1407.76 2244.57,1407.76 2246.65,1407.76 2248.73,1407.76 2250.81,1407.76 2252.89,1407.76 2254.97,1407.76 2257.05,1407.76 2259.13,1407.76 2261.22,1407.76 2263.3,1407.76 2265.38,1407.76 2267.46,1407.76 2269.54,1407.76 2271.62,1407.76 2273.7,1407.76 2275.78,1407.76 2277.86,1407.76 2279.94,1407.76 2282.02,1407.76 2284.1,1407.76 2286.18,1407.76 2288.26,1407.76 2290.34,1407.76 2292.42,1407.76 2294.5,1407.76 2296.58,1407.76 2298.66,1407.76 2300.74,1407.76 2302.82,1407.76 2304.91,1407.76 2306.99,1407.76 2309.07,1407.76 2311.15,1407.76 2313.23,1407.76 2315.31,1407.76 2317.39,1407.76 2319.47,1407.76 2321.55,1407.76 2323.63,1407.76 2325.71,1407.76 2327.79,1407.76 2329.87,1407.76 2331.95,1407.76 2334.03,1407.76 2336.11,1407.76 2338.19,1407.76 2340.27,1407.76 2342.35,1407.76 2344.43,1407.76 2346.51,1407.76 2348.59,1407.76 2350.68,1407.76 2352.76,1407.76 "/>
</svg>
